<?xml version="1.0" encoding="UTF-8" standalone="no"?>
<svg
   width="2199.685mm"
   height="923.548mm"
   viewBox="-1717.342529 86.000000 2199.685059 923.548157"
   version="1.1"
   id="svg1336"
   sodipodi:docname="joystick_BaahBoxV2.svg"
   inkscape:version="1.1.2 (b8e25be8, 2022-02-05)"
   xmlns:inkscape="http://www.inkscape.org/namespaces/inkscape"
   xmlns:sodipodi="http://sodipodi.sourceforge.net/DTD/sodipodi-0.dtd"
   xmlns="http://www.w3.org/2000/svg"
   xmlns:svg="http://www.w3.org/2000/svg">
  <defs
     id="defs1340" />
  <sodipodi:namedview
     id="namedview1338"
     pagecolor="#ffffff"
     bordercolor="#666666"
     borderopacity="1.0"
     inkscape:pageshadow="2"
     inkscape:pageopacity="0.0"
     inkscape:pagecheckerboard="0"
     inkscape:document-units="mm"
     showgrid="false"
     inkscape:zoom="0.13724218"
     inkscape:cx="4317.1857"
     inkscape:cy="-626.62949"
     inkscape:window-width="1792"
     inkscape:window-height="1092"
     inkscape:window-x="0"
     inkscape:window-y="28"
     inkscape:window-maximized="0"
     inkscape:current-layer="svg1336" />
  <path
     transform="matrix(1,0,0,-1,-994.172485,383)"
     style="stroke:#000000;stroke-width:0.05mm;fill:none"
     d="M653.111389,99.121017C652.689758,99.12011,652.283447,98.963669,651.970398,98.681229L651.909302,98.6231C651.61084,98.325089,651.434143,97.926567,651.413452,97.505318L651.411377,97.421021C651.411377,96.999306,651.568237,96.592712,651.851196,96.280029L651.909302,96.218941C652.207886,95.921211,652.606018,95.744637,653.0271,95.723114L653.111389,95.721024C653.19812,95.721031,653.284729,95.726547,653.3703,95.740608C654.199585,95.868149,654.811523,96.581963,654.811401,97.421021C654.810547,98.359756,654.05011,99.120399,653.111389,99.121017z"
     id="path942" />
  <path
     transform="matrix(1,0,0,-1,-994.172485,383)"
     style="stroke:#000000;stroke-width:0.05mm;fill:none"
     d="M679.813354,98.6231C680.132019,98.304146,680.311096,97.871864,680.311279,97.421021C680.312134,96.970055,680.132568,96.537483,679.813354,96.218941C679.556458,95.960686,679.222839,95.792206,678.862366,95.739655C678.779297,95.727188,678.695374,95.721222,678.611328,95.721024L678.523804,95.723236C677.619568,95.768341,676.90979,96.515663,676.911316,97.421021L676.913513,97.508499C676.958496,98.412407,677.706299,99.119934,678.611328,99.121017C679.062134,99.121094,679.493958,98.941185,679.813354,98.6231z"
     id="path944" />
  <path
     transform="matrix(1,0,0,-1,-994.172485,383)"
     style="stroke:#000000;stroke-width:0.05mm;fill:none"
     d="M675.068665,95.290314L675.766296,99.553947L675.778809,99.636658L675.789246,99.718872C675.946472,100.72834,675.526917,101.741409,674.701355,102.343239C674.27771,102.626122,673.779053,102.775223,673.269653,102.770988L658.453003,102.770988C658.40155,102.773148,658.349976,102.772293,658.298767,102.766777C656.974304,102.692284,655.9328,101.604721,655.915833,100.278267C655.903076,100.036087,655.917297,99.793304,655.95636,99.553947L656.653931,95.290314L656.668457,95.207581C656.969177,93.617294,658.221191,92.379494,659.814819,92.097008C659.943298,92.079506,660.072876,92.07093,660.202576,92.071007L671.520081,92.071007L671.5979,92.072067C672.820435,92.157333,673.921631,92.840736,674.541504,93.897949C674.806396,94.323242,674.985291,94.796272,675.068665,95.290314z"
     id="path946" />
  <path
     transform="matrix(1,0,0,-1,-994.172485,383)"
     style="stroke:#000000;stroke-width:0.05mm;fill:none"
     d="M82.846634,179.512863C83.476753,179.512115,84.080299,179.258957,84.522354,178.809921C84.967896,178.357544,85.217209,177.747803,85.216454,177.112854C85.216484,176.75853,85.138931,176.408508,84.989227,176.087372C84.8731,175.838486,84.715302,175.611252,84.522346,175.415802L84.437187,175.333725C84.003494,174.934845,83.435867,174.713287,82.846634,174.71286L82.785469,174.713654C81.492813,174.755569,80.468956,175.819534,80.476845,177.112854L80.479759,177.231857C80.508171,177.824997,80.754189,178.386902,81.170937,178.809921C81.613007,179.258926,82.21653,179.512054,82.846634,179.512863z"
     id="path948" />
  <path
     transform="matrix(1,0,0,-1,-994.172485,383)"
     style="stroke:#000000;stroke-width:0.05mm;fill:none"
     d="M39.273392,179.512863C39.909912,179.512878,40.520355,179.26001,40.970451,178.809921C41.42049,178.359787,41.673374,177.749374,41.673382,177.112854C41.673473,176.950394,41.6572,176.78833,41.624622,176.629166C41.394966,175.513336,40.412613,174.712692,39.273392,174.71286L39.154381,174.71582C38.559757,174.745407,37.997307,174.994812,37.576328,175.415802L37.494263,175.502029C37.094707,175.943405,36.873375,176.517487,36.873379,177.112854L36.876328,177.231857C36.905903,177.826492,37.155361,178.388916,37.576321,178.809921C38.026455,179.259964,38.636871,179.512848,39.273392,179.512863z"
     id="path950" />
  <path
     transform="matrix(1,0,0,-1,-994.172485,383)"
     style="stroke:#000000;stroke-width:0.05mm;fill:none"
     d="M82.849174,259.840973C84.166397,259.832825,85.227226,258.758209,85.218964,257.440979C85.218918,257.199127,85.18293,256.958649,85.112419,256.727325C84.81089,255.728775,83.892258,255.044418,82.849174,255.041016L82.731667,255.043961C82.14299,255.074036,81.587189,255.324097,81.173462,255.743942L81.09243,255.83017C80.697174,256.273621,80.478745,256.846954,80.479355,257.440979L80.482269,257.559998C80.51059,258.153168,80.756523,258.71521,81.173462,259.138062C81.615364,259.58728,82.219025,259.840515,82.849174,259.840973z"
     id="path952" />
  <path
     transform="matrix(1,0,0,-1,-994.172485,383)"
     style="stroke:#000000;stroke-width:0.05mm;fill:none"
     d="M40.979271,259.138062C41.424652,258.685547,41.673862,258.075897,41.673382,257.440979C41.67355,257.322357,41.664806,257.203918,41.647408,257.086578C41.573048,256.579407,41.338989,256.109131,40.979271,255.743942L40.894115,255.66188C40.460361,255.263107,39.892765,255.041687,39.303558,255.041016L39.242393,255.041794C37.949757,255.083771,36.925919,256.147675,36.933769,257.440979L36.934544,257.50293C36.958992,258.79599,38.010281,259.833527,39.303558,259.840973C39.933678,259.84021,40.537331,259.587219,40.979271,259.138062z"
     id="path954" />
  <path
     transform="matrix(1,0,0,-1,-994.172485,383)"
     style="stroke:#000000;stroke-width:0.05mm;fill:none"
     d="M61.045158,228.176941C67.065933,228.178528,71.946701,223.297714,71.945129,217.276932C71.946129,216.177963,71.780899,215.085175,71.455086,214.035614C70.035522,209.479309,65.817482,206.376083,61.045158,206.376953L60.763824,206.380524C54.854549,206.531464,50.143509,211.365723,50.145149,217.276932L50.148506,217.547592C50.217964,220.343918,51.359768,223.0065,53.337681,224.984406C55.381836,227.028564,58.154289,228.176941,61.045158,228.176941z"
     id="path956" />
  <path
     transform="matrix(1,0,0,-1,-994.172485,383)"
     style="stroke:#000000;stroke-width:0.05mm;fill:none"
     d="M305,282L305,268.375L310,268.375L310,256.880005L305,256.880005L305,245.585007L310,245.585007L310,234.089996L305,234.089996L305,222.794998L310,222.794998L310,211.300003L305,211.300003L305,200.005005L310,200.005005L310,188.509995L305,188.509995L305,177.214996L310,177.214996L310,165.720001L305,165.720001L305,152C305.000854,148.330643,302.991241,144.955551,299.764893,143.207718C298.302429,142.413345,296.664276,141.998016,295,142L274.743011,142L274.743011,137L263.247986,137L263.247986,142L251.953003,142L251.953003,137L240.457993,137L240.457993,142L229.162994,142L229.162994,137L217.667999,137L217.667999,142L206.373001,142L206.373001,137L194.878006,137L194.878006,142L183.582993,142L183.582993,137L172.087997,137L172.087997,142L160.792999,142L160.792999,137L149.298004,137L149.298004,142L138.003006,142L138.003006,137L126.508003,137L126.508003,142L115.212997,142L115.212997,137L103.718002,137L103.718002,142L92.422997,142L92.422997,137L80.928001,137L80.928001,142L69.633003,142L69.633003,137L58.138,137L58.138,142L46.842999,142L46.842999,137L35.348,137L35.348,142L15,142L14.74207,142.003265C9.321783,142.144302,5.001144,146.577881,5,152L5,165.625L0,165.625L0,177.119995L5,177.119995L5,188.414993L0,188.414993L0,199.910004L5,199.910004L5,211.205002L0,211.205002L0,222.699997L5,222.699997L5,233.994995L0,233.994995L0,245.490005L5,245.490005L5,256.785004L0,256.785004L0,268.279999L5,268.279999L5,282C5.001221,287.522552,9.477442,291.998779,15,292L35.257,292L35.257,297L46.751999,297L46.751999,292L58.047001,292L58.047001,297L69.542,297L69.542,292L80.836998,292L80.836998,297L92.332001,297L92.332001,292L103.626999,292L103.626999,297L115.122002,297L115.122002,292L126.417,292L126.417,297L137.912003,297L137.912003,292L149.207001,292L149.207001,297L160.701996,297L160.701996,292L171.996994,292L171.996994,297L183.492004,297L183.492004,292L194.787003,292L194.787003,297L206.281998,297L206.281998,292L217.576996,292L217.576996,297L229.072006,297L229.072006,292L240.367004,292L240.367004,297L251.862,297L251.862,292L263.157013,292L263.157013,297L274.652008,297L274.652008,292L295,292C300.522461,291.998505,304.998474,287.522461,305,282z"
     id="path958" />
  <path
     transform="matrix(1,0,0,-1,-994.172485,383)"
     style="stroke:#000000;stroke-width:0.05mm;fill:none"
     d="M617,282L617,268.375L622,268.375L622,256.880005L617,256.880005L617,245.585007L622,245.585007L622,234.089996L617,234.089996L617,222.794998L622,222.794998L622,211.300003L617,211.300003L617,200.005005L622,200.005005L622,188.509995L617,188.509995L617,177.214996L622,177.214996L622,165.720001L617,165.720001L617,152C616.99884,147.439102,613.913696,143.4561,609.497864,142.315063C608.681763,142.105576,607.842529,141.999695,607,142L586.742981,142L586.742981,137L575.247986,137L575.247986,142L563.953003,142L563.953003,137L552.458008,137L552.458008,142L541.163025,142L541.163025,137L529.66803,137L529.66803,142L518.372986,142L518.372986,137L506.877991,137L506.877991,142L495.583008,142L495.583008,137L484.088013,137L484.088013,142L472.792999,142L472.792999,137L461.298004,137L461.298004,142L450.002991,142L450.002991,137L438.507996,137L438.507996,142L427.213013,142L427.213013,137L415.717987,137L415.717987,142L404.423004,142L404.423004,137L392.928009,137L392.928009,142L381.632996,142L381.632996,137L370.138,137L370.138,142L358.842987,142L358.842987,137L347.347992,137L347.347992,142L327,142L326.742065,142.003265C321.321747,142.144226,317.001038,146.57785,317,152L317,165.625L312,165.625L312,177.119995L317,177.119995L317,188.414993L312,188.414993L312,199.910004L317,199.910004L317,211.205002L312,211.205002L312,222.699997L317,222.699997L317,233.994995L312,233.994995L312,245.490005L317,245.490005L317,256.785004L312,256.785004L312,268.279999L317,268.279999L317,282L317.003265,282.257935C317.144043,287.678314,321.577789,291.999146,327,292L347.256989,292L347.256989,297L358.752014,297L358.752014,292L370.046997,292L370.046997,297L381.541992,297L381.541992,292L392.837006,292L392.837006,297L404.332001,297L404.332001,292L415.627014,292L415.627014,297L427.122009,297L427.122009,292L438.416992,292L438.416992,297L449.911987,297L449.911987,292L461.207001,292L461.207001,297L472.701996,297L472.701996,292L483.997009,292L483.997009,297L495.492004,297L495.492004,292L506.786987,292L506.786987,297L518.281982,297L518.281982,292L529.577026,292L529.577026,297L541.072021,297L541.072021,292L552.367004,292L552.367004,297L563.862,297L563.862,292L575.156982,292L575.156982,297L586.651978,297L586.651978,292L607,292C612.522583,291.998932,616.998962,287.522614,617,282z"
     id="path960" />
  <path
     transform="matrix(1,0,0,-1,-994.172485,383)"
     style="stroke:#000000;stroke-width:0.05mm;fill:none"
     d="M390.799988,258.950012L390.799988,231.050003L395.700012,231.050003L395.700012,258.950012L390.799988,258.950012z"
     id="path962" />
  <path
     transform="matrix(1,0,0,-1,-994.172485,383)"
     style="stroke:#000000;stroke-width:0.05mm;fill:none"
     d="M390.799988,202.949997L390.799988,175.050003L395.700012,175.050003L395.700012,202.949997L390.799988,202.949997z"
     id="path964" />
  <path
     transform="matrix(1,0,0,-1,-994.172485,383)"
     style="stroke:#000000;stroke-width:0.05mm;fill:none"
     d="M464.549988,258.950012L464.549988,231.050003L469.450012,231.050003L469.450012,258.950012L464.549988,258.950012z"
     id="path966" />
  <path
     transform="matrix(1,0,0,-1,-994.172485,383)"
     style="stroke:#000000;stroke-width:0.05mm;fill:none"
     d="M464.549988,202.949997L464.549988,175.050003L469.450012,175.050003L469.450012,202.949997L464.549988,202.949997z"
     id="path968" />
  <path
     transform="matrix(1,0,0,-1,-994.172485,383)"
     style="stroke:#000000;stroke-width:0.05mm;fill:none"
     d="M538.299988,258.950012L538.299988,231.050003L543.200012,231.050003L543.200012,258.950012L538.299988,258.950012z"
     id="path970" />
  <path
     transform="matrix(1,0,0,-1,-994.172485,383)"
     style="stroke:#000000;stroke-width:0.05mm;fill:none"
     d="M538.299988,202.949997L538.299988,175.050003L543.200012,175.050003L543.200012,202.949997L538.299988,202.949997z"
     id="path972" />
  <path
     transform="matrix(1,0,0,-1,-994.172485,383)"
     style="stroke:#000000;stroke-width:0.05mm;fill:none"
     d="M5,118.988998C4.997218,118.785851,5.084786,118.591942,5.239024,118.459709C5.516542,118.217888,5.93416,118.233063,6.193332,118.494453L6.234,118.539001L8.613,121.375C8.749308,121.539124,8.973566,121.600349,9.174577,121.528877C9.375588,121.457397,9.510845,121.268333,9.513,121.055L9.513,109.985001C9.514354,109.852173,9.460716,109.724663,9.364886,109.632668C9.164279,109.435303,8.842532,109.43541,8.642064,109.632927L8.613,109.665001L6.234,112.500999C6.045571,112.72699,5.735607,112.809624,5.459176,112.708817C5.182745,112.608009,4.998736,112.345253,5,112.051003L5,106.515999L5,100.981003C4.997217,100.777847,5.084796,100.583946,5.239024,100.451714C5.516532,100.209869,5.934157,100.225067,6.193332,100.48645L6.234,100.530998L8.613,103.366997C8.749362,103.531067,8.97362,103.592346,9.17464,103.520882C9.375658,103.449417,9.51091,103.26033,9.513,103.046997L9.513,91.976997C9.514245,91.844177,9.460649,91.716713,9.364886,91.624664C9.164274,91.427307,8.842554,91.427444,8.642064,91.624924L8.613,91.656998L6.234,94.492996C6.04553,94.718956,5.735568,94.801598,5.459132,94.700806C5.182695,94.600006,4.99868,94.337242,5,94.042999L5,88.508003L5,82.973C4.997223,82.769852,5.084786,82.575943,5.239024,82.443703C5.516538,82.201889,5.934136,82.217094,6.193332,82.478447L6.234,82.523003L8.613,85.359001C8.749339,85.523102,8.973599,85.584381,9.174617,85.512909C9.375634,85.441437,9.510869,85.252335,9.513,85.039001L9.513,73.969002C9.514322,73.823151,9.449626,73.684525,9.337094,73.591736C9.134134,73.418068,8.831972,73.429077,8.642064,73.616928L8.613,73.649002L6.234,76.485001C6.04557,76.710991,5.735606,76.793625,5.459174,76.692818C5.182743,76.59201,4.998738,76.329247,5,76.035004L5,70.5L5,65L4.996,65L10.593,65L10.593,60L22.087999,60L22.087999,65L33.382999,65L33.382999,60L44.877998,60L44.877998,65L56.173,65L56.173,60L67.667999,60L67.667999,65L78.962997,65L78.962997,60L90.458,60L90.458,65L101.752998,65L101.752998,60L113.248001,60L113.248001,65L124.542999,65L124.542999,60L145,60L160.707993,60L174.427994,60L174.427994,65L185.723007,65L185.723007,60L197.218002,60L197.218002,65L208.513,65L208.513,60L220.007996,60L220.007996,65L231.302994,65L231.302994,60L242.798004,60L242.798004,65L254.093002,65L254.093002,60L265.588013,60L265.588013,65L276.882996,65L276.882996,60L290.708008,60L306.415985,60L326.763,60L326.763,65L338.058014,65L338.058014,60L349.553009,60L349.553009,65L360.847992,65L360.847992,60L372.342987,60L372.342987,65L383.638,65L383.638,60L395.132996,60L395.132996,65L406.428009,65L406.428009,60L417.923004,60L417.923004,65L429.217987,65L429.217987,60L440.713013,60L440.713013,65L452.007996,65L452.007996,60L463.502991,60L463.502991,65L474.798004,65L474.798004,60L486.292999,60L486.292999,65L497.588013,65L497.588013,60L509.083008,60L509.083008,65L520.377991,65L520.377991,60L531.872986,60L531.872986,65L543.16803,65L543.16803,60L554.663025,60L554.663025,65L565.958008,65L565.958008,60L586.416016,60L602.124023,60L615.843994,60L615.843994,65L627.138977,65L627.138977,60L638.633972,60L638.633972,65L649.929016,65L649.929016,60L661.424011,60L661.424011,65L672.718994,65L672.718994,60L684.213989,60L684.213989,65L695.508972,65L695.508972,60L707.004028,60L707.004028,65L718.299011,65L718.299011,60L732.124023,60L747.83197,60L768.284973,60L768.284973,65L779.580017,65L779.580017,60L791.075012,60L791.075012,65L802.369995,65L802.369995,60L813.86499,60L813.86499,65L825.159973,65L825.159973,60L836.655029,60L836.655029,65L847.950012,65L847.950012,60L859.445007,60L859.445007,65L870.73999,65L870.73999,60L882.234985,60L882.234985,65L887.83197,65L887.83197,70.475998L887.83197,76.011002C887.828613,76.343834,888.062073,76.633247,888.388855,76.696526L888.439209,76.705338L888.490112,76.710518C888.710815,76.721878,888.924255,76.630585,889.065979,76.460999L891.445007,73.625C891.465271,73.604164,891.486145,73.583847,891.507507,73.564125C891.529419,73.547371,891.55188,73.531288,891.574951,73.516197C891.598267,73.503502,891.622131,73.492012,891.646118,73.480743C891.902405,73.378197,892.196594,73.492027,892.305603,73.745583L892.319397,73.78212L892.330322,73.820389L892.338379,73.860329L892.343323,73.901886L892.344971,73.945L892.344971,85.014999L892.343262,85.057762C892.340393,85.085022,892.334839,85.111771,892.329956,85.138687C892.313782,85.201141,892.284851,85.259369,892.246704,85.311378C892.230469,85.330353,892.214233,85.349335,892.196899,85.367332C892.178528,85.384117,892.158875,85.399399,892.139587,85.415077C892.08783,85.44986,892.032715,85.47966,891.972351,85.495346C891.849731,85.532295,891.716675,85.524117,891.604492,85.462814C891.581543,85.449524,891.558167,85.437103,891.536804,85.421333L891.5047,85.395828L891.47406,85.367073L891.445007,85.334999L889.065979,82.499001L889.025696,82.454536C888.882141,82.309586,888.681763,82.238045,888.478394,82.253464C888.275024,82.268875,888.087769,82.369812,887.966003,82.533455C887.931274,82.574257,887.902344,82.619995,887.887146,82.671059C887.873657,82.705154,887.862854,82.740181,887.852539,82.775352L887.841248,82.831017L887.834351,82.888931L887.83197,82.948997L887.83197,88.484001L887.83197,94.018997C887.832092,94.35083,888.063965,94.637001,888.388855,94.704529L888.439209,94.713333L888.490112,94.718521C888.710693,94.728867,888.923889,94.638161,889.065979,94.469002L891.445007,91.633003C891.498413,91.568375,891.569763,91.523125,891.646118,91.488747C891.889038,91.394516,892.166199,91.489082,892.289185,91.718834C892.325439,91.791649,892.341858,91.87188,892.344971,91.953003L892.344971,103.023003L892.343262,103.065773L892.338196,103.10701L892.329956,103.14669L892.318665,103.184738C892.272156,103.316727,892.171997,103.422073,892.043945,103.47831C891.915833,103.534554,891.770508,103.536972,891.639832,103.486923L891.604492,103.47081L891.570068,103.451637L891.536804,103.429337L891.5047,103.403831L891.47406,103.375076L891.445007,103.343002L889.065979,100.507004C888.949036,100.363571,888.779053,100.27282,888.594543,100.258926C888.560303,100.25737,888.526123,100.256187,888.491882,100.258179C888.144104,100.276718,887.864746,100.549973,887.834351,100.896927L887.83197,100.957001L887.83197,106.491997L887.83197,112.027C887.828064,112.302811,887.992249,112.551453,888.243469,112.665192L888.290771,112.684372L888.339294,112.70018L888.388855,112.712517L888.439209,112.721336C888.676331,112.753487,888.912537,112.660599,889.065979,112.476997L891.445007,109.640999C891.475037,109.610123,891.507263,109.581619,891.54071,109.554573C891.563354,109.539833,891.586609,109.526138,891.610168,109.512939C891.63385,109.501984,891.658142,109.492363,891.682739,109.483559C891.930481,109.404373,892.195435,109.526062,892.305603,109.761581C892.321594,109.798233,892.330383,109.837189,892.338379,109.876328C892.341553,109.904472,892.34375,109.932709,892.344971,109.960999L892.344971,121.030998C892.349976,121.125511,892.323608,121.219719,892.268372,121.296463C892.191895,121.414223,892.070557,121.495209,891.932617,121.521599C891.794739,121.547989,891.652039,121.517532,891.536804,121.437332C891.513794,121.421669,891.491821,121.404442,891.47406,121.383072L891.445007,121.350998L889.065979,118.514999C889.02887,118.469902,888.986023,118.429863,888.938965,118.395279C888.915527,118.365913,888.882263,118.345161,888.84552,118.337723L888.796875,118.315361L888.747253,118.297188L888.696838,118.283112L888.645874,118.273064C888.453125,118.242111,888.256165,118.292397,888.102051,118.412178C887.947876,118.531937,887.850525,118.710403,887.834351,118.90493L887.83197,118.964996L887.83197,124.5L887.83197,125L887.83197,130L887.835999,130L882.239014,130L882.239014,135L870.744019,135L870.744019,130L859.448975,130L859.448975,135L847.953979,135L847.953979,130L836.658997,130L836.658997,135L825.164001,135L825.164001,130L813.869019,130L813.869019,135L802.374023,135L802.374023,130L791.078979,130L791.078979,135L779.583984,135L779.583984,130L768.289001,130L768.289001,135L747.83197,135L732.124023,135L718.403992,135L718.403992,130L707.109009,130L707.109009,135L695.614014,135L695.614014,130L684.31897,130L684.31897,135L672.823975,135L672.823975,130L661.528992,130L661.528992,135L650.033997,135L650.033997,130L638.739014,130L638.739014,135L627.244019,135L627.244019,130L615.948975,130L615.948975,135L602.124023,135L586.416016,135L566.067993,135L566.067993,130L554.77301,130L554.77301,135L543.278015,135L543.278015,130L531.982971,130L531.982971,135L520.487976,135L520.487976,130L509.192993,130L509.192993,135L497.697998,135L497.697998,130L486.403015,130L486.403015,135L474.90799,135L474.90799,130L463.613007,130L463.613007,135L452.118011,135L452.118011,130L440.822998,130L440.822998,135L429.328003,135L429.328003,130L418.03299,130L418.03299,135L406.537994,135L406.537994,130L395.243011,130L395.243011,135L383.747986,135L383.747986,130L372.453003,130L372.453003,135L360.958008,135L360.958008,130L349.662994,130L349.662994,135L338.167999,135L338.167999,130L326.872986,130L326.872986,135L306.415985,135L290.708008,135L276.988007,135L276.988007,130L265.692993,130L265.692993,135L254.197998,135L254.197998,130L242.903,130L242.903,135L231.408005,135L231.408005,130L220.113007,130L220.113007,135L208.617996,135L208.617996,130L197.322998,130L197.322998,135L185.828003,135L185.828003,130L174.533005,130L174.533005,135L160.707993,135L145,135L124.546997,135L124.546997,130L113.251999,130L113.251999,135L101.757004,135L101.757004,130L90.461998,130L90.461998,135L78.967003,135L78.967003,130L67.671997,130L67.671997,135L56.176998,135L56.176998,130L44.882,130L44.882,135L33.387001,135L33.387001,130L22.091999,130L22.091999,135L10.597,135L10.597,130L5,130L5,124.524002L5,118.988998z"
     id="path974" />
  <path
     transform="matrix(1,0,0,-1,-994.172485,383)"
     style="stroke:#000000;stroke-width:0.05mm;fill:none"
     d="M145,135L145,117.25"
     id="path976" />
  <path
     transform="matrix(1,0,0,-1,-994.172485,383)"
     style="stroke:#000000;stroke-width:0.05mm;fill:none"
     d="M145,115.25L145,79.75"
     id="path978" />
  <path
     transform="matrix(1,0,0,-1,-994.172485,383)"
     style="stroke:#000000;stroke-width:0.05mm;fill:none"
     d="M145,77.75L145,60"
     id="path980" />
  <path
     transform="matrix(1,0,0,-1,-994.172485,383)"
     style="stroke:#000000;stroke-width:0.05mm;fill:none"
     d="M146.121994,62L146.121994,96.5"
     id="path982" />
  <path
     transform="matrix(1,0,0,-1,-994.172485,383)"
     style="stroke:#000000;stroke-width:0.05mm;fill:none"
     d="M146.121994,98.5L146.121994,133"
     id="path984" />
  <path
     transform="matrix(1,0,0,-1,-994.172485,383)"
     style="stroke:#000000;stroke-width:0.05mm;fill:none"
     d="M147.244003,135L147.244003,117.25"
     id="path986" />
  <path
     transform="matrix(1,0,0,-1,-994.172485,383)"
     style="stroke:#000000;stroke-width:0.05mm;fill:none"
     d="M147.244003,115.25L147.244003,79.75"
     id="path988" />
  <path
     transform="matrix(1,0,0,-1,-994.172485,383)"
     style="stroke:#000000;stroke-width:0.05mm;fill:none"
     d="M147.244003,77.75L147.244003,60"
     id="path990" />
  <path
     transform="matrix(1,0,0,-1,-994.172485,383)"
     style="stroke:#000000;stroke-width:0.05mm;fill:none"
     d="M148.365997,62L148.365997,96.5"
     id="path992" />
  <path
     transform="matrix(1,0,0,-1,-994.172485,383)"
     style="stroke:#000000;stroke-width:0.05mm;fill:none"
     d="M148.365997,98.5L148.365997,133"
     id="path994" />
  <path
     transform="matrix(1,0,0,-1,-994.172485,383)"
     style="stroke:#000000;stroke-width:0.05mm;fill:none"
     d="M149.488007,135L149.488007,117.25"
     id="path996" />
  <path
     transform="matrix(1,0,0,-1,-994.172485,383)"
     style="stroke:#000000;stroke-width:0.05mm;fill:none"
     d="M149.488007,115.25L149.488007,79.75"
     id="path998" />
  <path
     transform="matrix(1,0,0,-1,-994.172485,383)"
     style="stroke:#000000;stroke-width:0.05mm;fill:none"
     d="M149.488007,77.75L149.488007,60"
     id="path1000" />
  <path
     transform="matrix(1,0,0,-1,-994.172485,383)"
     style="stroke:#000000;stroke-width:0.05mm;fill:none"
     d="M150.610001,62L150.610001,96.5"
     id="path1002" />
  <path
     transform="matrix(1,0,0,-1,-994.172485,383)"
     style="stroke:#000000;stroke-width:0.05mm;fill:none"
     d="M150.610001,98.5L150.610001,133"
     id="path1004" />
  <path
     transform="matrix(1,0,0,-1,-994.172485,383)"
     style="stroke:#000000;stroke-width:0.05mm;fill:none"
     d="M151.731995,135L151.731995,117.25"
     id="path1006" />
  <path
     transform="matrix(1,0,0,-1,-994.172485,383)"
     style="stroke:#000000;stroke-width:0.05mm;fill:none"
     d="M151.731995,115.25L151.731995,79.75"
     id="path1008" />
  <path
     transform="matrix(1,0,0,-1,-994.172485,383)"
     style="stroke:#000000;stroke-width:0.05mm;fill:none"
     d="M151.731995,77.75L151.731995,60"
     id="path1010" />
  <path
     transform="matrix(1,0,0,-1,-994.172485,383)"
     style="stroke:#000000;stroke-width:0.05mm;fill:none"
     d="M152.854004,62L152.854004,96.5"
     id="path1012" />
  <path
     transform="matrix(1,0,0,-1,-994.172485,383)"
     style="stroke:#000000;stroke-width:0.05mm;fill:none"
     d="M152.854004,98.5L152.854004,133"
     id="path1014" />
  <path
     transform="matrix(1,0,0,-1,-994.172485,383)"
     style="stroke:#000000;stroke-width:0.05mm;fill:none"
     d="M153.975998,135L153.975998,117.25"
     id="path1016" />
  <path
     transform="matrix(1,0,0,-1,-994.172485,383)"
     style="stroke:#000000;stroke-width:0.05mm;fill:none"
     d="M153.975998,115.25L153.975998,79.75"
     id="path1018" />
  <path
     transform="matrix(1,0,0,-1,-994.172485,383)"
     style="stroke:#000000;stroke-width:0.05mm;fill:none"
     d="M153.975998,77.75L153.975998,60"
     id="path1020" />
  <path
     transform="matrix(1,0,0,-1,-994.172485,383)"
     style="stroke:#000000;stroke-width:0.05mm;fill:none"
     d="M155.098007,62L155.098007,96.5"
     id="path1022" />
  <path
     transform="matrix(1,0,0,-1,-994.172485,383)"
     style="stroke:#000000;stroke-width:0.05mm;fill:none"
     d="M155.098007,98.5L155.098007,133"
     id="path1024" />
  <path
     transform="matrix(1,0,0,-1,-994.172485,383)"
     style="stroke:#000000;stroke-width:0.05mm;fill:none"
     d="M156.220001,135L156.220001,117.25"
     id="path1026" />
  <path
     transform="matrix(1,0,0,-1,-994.172485,383)"
     style="stroke:#000000;stroke-width:0.05mm;fill:none"
     d="M156.220001,115.25L156.220001,79.75"
     id="path1028" />
  <path
     transform="matrix(1,0,0,-1,-994.172485,383)"
     style="stroke:#000000;stroke-width:0.05mm;fill:none"
     d="M156.220001,77.75L156.220001,60"
     id="path1030" />
  <path
     transform="matrix(1,0,0,-1,-994.172485,383)"
     style="stroke:#000000;stroke-width:0.05mm;fill:none"
     d="M157.341995,62L157.341995,96.5"
     id="path1032" />
  <path
     transform="matrix(1,0,0,-1,-994.172485,383)"
     style="stroke:#000000;stroke-width:0.05mm;fill:none"
     d="M157.341995,98.5L157.341995,133"
     id="path1034" />
  <path
     transform="matrix(1,0,0,-1,-994.172485,383)"
     style="stroke:#000000;stroke-width:0.05mm;fill:none"
     d="M158.464005,135L158.464005,117.25"
     id="path1036" />
  <path
     transform="matrix(1,0,0,-1,-994.172485,383)"
     style="stroke:#000000;stroke-width:0.05mm;fill:none"
     d="M158.464005,115.25L158.464005,79.75"
     id="path1038" />
  <path
     transform="matrix(1,0,0,-1,-994.172485,383)"
     style="stroke:#000000;stroke-width:0.05mm;fill:none"
     d="M158.464005,77.75L158.464005,60"
     id="path1040" />
  <path
     transform="matrix(1,0,0,-1,-994.172485,383)"
     style="stroke:#000000;stroke-width:0.05mm;fill:none"
     d="M159.585999,62L159.585999,96.5"
     id="path1042" />
  <path
     transform="matrix(1,0,0,-1,-994.172485,383)"
     style="stroke:#000000;stroke-width:0.05mm;fill:none"
     d="M159.585999,98.5L159.585999,133"
     id="path1044" />
  <path
     transform="matrix(1,0,0,-1,-994.172485,383)"
     style="stroke:#000000;stroke-width:0.05mm;fill:none"
     d="M160.707993,135L160.707993,117.25"
     id="path1046" />
  <path
     transform="matrix(1,0,0,-1,-994.172485,383)"
     style="stroke:#000000;stroke-width:0.05mm;fill:none"
     d="M160.707993,115.25L160.707993,79.75"
     id="path1048" />
  <path
     transform="matrix(1,0,0,-1,-994.172485,383)"
     style="stroke:#000000;stroke-width:0.05mm;fill:none"
     d="M160.707993,77.75L160.707993,60"
     id="path1050" />
  <path
     transform="matrix(1,0,0,-1,-994.172485,383)"
     style="stroke:#000000;stroke-width:0.05mm;fill:none"
     d="M290.708008,135L290.708008,117.25"
     id="path1052" />
  <path
     transform="matrix(1,0,0,-1,-994.172485,383)"
     style="stroke:#000000;stroke-width:0.05mm;fill:none"
     d="M290.708008,115.25L290.708008,79.75"
     id="path1054" />
  <path
     transform="matrix(1,0,0,-1,-994.172485,383)"
     style="stroke:#000000;stroke-width:0.05mm;fill:none"
     d="M290.708008,77.75L290.708008,60"
     id="path1056" />
  <path
     transform="matrix(1,0,0,-1,-994.172485,383)"
     style="stroke:#000000;stroke-width:0.05mm;fill:none"
     d="M291.829987,62L291.829987,96.5"
     id="path1058" />
  <path
     transform="matrix(1,0,0,-1,-994.172485,383)"
     style="stroke:#000000;stroke-width:0.05mm;fill:none"
     d="M291.829987,98.5L291.829987,133"
     id="path1060" />
  <path
     transform="matrix(1,0,0,-1,-994.172485,383)"
     style="stroke:#000000;stroke-width:0.05mm;fill:none"
     d="M292.951996,135L292.951996,117.25"
     id="path1062" />
  <path
     transform="matrix(1,0,0,-1,-994.172485,383)"
     style="stroke:#000000;stroke-width:0.05mm;fill:none"
     d="M292.951996,115.25L292.951996,79.75"
     id="path1064" />
  <path
     transform="matrix(1,0,0,-1,-994.172485,383)"
     style="stroke:#000000;stroke-width:0.05mm;fill:none"
     d="M292.951996,77.75L292.951996,60"
     id="path1066" />
  <path
     transform="matrix(1,0,0,-1,-994.172485,383)"
     style="stroke:#000000;stroke-width:0.05mm;fill:none"
     d="M294.074005,62L294.074005,96.5"
     id="path1068" />
  <path
     transform="matrix(1,0,0,-1,-994.172485,383)"
     style="stroke:#000000;stroke-width:0.05mm;fill:none"
     d="M294.074005,98.5L294.074005,133"
     id="path1070" />
  <path
     transform="matrix(1,0,0,-1,-994.172485,383)"
     style="stroke:#000000;stroke-width:0.05mm;fill:none"
     d="M295.196014,135L295.196014,117.25"
     id="path1072" />
  <path
     transform="matrix(1,0,0,-1,-994.172485,383)"
     style="stroke:#000000;stroke-width:0.05mm;fill:none"
     d="M295.196014,115.25L295.196014,79.75"
     id="path1074" />
  <path
     transform="matrix(1,0,0,-1,-994.172485,383)"
     style="stroke:#000000;stroke-width:0.05mm;fill:none"
     d="M295.196014,77.75L295.196014,60"
     id="path1076" />
  <path
     transform="matrix(1,0,0,-1,-994.172485,383)"
     style="stroke:#000000;stroke-width:0.05mm;fill:none"
     d="M296.317993,62L296.317993,96.5"
     id="path1078" />
  <path
     transform="matrix(1,0,0,-1,-994.172485,383)"
     style="stroke:#000000;stroke-width:0.05mm;fill:none"
     d="M296.317993,98.5L296.317993,133"
     id="path1080" />
  <path
     transform="matrix(1,0,0,-1,-994.172485,383)"
     style="stroke:#000000;stroke-width:0.05mm;fill:none"
     d="M297.440002,135L297.440002,117.25"
     id="path1082" />
  <path
     transform="matrix(1,0,0,-1,-994.172485,383)"
     style="stroke:#000000;stroke-width:0.05mm;fill:none"
     d="M297.440002,115.25L297.440002,79.75"
     id="path1084" />
  <path
     transform="matrix(1,0,0,-1,-994.172485,383)"
     style="stroke:#000000;stroke-width:0.05mm;fill:none"
     d="M297.440002,77.75L297.440002,60"
     id="path1086" />
  <path
     transform="matrix(1,0,0,-1,-994.172485,383)"
     style="stroke:#000000;stroke-width:0.05mm;fill:none"
     d="M298.562012,62L298.562012,96.5"
     id="path1088" />
  <path
     transform="matrix(1,0,0,-1,-994.172485,383)"
     style="stroke:#000000;stroke-width:0.05mm;fill:none"
     d="M298.562012,98.5L298.562012,133"
     id="path1090" />
  <path
     transform="matrix(1,0,0,-1,-994.172485,383)"
     style="stroke:#000000;stroke-width:0.05mm;fill:none"
     d="M299.68399,135L299.68399,117.25"
     id="path1092" />
  <path
     transform="matrix(1,0,0,-1,-994.172485,383)"
     style="stroke:#000000;stroke-width:0.05mm;fill:none"
     d="M299.68399,115.25L299.68399,79.75"
     id="path1094" />
  <path
     transform="matrix(1,0,0,-1,-994.172485,383)"
     style="stroke:#000000;stroke-width:0.05mm;fill:none"
     d="M299.68399,77.75L299.68399,60"
     id="path1096" />
  <path
     transform="matrix(1,0,0,-1,-994.172485,383)"
     style="stroke:#000000;stroke-width:0.05mm;fill:none"
     d="M300.806,62L300.806,96.5"
     id="path1098" />
  <path
     transform="matrix(1,0,0,-1,-994.172485,383)"
     style="stroke:#000000;stroke-width:0.05mm;fill:none"
     d="M300.806,98.5L300.806,133"
     id="path1100" />
  <path
     transform="matrix(1,0,0,-1,-994.172485,383)"
     style="stroke:#000000;stroke-width:0.05mm;fill:none"
     d="M301.928009,135L301.928009,117.25"
     id="path1102" />
  <path
     transform="matrix(1,0,0,-1,-994.172485,383)"
     style="stroke:#000000;stroke-width:0.05mm;fill:none"
     d="M301.928009,115.25L301.928009,79.75"
     id="path1104" />
  <path
     transform="matrix(1,0,0,-1,-994.172485,383)"
     style="stroke:#000000;stroke-width:0.05mm;fill:none"
     d="M301.928009,77.75L301.928009,60"
     id="path1106" />
  <path
     transform="matrix(1,0,0,-1,-994.172485,383)"
     style="stroke:#000000;stroke-width:0.05mm;fill:none"
     d="M303.049988,62L303.049988,96.5"
     id="path1108" />
  <path
     transform="matrix(1,0,0,-1,-994.172485,383)"
     style="stroke:#000000;stroke-width:0.05mm;fill:none"
     d="M303.049988,98.5L303.049988,133"
     id="path1110" />
  <path
     transform="matrix(1,0,0,-1,-994.172485,383)"
     style="stroke:#000000;stroke-width:0.05mm;fill:none"
     d="M304.171997,135L304.171997,117.25"
     id="path1112" />
  <path
     transform="matrix(1,0,0,-1,-994.172485,383)"
     style="stroke:#000000;stroke-width:0.05mm;fill:none"
     d="M304.171997,115.25L304.171997,79.75"
     id="path1114" />
  <path
     transform="matrix(1,0,0,-1,-994.172485,383)"
     style="stroke:#000000;stroke-width:0.05mm;fill:none"
     d="M304.171997,77.75L304.171997,60"
     id="path1116" />
  <path
     transform="matrix(1,0,0,-1,-994.172485,383)"
     style="stroke:#000000;stroke-width:0.05mm;fill:none"
     d="M305.294006,62L305.294006,96.5"
     id="path1118" />
  <path
     transform="matrix(1,0,0,-1,-994.172485,383)"
     style="stroke:#000000;stroke-width:0.05mm;fill:none"
     d="M305.294006,98.5L305.294006,133"
     id="path1120" />
  <path
     transform="matrix(1,0,0,-1,-994.172485,383)"
     style="stroke:#000000;stroke-width:0.05mm;fill:none"
     d="M306.415985,135L306.415985,117.25"
     id="path1122" />
  <path
     transform="matrix(1,0,0,-1,-994.172485,383)"
     style="stroke:#000000;stroke-width:0.05mm;fill:none"
     d="M306.415985,115.25L306.415985,79.75"
     id="path1124" />
  <path
     transform="matrix(1,0,0,-1,-994.172485,383)"
     style="stroke:#000000;stroke-width:0.05mm;fill:none"
     d="M306.415985,77.75L306.415985,60"
     id="path1126" />
  <path
     transform="matrix(1,0,0,-1,-994.172485,383)"
     style="stroke:#000000;stroke-width:0.05mm;fill:none"
     d="M586.416016,135L586.416016,117.25"
     id="path1128" />
  <path
     transform="matrix(1,0,0,-1,-994.172485,383)"
     style="stroke:#000000;stroke-width:0.05mm;fill:none"
     d="M586.416016,115.25L586.416016,79.75"
     id="path1130" />
  <path
     transform="matrix(1,0,0,-1,-994.172485,383)"
     style="stroke:#000000;stroke-width:0.05mm;fill:none"
     d="M586.416016,77.75L586.416016,60"
     id="path1132" />
  <path
     transform="matrix(1,0,0,-1,-994.172485,383)"
     style="stroke:#000000;stroke-width:0.05mm;fill:none"
     d="M587.538025,62L587.538025,96.5"
     id="path1134" />
  <path
     transform="matrix(1,0,0,-1,-994.172485,383)"
     style="stroke:#000000;stroke-width:0.05mm;fill:none"
     d="M587.538025,98.5L587.538025,133"
     id="path1136" />
  <path
     transform="matrix(1,0,0,-1,-994.172485,383)"
     style="stroke:#000000;stroke-width:0.05mm;fill:none"
     d="M588.659973,135L588.659973,117.25"
     id="path1138" />
  <path
     transform="matrix(1,0,0,-1,-994.172485,383)"
     style="stroke:#000000;stroke-width:0.05mm;fill:none"
     d="M588.659973,115.25L588.659973,79.75"
     id="path1140" />
  <path
     transform="matrix(1,0,0,-1,-994.172485,383)"
     style="stroke:#000000;stroke-width:0.05mm;fill:none"
     d="M588.659973,77.75L588.659973,60"
     id="path1142" />
  <path
     transform="matrix(1,0,0,-1,-994.172485,383)"
     style="stroke:#000000;stroke-width:0.05mm;fill:none"
     d="M589.781982,62L589.781982,96.5"
     id="path1144" />
  <path
     transform="matrix(1,0,0,-1,-994.172485,383)"
     style="stroke:#000000;stroke-width:0.05mm;fill:none"
     d="M589.781982,98.5L589.781982,133"
     id="path1146" />
  <path
     transform="matrix(1,0,0,-1,-994.172485,383)"
     style="stroke:#000000;stroke-width:0.05mm;fill:none"
     d="M590.903992,135L590.903992,117.25"
     id="path1148" />
  <path
     transform="matrix(1,0,0,-1,-994.172485,383)"
     style="stroke:#000000;stroke-width:0.05mm;fill:none"
     d="M590.903992,115.25L590.903992,79.75"
     id="path1150" />
  <path
     transform="matrix(1,0,0,-1,-994.172485,383)"
     style="stroke:#000000;stroke-width:0.05mm;fill:none"
     d="M590.903992,77.75L590.903992,60"
     id="path1152" />
  <path
     transform="matrix(1,0,0,-1,-994.172485,383)"
     style="stroke:#000000;stroke-width:0.05mm;fill:none"
     d="M592.026001,62L592.026001,96.5"
     id="path1154" />
  <path
     transform="matrix(1,0,0,-1,-994.172485,383)"
     style="stroke:#000000;stroke-width:0.05mm;fill:none"
     d="M592.026001,98.5L592.026001,133"
     id="path1156" />
  <path
     transform="matrix(1,0,0,-1,-994.172485,383)"
     style="stroke:#000000;stroke-width:0.05mm;fill:none"
     d="M593.14801,135L593.14801,117.25"
     id="path1158" />
  <path
     transform="matrix(1,0,0,-1,-994.172485,383)"
     style="stroke:#000000;stroke-width:0.05mm;fill:none"
     d="M593.14801,115.25L593.14801,79.75"
     id="path1160" />
  <path
     transform="matrix(1,0,0,-1,-994.172485,383)"
     style="stroke:#000000;stroke-width:0.05mm;fill:none"
     d="M593.14801,77.75L593.14801,60"
     id="path1162" />
  <path
     transform="matrix(1,0,0,-1,-994.172485,383)"
     style="stroke:#000000;stroke-width:0.05mm;fill:none"
     d="M594.27002,62L594.27002,96.5"
     id="path1164" />
  <path
     transform="matrix(1,0,0,-1,-994.172485,383)"
     style="stroke:#000000;stroke-width:0.05mm;fill:none"
     d="M594.27002,98.5L594.27002,133"
     id="path1166" />
  <path
     transform="matrix(1,0,0,-1,-994.172485,383)"
     style="stroke:#000000;stroke-width:0.05mm;fill:none"
     d="M595.392029,135L595.392029,117.25"
     id="path1168" />
  <path
     transform="matrix(1,0,0,-1,-994.172485,383)"
     style="stroke:#000000;stroke-width:0.05mm;fill:none"
     d="M595.392029,115.25L595.392029,79.75"
     id="path1170" />
  <path
     transform="matrix(1,0,0,-1,-994.172485,383)"
     style="stroke:#000000;stroke-width:0.05mm;fill:none"
     d="M595.392029,77.75L595.392029,60"
     id="path1172" />
  <path
     transform="matrix(1,0,0,-1,-994.172485,383)"
     style="stroke:#000000;stroke-width:0.05mm;fill:none"
     d="M596.513977,62L596.513977,96.5"
     id="path1174" />
  <path
     transform="matrix(1,0,0,-1,-994.172485,383)"
     style="stroke:#000000;stroke-width:0.05mm;fill:none"
     d="M596.513977,98.5L596.513977,133"
     id="path1176" />
  <path
     transform="matrix(1,0,0,-1,-994.172485,383)"
     style="stroke:#000000;stroke-width:0.05mm;fill:none"
     d="M597.635986,135L597.635986,117.25"
     id="path1178" />
  <path
     transform="matrix(1,0,0,-1,-994.172485,383)"
     style="stroke:#000000;stroke-width:0.05mm;fill:none"
     d="M597.635986,115.25L597.635986,79.75"
     id="path1180" />
  <path
     transform="matrix(1,0,0,-1,-994.172485,383)"
     style="stroke:#000000;stroke-width:0.05mm;fill:none"
     d="M597.635986,77.75L597.635986,60"
     id="path1182" />
  <path
     transform="matrix(1,0,0,-1,-994.172485,383)"
     style="stroke:#000000;stroke-width:0.05mm;fill:none"
     d="M598.757996,62L598.757996,96.5"
     id="path1184" />
  <path
     transform="matrix(1,0,0,-1,-994.172485,383)"
     style="stroke:#000000;stroke-width:0.05mm;fill:none"
     d="M598.757996,98.5L598.757996,133"
     id="path1186" />
  <path
     transform="matrix(1,0,0,-1,-994.172485,383)"
     style="stroke:#000000;stroke-width:0.05mm;fill:none"
     d="M599.880005,135L599.880005,117.25"
     id="path1188" />
  <path
     transform="matrix(1,0,0,-1,-994.172485,383)"
     style="stroke:#000000;stroke-width:0.05mm;fill:none"
     d="M599.880005,115.25L599.880005,79.75"
     id="path1190" />
  <path
     transform="matrix(1,0,0,-1,-994.172485,383)"
     style="stroke:#000000;stroke-width:0.05mm;fill:none"
     d="M599.880005,77.75L599.880005,60"
     id="path1192" />
  <path
     transform="matrix(1,0,0,-1,-994.172485,383)"
     style="stroke:#000000;stroke-width:0.05mm;fill:none"
     d="M601.002014,62L601.002014,96.5"
     id="path1194" />
  <path
     transform="matrix(1,0,0,-1,-994.172485,383)"
     style="stroke:#000000;stroke-width:0.05mm;fill:none"
     d="M601.002014,98.5L601.002014,133"
     id="path1196" />
  <path
     transform="matrix(1,0,0,-1,-994.172485,383)"
     style="stroke:#000000;stroke-width:0.05mm;fill:none"
     d="M602.124023,135L602.124023,117.25"
     id="path1198" />
  <path
     transform="matrix(1,0,0,-1,-994.172485,383)"
     style="stroke:#000000;stroke-width:0.05mm;fill:none"
     d="M602.124023,115.25L602.124023,79.75"
     id="path1200" />
  <path
     transform="matrix(1,0,0,-1,-994.172485,383)"
     style="stroke:#000000;stroke-width:0.05mm;fill:none"
     d="M602.124023,77.75L602.124023,60"
     id="path1202" />
  <path
     transform="matrix(1,0,0,-1,-994.172485,383)"
     style="stroke:#000000;stroke-width:0.05mm;fill:none"
     d="M732.124023,135L732.124023,117.25"
     id="path1204" />
  <path
     transform="matrix(1,0,0,-1,-994.172485,383)"
     style="stroke:#000000;stroke-width:0.05mm;fill:none"
     d="M732.124023,115.25L732.124023,79.75"
     id="path1206" />
  <path
     transform="matrix(1,0,0,-1,-994.172485,383)"
     style="stroke:#000000;stroke-width:0.05mm;fill:none"
     d="M732.124023,77.75L732.124023,60"
     id="path1208" />
  <path
     transform="matrix(1,0,0,-1,-994.172485,383)"
     style="stroke:#000000;stroke-width:0.05mm;fill:none"
     d="M733.245972,62L733.245972,96.5"
     id="path1210" />
  <path
     transform="matrix(1,0,0,-1,-994.172485,383)"
     style="stroke:#000000;stroke-width:0.05mm;fill:none"
     d="M733.245972,98.5L733.245972,133"
     id="path1212" />
  <path
     transform="matrix(1,0,0,-1,-994.172485,383)"
     style="stroke:#000000;stroke-width:0.05mm;fill:none"
     d="M734.367981,135L734.367981,117.25"
     id="path1214" />
  <path
     transform="matrix(1,0,0,-1,-994.172485,383)"
     style="stroke:#000000;stroke-width:0.05mm;fill:none"
     d="M734.367981,115.25L734.367981,79.75"
     id="path1216" />
  <path
     transform="matrix(1,0,0,-1,-994.172485,383)"
     style="stroke:#000000;stroke-width:0.05mm;fill:none"
     d="M734.367981,77.75L734.367981,60"
     id="path1218" />
  <path
     transform="matrix(1,0,0,-1,-994.172485,383)"
     style="stroke:#000000;stroke-width:0.05mm;fill:none"
     d="M735.48999,62L735.48999,96.5"
     id="path1220" />
  <path
     transform="matrix(1,0,0,-1,-994.172485,383)"
     style="stroke:#000000;stroke-width:0.05mm;fill:none"
     d="M735.48999,98.5L735.48999,133"
     id="path1222" />
  <path
     transform="matrix(1,0,0,-1,-994.172485,383)"
     style="stroke:#000000;stroke-width:0.05mm;fill:none"
     d="M736.612,135L736.612,117.25"
     id="path1224" />
  <path
     transform="matrix(1,0,0,-1,-994.172485,383)"
     style="stroke:#000000;stroke-width:0.05mm;fill:none"
     d="M736.612,115.25L736.612,79.75"
     id="path1226" />
  <path
     transform="matrix(1,0,0,-1,-994.172485,383)"
     style="stroke:#000000;stroke-width:0.05mm;fill:none"
     d="M736.612,77.75L736.612,60"
     id="path1228" />
  <path
     transform="matrix(1,0,0,-1,-994.172485,383)"
     style="stroke:#000000;stroke-width:0.05mm;fill:none"
     d="M737.734009,62L737.734009,96.5"
     id="path1230" />
  <path
     transform="matrix(1,0,0,-1,-994.172485,383)"
     style="stroke:#000000;stroke-width:0.05mm;fill:none"
     d="M737.734009,98.5L737.734009,133"
     id="path1232" />
  <path
     transform="matrix(1,0,0,-1,-994.172485,383)"
     style="stroke:#000000;stroke-width:0.05mm;fill:none"
     d="M738.856018,135L738.856018,117.25"
     id="path1234" />
  <path
     transform="matrix(1,0,0,-1,-994.172485,383)"
     style="stroke:#000000;stroke-width:0.05mm;fill:none"
     d="M738.856018,115.25L738.856018,79.75"
     id="path1236" />
  <path
     transform="matrix(1,0,0,-1,-994.172485,383)"
     style="stroke:#000000;stroke-width:0.05mm;fill:none"
     d="M738.856018,77.75L738.856018,60"
     id="path1238" />
  <path
     transform="matrix(1,0,0,-1,-994.172485,383)"
     style="stroke:#000000;stroke-width:0.05mm;fill:none"
     d="M739.978027,62L739.978027,96.5"
     id="path1240" />
  <path
     transform="matrix(1,0,0,-1,-994.172485,383)"
     style="stroke:#000000;stroke-width:0.05mm;fill:none"
     d="M739.978027,98.5L739.978027,133"
     id="path1242" />
  <path
     transform="matrix(1,0,0,-1,-994.172485,383)"
     style="stroke:#000000;stroke-width:0.05mm;fill:none"
     d="M741.099976,135L741.099976,117.25"
     id="path1244" />
  <path
     transform="matrix(1,0,0,-1,-994.172485,383)"
     style="stroke:#000000;stroke-width:0.05mm;fill:none"
     d="M741.099976,115.25L741.099976,79.75"
     id="path1246" />
  <path
     transform="matrix(1,0,0,-1,-994.172485,383)"
     style="stroke:#000000;stroke-width:0.05mm;fill:none"
     d="M741.099976,77.75L741.099976,60"
     id="path1248" />
  <path
     transform="matrix(1,0,0,-1,-994.172485,383)"
     style="stroke:#000000;stroke-width:0.05mm;fill:none"
     d="M742.221985,62L742.221985,96.5"
     id="path1250" />
  <path
     transform="matrix(1,0,0,-1,-994.172485,383)"
     style="stroke:#000000;stroke-width:0.05mm;fill:none"
     d="M742.221985,98.5L742.221985,133"
     id="path1252" />
  <path
     transform="matrix(1,0,0,-1,-994.172485,383)"
     style="stroke:#000000;stroke-width:0.05mm;fill:none"
     d="M743.343994,135L743.343994,117.25"
     id="path1254" />
  <path
     transform="matrix(1,0,0,-1,-994.172485,383)"
     style="stroke:#000000;stroke-width:0.05mm;fill:none"
     d="M743.343994,115.25L743.343994,79.75"
     id="path1256" />
  <path
     transform="matrix(1,0,0,-1,-994.172485,383)"
     style="stroke:#000000;stroke-width:0.05mm;fill:none"
     d="M743.343994,77.75L743.343994,60"
     id="path1258" />
  <path
     transform="matrix(1,0,0,-1,-994.172485,383)"
     style="stroke:#000000;stroke-width:0.05mm;fill:none"
     d="M744.466003,62L744.466003,96.5"
     id="path1260" />
  <path
     transform="matrix(1,0,0,-1,-994.172485,383)"
     style="stroke:#000000;stroke-width:0.05mm;fill:none"
     d="M744.466003,98.5L744.466003,133"
     id="path1262" />
  <path
     transform="matrix(1,0,0,-1,-994.172485,383)"
     style="stroke:#000000;stroke-width:0.05mm;fill:none"
     d="M745.588013,135L745.588013,117.25"
     id="path1264" />
  <path
     transform="matrix(1,0,0,-1,-994.172485,383)"
     style="stroke:#000000;stroke-width:0.05mm;fill:none"
     d="M745.588013,115.25L745.588013,79.75"
     id="path1266" />
  <path
     transform="matrix(1,0,0,-1,-994.172485,383)"
     style="stroke:#000000;stroke-width:0.05mm;fill:none"
     d="M745.588013,77.75L745.588013,60"
     id="path1268" />
  <path
     transform="matrix(1,0,0,-1,-994.172485,383)"
     style="stroke:#000000;stroke-width:0.05mm;fill:none"
     d="M746.710022,62L746.710022,96.5"
     id="path1270" />
  <path
     transform="matrix(1,0,0,-1,-994.172485,383)"
     style="stroke:#000000;stroke-width:0.05mm;fill:none"
     d="M746.710022,98.5L746.710022,133"
     id="path1272" />
  <path
     transform="matrix(1,0,0,-1,-994.172485,383)"
     style="stroke:#000000;stroke-width:0.05mm;fill:none"
     d="M747.83197,135L747.83197,117.25"
     id="path1274" />
  <path
     transform="matrix(1,0,0,-1,-994.172485,383)"
     style="stroke:#000000;stroke-width:0.05mm;fill:none"
     d="M747.83197,115.25L747.83197,79.75"
     id="path1276" />
  <path
     transform="matrix(1,0,0,-1,-994.172485,383)"
     style="stroke:#000000;stroke-width:0.05mm;fill:none"
     d="M747.83197,77.75L747.83197,60L747.83197,77.75z"
     id="path1278" />
  <path
     transform="matrix(1,0,0,-1,-994.172485,388)"
     style="stroke:#000000;stroke-width:0.05mm;fill:none"
     d="M5,-9L145,-9L145,-14L145,-24.308001L150,-24.308001L150,-35.803001L145,-35.803001L145,-47.098L150,-47.098L150,-58.592999L145,-58.592999L145,-74L145,-74L117,-74L117,-79L89,-79L89,-74L61,-74L61,-79L33,-79L33,-74L5,-74L5,-69L5,-58.692001L0,-58.692001L0,-47.196999L5,-47.196999L5,-35.902L0,-35.902L0,-24.407L5,-24.407L5,-9z"
     id="path1280" />
  <path
     transform="matrix(1,0,0,-1,-994.172485,388)"
     style="stroke:#000000;stroke-width:0.05mm;fill:none"
     d="M157,-9L297,-9L297,-14L297,-24.308001L302,-24.308001L302,-35.803001L297,-35.803001L297,-47.098L302,-47.098L302,-58.592999L297,-58.592999L297,-74L297,-74L269,-74L269,-79L241,-79L241,-74L213,-74L213,-79L185,-79L185,-74L157,-74L157,-69L157,-58.692001L152,-58.692001L152,-47.196999L157,-47.196999L157,-35.902L152,-35.902L152,-24.407L157,-24.407L157,-9z"
     id="path1282" />
  <path
     transform="matrix(1,0,0,-1,-994.172485,383)"
     style="stroke:#00e000;stroke-width:0.05mm;fill:none"
     d="M80.279373,179.712875L41.87336,179.712875L41.87336,254.841019L80.279373,254.841019L80.279373,179.712875z"
     id="path1292" />
  <rect
     transform="matrix(-1,0,0,1,-653.093262,390.5)"
     style="stroke:#000000;stroke-width:0.05mm;fill:none"
     x="-1.093231"
     y="-1.5"
     width="2.186462"
     height="3"
     id="rect1294" />
  <rect
     transform="matrix(-1,0,0,1,-719,326.5)"
     style="stroke:#000000;stroke-width:0.05mm;fill:none"
     x="0"
     y="0"
     width="0"
     height="0"
     id="rect1296" />
  <path
     transform="matrix(-1,0,0,1,-16.827515,-153.5)"
     style="stroke:#000000;stroke-width:0.05mm;fill:none"
     d="M692.172485,480L692.172485,545"
     id="path1298" />
  <path
     transform="matrix(-1,0,0,1,-16.827515,-153.5)"
     style="stroke:#000000;stroke-width:0.05mm;fill:none"
     d="M422.172485,480L422.172485,545"
     id="path1300" />
  <path
     transform="matrix(1,0,0,-1,-1011,384.5)"
     style="stroke:#000000;stroke-width:0.05mm;fill:none"
     d="M302,58L302,58L572,58L572,58L572,-7L572,-7L302,-7L302,-7L302,58z"
     id="path1302" />
  <path
     transform="matrix(1,0,0,-1,-1011,384.5)"
     style="stroke:#000000;stroke-width:0.05mm;fill:none"
     d="M360.799988,42.542L360.799988,31.247L365.700012,31.247L365.700012,42.542L360.799988,42.542z"
     id="path1304" />
  <path
     transform="matrix(1,0,0,-1,-1011,384.5)"
     style="stroke:#000000;stroke-width:0.05mm;fill:none"
     d="M360.799988,19.753L360.799988,8.458L365.700012,8.458L365.700012,19.753L360.799988,19.753z"
     id="path1306" />
  <path
     transform="matrix(1,0,0,-1,-1011,384.5)"
     style="stroke:#000000;stroke-width:0.05mm;fill:none"
     d="M434.549988,42.542L434.549988,31.247L439.450012,31.247L439.450012,42.542L434.549988,42.542z"
     id="path1308" />
  <path
     transform="matrix(1,0,0,-1,-1011,384.5)"
     style="stroke:#000000;stroke-width:0.05mm;fill:none"
     d="M434.549988,19.753L434.549988,8.458L439.450012,8.458L439.450012,19.753L434.549988,19.753z"
     id="path1310" />
  <path
     transform="matrix(1,0,0,-1,-1011,384.5)"
     style="stroke:#000000;stroke-width:0.05mm;fill:none"
     d="M508.299988,42.542L508.299988,31.247L513.200012,31.247L513.200012,42.542L508.299988,42.542z"
     id="path1312" />
  <path
     transform="matrix(1,0,0,-1,-1011,384.5)"
     style="stroke:#000000;stroke-width:0.05mm;fill:none"
     d="M508.299988,19.753L508.299988,8.458L513.200012,8.458L513.200012,19.753L508.299988,19.753z"
     id="path1314" />
  <rect
     transform="matrix(-1,0,0,1,-997,326.5)"
     style="stroke:#000000;stroke-width:0.05mm;fill:none"
     x="0"
     y="0"
     width="0"
     height="0"
     id="rect1316" />
  <path
     transform="matrix(-1,0,0,1,-294.827515,-153.5)"
     style="stroke:#000000;stroke-width:0.05mm;fill:none"
     d="M692.172485,480L692.172485,545"
     id="path1318" />
  <path
     transform="matrix(-1,0,0,1,-294.827515,-153.5)"
     style="stroke:#000000;stroke-width:0.05mm;fill:none"
     d="M422.172485,480L422.172485,545"
     id="path1320" />
  <path
     transform="matrix(1,0,0,-1,-1289,384.5)"
     style="stroke:#000000;stroke-width:0.05mm;fill:none"
     d="M302,58L302,58L572,58L572,58L572,-7L572,-7L302,-7L302,-7L302,58z"
     id="path1322" />
  <path
     transform="matrix(1,0,0,-1,-1289,384.5)"
     style="stroke:#000000;stroke-width:0.05mm;fill:none"
     d="M360.799988,42.542L360.799988,31.247L365.700012,31.247L365.700012,42.542L360.799988,42.542z"
     id="path1324" />
  <path
     transform="matrix(1,0,0,-1,-1289,384.5)"
     style="stroke:#000000;stroke-width:0.05mm;fill:none"
     d="M360.799988,19.753L360.799988,8.458L365.700012,8.458L365.700012,19.753L360.799988,19.753z"
     id="path1326" />
  <path
     transform="matrix(1,0,0,-1,-1289,384.5)"
     style="stroke:#000000;stroke-width:0.05mm;fill:none"
     d="M434.549988,42.542L434.549988,31.247L439.450012,31.247L439.450012,42.542L434.549988,42.542z"
     id="path1328" />
  <path
     transform="matrix(1,0,0,-1,-1289,384.5)"
     style="stroke:#000000;stroke-width:0.05mm;fill:none"
     d="M434.549988,19.753L434.549988,8.458L439.450012,8.458L439.450012,19.753L434.549988,19.753z"
     id="path1330" />
  <path
     transform="matrix(1,0,0,-1,-1289,384.5)"
     style="stroke:#000000;stroke-width:0.05mm;fill:none"
     d="M508.299988,42.542L508.299988,31.247L513.200012,31.247L513.200012,42.542L508.299988,42.542z"
     id="path1332" />
  <path
     transform="matrix(1,0,0,-1,-1289,384.5)"
     style="stroke:#000000;stroke-width:0.05mm;fill:none"
     d="M508.299988,19.753L508.299988,8.458L513.200012,8.458L513.200012,19.753L508.299988,19.753z"
     id="path1334" />
</svg>
