  0
SECTION
  2
HEADER
  9
$ACADVER
  1
AC1014
  9
$HANDSEED
  5
FFFF
  9
$MEASUREMENT
 70
     1
  0
ENDSEC
  0
SECTION
  2
TABLES
  0
TABLE
  2
VPORT
  5
8
330
0
100
AcDbSymbolTable
 70
     4
  0
VPORT
  5
2E
330
8
100
AcDbSymbolTableRecord
100
AcDbViewportTableRecord
  2
*ACTIVE
 70
     0
 10
0.0
 20
0.0
 11
1.0
 21
1.0
 12
210.0
 22
148.5
 13
0.0
 23
0.0
 14
10.0
 24
10.0
 15
10.0
 25
10.0
 16
0.0
 26
0.0
 36
1.0
 17
0.0
 27
0.0
 37
0.0
 40
341.0
 41
1.24
 42
50.0
 43
0.0
 44
0.0
 50
0.0
 51
0.0
 71
     0
 72
   100
 73
     1
 74
     3
 75
     0
 76
     0
 77
     0
 78
     0
  0
ENDTAB
  0
TABLE
  2
LTYPE
  5
5
330
0
100
AcDbSymbolTable
 70
     1
  0
LTYPE
  5
14
330
5
100
AcDbSymbolTableRecord
100
AcDbLinetypeTableRecord
  2
BYBLOCK
 70
     0
  3

 72
    65
 73
     0
 40
0.0
  0
LTYPE
  5
15
330
5
100
AcDbSymbolTableRecord
100
AcDbLinetypeTableRecord
  2
BYLAYER
 70
     0
  3

 72
    65
 73
     0
 40
0.0
  0
LTYPE
  5
16
330
5
100
AcDbSymbolTableRecord
100
AcDbLinetypeTableRecord
  2
CONTINUOUS
 70
     0
  3
Solid line
 72
    65
 73
     0
 40
0.0
  0
ENDTAB
  0
TABLE
  2
LAYER
  5
2
100
AcDbSymbolTable
 70
2
  0
LAYER
  5
50
100
AcDbSymbolTableRecord
100
AcDbLayerTableRecord
  2
0
 70
0
  6
CONTINUOUS
  0
LAYER
  5
51
100
AcDbSymbolTableRecord
100
AcDbLayerTableRecord
  2
Calque_1
 70
0
  6
CONTINUOUS
  0
ENDTAB
  0
TABLE
  2
STYLE
  5
3
330
0
100
AcDbSymbolTable
 70
     1
  0
STYLE
  5
11
330
3
100
AcDbSymbolTableRecord
100
AcDbTextStyleTableRecord
  2
STANDARD
 70
     0
 40
0.0
 41
1.0
 50
0.0
 71
     0
 42
2.5
  3
txt
  4

  0
ENDTAB
  0
TABLE
  2
VIEW
  5
6
330
0
100
AcDbSymbolTable
 70
     0
  0
ENDTAB
  0
TABLE
  2
UCS
  5
7
330
0
100
AcDbSymbolTable
 70
     0
  0
ENDTAB
  0
TABLE
  2
APPID
  5
9
330
0
100
AcDbSymbolTable
 70
     2
  0
APPID
  5
12
330
9
100
AcDbSymbolTableRecord
100
AcDbRegAppTableRecord
  2
ACAD
 70
     0
  0
ENDTAB
  0
TABLE
  2
DIMSTYLE
  5
A
330
0
100
AcDbSymbolTable
 70
     1
  0
DIMSTYLE
105
27
330
A
100
AcDbSymbolTableRecord
100
AcDbDimStyleTableRecord
  2
ISO-25
 70
     0
  3

  4

  5

  6

  7

 40
1.0
 41
2.5
 42
0.625
 43
3.75
 44
1.25
 45
0.0
 46
0.0
 47
0.0
 48
0.0
140
2.5
141
2.5
142
0.0
143
0.03937007874016
144
1.0
145
0.0
146
1.0
147
0.625
 71
     0
 72
     0
 73
     0
 74
     0
 75
     0
 76
     0
 77
     1
 78
     8
170
     0
171
     3
172
     1
173
     0
174
     0
175
     0
176
     0
177
     0
178
     0
270
     2
271
     2
272
     2
273
     2
274
     3
340
11
275
     0
280
     0
281
     0
282
     0
283
     0
284
     8
285
     0
286
     0
287
     3
288
     0
  0
ENDTAB
  0
TABLE
  2
BLOCK_RECORD
  5
1
330
0
100
AcDbSymbolTable
 70
     1
  0
BLOCK_RECORD
  5
1F
330
1
100
AcDbSymbolTableRecord
100
AcDbBlockTableRecord
  2
*MODEL_SPACE
  0
BLOCK_RECORD
  5
1B
330
1
100
AcDbSymbolTableRecord
100
AcDbBlockTableRecord
  2
*PAPER_SPACE
  0
ENDTAB
  0
ENDSEC
  0
SECTION
  2
BLOCKS
  0
BLOCK
  5
20
330
1F
100
AcDbEntity
  8
0
100
AcDbBlockBegin
  2
*MODEL_SPACE
 70
     0
 10
0.0
 20
0.0
 30
0.0
  3
*MODEL_SPACE
  1

  0
ENDBLK
  5
21
330
1F
100
AcDbEntity
  8
0
100
AcDbBlockEnd
  0
BLOCK
  5
1C
330
1B
100
AcDbEntity
 67
     1
  8
0
100
AcDbBlockBegin
  2
*PAPER_SPACE
  1

  0
ENDBLK
  5
1D
330
1B
100
AcDbEntity
 67
     1
  8
0
100
AcDbBlockEnd
  0
ENDSEC
  0
SECTION
  2
ENTITIES
  0
LINE
  5
100
100
AcDbEntity
  8
Calque_1
 62
1
100
AcDbLine
 10
632.159110
 20
653.440006
 30
0.0
 11
642.879123
 21
653.440006
 31
0.0
  0
LINE
  5
101
100
AcDbEntity
  8
Calque_1
 62
1
100
AcDbLine
 10
642.879123
 20
653.440006
 30
0.0
 11
642.879123
 21
650.240001
 31
0.0
  0
LINE
  5
102
100
AcDbEntity
  8
Calque_1
 62
1
100
AcDbLine
 10
642.879123
 20
650.240001
 30
0.0
 11
653.439117
 21
650.240001
 31
0.0
  0
LINE
  5
103
100
AcDbEntity
  8
Calque_1
 62
1
100
AcDbLine
 10
653.439117
 20
650.240001
 30
0.0
 11
653.439117
 21
653.440006
 31
0.0
  0
LINE
  5
104
100
AcDbEntity
  8
Calque_1
 62
1
100
AcDbLine
 10
653.439117
 20
653.440006
 30
0.0
 11
664.212442
 21
653.440006
 31
0.0
  0
LINE
  5
105
100
AcDbEntity
  8
Calque_1
 62
1
100
AcDbLine
 10
664.212442
 20
653.440006
 30
0.0
 11
664.212442
 21
650.240001
 31
0.0
  0
LINE
  5
106
100
AcDbEntity
  8
Calque_1
 62
1
100
AcDbLine
 10
664.212442
 20
650.240001
 30
0.0
 11
674.772435
 21
650.240001
 31
0.0
  0
LINE
  5
107
100
AcDbEntity
  8
Calque_1
 62
1
100
AcDbLine
 10
674.772435
 20
650.240001
 30
0.0
 11
674.772435
 21
653.440006
 31
0.0
  0
LINE
  5
108
100
AcDbEntity
  8
Calque_1
 62
1
100
AcDbLine
 10
674.772435
 20
653.440006
 30
0.0
 11
685.545760
 21
653.440006
 31
0.0
  0
LINE
  5
109
100
AcDbEntity
  8
Calque_1
 62
1
100
AcDbLine
 10
685.545760
 20
653.440006
 30
0.0
 11
685.545760
 21
650.240001
 31
0.0
  0
LINE
  5
10a
100
AcDbEntity
  8
Calque_1
 62
1
100
AcDbLine
 10
685.545760
 20
650.240001
 30
0.0
 11
696.105782
 21
650.240001
 31
0.0
  0
LINE
  5
10b
100
AcDbEntity
  8
Calque_1
 62
1
100
AcDbLine
 10
696.105782
 20
650.240001
 30
0.0
 11
696.105782
 21
653.440006
 31
0.0
  0
LINE
  5
10c
100
AcDbEntity
  8
Calque_1
 62
1
100
AcDbLine
 10
696.105782
 20
653.440006
 30
0.0
 11
706.879107
 21
653.440006
 31
0.0
  0
LINE
  5
10d
100
AcDbEntity
  8
Calque_1
 62
1
100
AcDbLine
 10
706.879107
 20
653.440006
 30
0.0
 11
706.879107
 21
650.240001
 31
0.0
  0
LINE
  5
10e
100
AcDbEntity
  8
Calque_1
 62
1
100
AcDbLine
 10
706.879107
 20
650.240001
 30
0.0
 11
717.439100
 21
650.240001
 31
0.0
  0
LINE
  5
10f
100
AcDbEntity
  8
Calque_1
 62
1
100
AcDbLine
 10
717.439100
 20
650.240001
 30
0.0
 11
717.439100
 21
653.440006
 31
0.0
  0
LINE
  5
110
100
AcDbEntity
  8
Calque_1
 62
1
100
AcDbLine
 10
717.439100
 20
653.440006
 30
0.0
 11
728.212454
 21
653.440006
 31
0.0
  0
LINE
  5
111
100
AcDbEntity
  8
Calque_1
 62
1
100
AcDbLine
 10
728.212454
 20
653.440006
 30
0.0
 11
728.212454
 21
650.240001
 31
0.0
  0
LINE
  5
112
100
AcDbEntity
  8
Calque_1
 62
1
100
AcDbLine
 10
728.212454
 20
650.240001
 30
0.0
 11
738.772447
 21
650.240001
 31
0.0
  0
LINE
  5
113
100
AcDbEntity
  8
Calque_1
 62
1
100
AcDbLine
 10
738.772447
 20
650.240001
 30
0.0
 11
738.772447
 21
653.440006
 31
0.0
  0
LINE
  5
114
100
AcDbEntity
  8
Calque_1
 62
1
100
AcDbLine
 10
738.772447
 20
653.440006
 30
0.0
 11
749.545772
 21
653.440006
 31
0.0
  0
LINE
  5
115
100
AcDbEntity
  8
Calque_1
 62
1
100
AcDbLine
 10
749.545772
 20
653.440006
 30
0.0
 11
749.545772
 21
650.240001
 31
0.0
  0
LINE
  5
116
100
AcDbEntity
  8
Calque_1
 62
1
100
AcDbLine
 10
749.545772
 20
650.240001
 30
0.0
 11
760.105765
 21
650.240001
 31
0.0
  0
LINE
  5
117
100
AcDbEntity
  8
Calque_1
 62
1
100
AcDbLine
 10
760.105765
 20
650.240001
 30
0.0
 11
760.105765
 21
653.440006
 31
0.0
  0
LINE
  5
118
100
AcDbEntity
  8
Calque_1
 62
1
100
AcDbLine
 10
760.105765
 20
653.440006
 30
0.0
 11
770.879119
 21
653.440006
 31
0.0
  0
LINE
  5
119
100
AcDbEntity
  8
Calque_1
 62
1
100
AcDbLine
 10
770.879119
 20
653.440006
 30
0.0
 11
770.879119
 21
650.240001
 31
0.0
  0
LINE
  5
11a
100
AcDbEntity
  8
Calque_1
 62
1
100
AcDbLine
 10
770.879119
 20
650.240001
 30
0.0
 11
781.439112
 21
650.240001
 31
0.0
  0
LINE
  5
11b
100
AcDbEntity
  8
Calque_1
 62
1
100
AcDbLine
 10
781.439112
 20
650.240001
 30
0.0
 11
781.439112
 21
653.440006
 31
0.0
  0
LINE
  5
11c
100
AcDbEntity
  8
Calque_1
 62
1
100
AcDbLine
 10
781.439112
 20
653.440006
 30
0.0
 11
792.159097
 21
653.440006
 31
0.0
  0
LINE
  5
11d
100
AcDbEntity
  8
Calque_1
 62
1
100
AcDbLine
 10
792.159097
 20
653.440006
 30
0.0
 11
792.159097
 21
642.720021
 31
0.0
  0
LINE
  5
11e
100
AcDbEntity
  8
Calque_1
 62
1
100
AcDbLine
 10
792.159097
 20
642.720021
 30
0.0
 11
788.959092
 21
642.720021
 31
0.0
  0
LINE
  5
11f
100
AcDbEntity
  8
Calque_1
 62
1
100
AcDbLine
 10
788.959092
 20
642.720021
 30
0.0
 11
788.959092
 21
632.160008
 31
0.0
  0
LINE
  5
120
100
AcDbEntity
  8
Calque_1
 62
1
100
AcDbLine
 10
788.959092
 20
632.160008
 30
0.0
 11
792.159097
 21
632.160008
 31
0.0
  0
LINE
  5
121
100
AcDbEntity
  8
Calque_1
 62
1
100
AcDbLine
 10
792.159097
 20
632.160008
 30
0.0
 11
792.159097
 21
621.386674
 31
0.0
  0
LINE
  5
122
100
AcDbEntity
  8
Calque_1
 62
1
100
AcDbLine
 10
792.159097
 20
621.386674
 30
0.0
 11
788.959092
 21
621.386674
 31
0.0
  0
LINE
  5
123
100
AcDbEntity
  8
Calque_1
 62
1
100
AcDbLine
 10
788.959092
 20
621.386674
 30
0.0
 11
788.959092
 21
610.826673
 31
0.0
  0
LINE
  5
124
100
AcDbEntity
  8
Calque_1
 62
1
100
AcDbLine
 10
788.959092
 20
610.826673
 30
0.0
 11
792.159097
 21
610.826673
 31
0.0
  0
LINE
  5
125
100
AcDbEntity
  8
Calque_1
 62
1
100
AcDbLine
 10
792.159097
 20
610.826673
 30
0.0
 11
792.159097
 21
600.053342
 31
0.0
  0
LINE
  5
126
100
AcDbEntity
  8
Calque_1
 62
1
100
AcDbLine
 10
792.159097
 20
600.053342
 30
0.0
 11
788.959092
 21
600.053342
 31
0.0
  0
LINE
  5
127
100
AcDbEntity
  8
Calque_1
 62
1
100
AcDbLine
 10
788.959092
 20
600.053342
 30
0.0
 11
788.959092
 21
589.493340
 31
0.0
  0
LINE
  5
128
100
AcDbEntity
  8
Calque_1
 62
1
100
AcDbLine
 10
788.959092
 20
589.493340
 30
0.0
 11
792.159097
 21
589.493340
 31
0.0
  0
LINE
  5
129
100
AcDbEntity
  8
Calque_1
 62
1
100
AcDbLine
 10
792.159097
 20
589.493340
 30
0.0
 11
792.159097
 21
578.720006
 31
0.0
  0
LINE
  5
12a
100
AcDbEntity
  8
Calque_1
 62
1
100
AcDbLine
 10
792.159097
 20
578.720006
 30
0.0
 11
788.959092
 21
578.720006
 31
0.0
  0
LINE
  5
12b
100
AcDbEntity
  8
Calque_1
 62
1
100
AcDbLine
 10
788.959092
 20
578.720006
 30
0.0
 11
788.959092
 21
568.160007
 31
0.0
  0
LINE
  5
12c
100
AcDbEntity
  8
Calque_1
 62
1
100
AcDbLine
 10
788.959092
 20
568.160007
 30
0.0
 11
792.159097
 21
568.160007
 31
0.0
  0
LINE
  5
12d
100
AcDbEntity
  8
Calque_1
 62
1
100
AcDbLine
 10
792.159097
 20
568.160007
 30
0.0
 11
792.159097
 21
557.386674
 31
0.0
  0
LINE
  5
12e
100
AcDbEntity
  8
Calque_1
 62
1
100
AcDbLine
 10
792.159097
 20
557.386674
 30
0.0
 11
788.959092
 21
557.386674
 31
0.0
  0
LINE
  5
12f
100
AcDbEntity
  8
Calque_1
 62
1
100
AcDbLine
 10
788.959092
 20
557.386674
 30
0.0
 11
788.959092
 21
546.826675
 31
0.0
  0
LINE
  5
130
100
AcDbEntity
  8
Calque_1
 62
1
100
AcDbLine
 10
788.959092
 20
546.826675
 30
0.0
 11
792.159097
 21
546.826675
 31
0.0
  0
LINE
  5
131
100
AcDbEntity
  8
Calque_1
 62
1
100
AcDbLine
 10
792.159097
 20
546.826675
 30
0.0
 11
792.159097
 21
536.053341
 31
0.0
  0
LINE
  5
132
100
AcDbEntity
  8
Calque_1
 62
1
100
AcDbLine
 10
792.159097
 20
536.053341
 30
0.0
 11
788.959092
 21
536.053341
 31
0.0
  0
LINE
  5
133
100
AcDbEntity
  8
Calque_1
 62
1
100
AcDbLine
 10
788.959092
 20
536.053341
 30
0.0
 11
788.959092
 21
525.493342
 31
0.0
  0
LINE
  5
134
100
AcDbEntity
  8
Calque_1
 62
1
100
AcDbLine
 10
788.959092
 20
525.493342
 30
0.0
 11
792.159097
 21
525.493342
 31
0.0
  0
LINE
  5
135
100
AcDbEntity
  8
Calque_1
 62
1
100
AcDbLine
 10
792.159097
 20
525.493342
 30
0.0
 11
792.159097
 21
514.720009
 31
0.0
  0
LINE
  5
136
100
AcDbEntity
  8
Calque_1
 62
1
100
AcDbLine
 10
792.159097
 20
514.720009
 30
0.0
 11
788.959092
 21
514.720009
 31
0.0
  0
LINE
  5
137
100
AcDbEntity
  8
Calque_1
 62
1
100
AcDbLine
 10
788.959092
 20
514.720009
 30
0.0
 11
788.959092
 21
504.160010
 31
0.0
  0
LINE
  5
138
100
AcDbEntity
  8
Calque_1
 62
1
100
AcDbLine
 10
788.959092
 20
504.160010
 30
0.0
 11
792.159097
 21
504.160010
 31
0.0
  0
LINE
  5
139
100
AcDbEntity
  8
Calque_1
 62
1
100
AcDbLine
 10
792.159097
 20
504.160010
 30
0.0
 11
792.159097
 21
493.440011
 31
0.0
  0
LINE
  5
13a
100
AcDbEntity
  8
Calque_1
 62
1
100
AcDbLine
 10
792.159097
 20
493.440011
 30
0.0
 11
781.439112
 21
493.440011
 31
0.0
  0
LINE
  5
13b
100
AcDbEntity
  8
Calque_1
 62
1
100
AcDbLine
 10
781.439112
 20
493.440011
 30
0.0
 11
781.439112
 21
496.640010
 31
0.0
  0
LINE
  5
13c
100
AcDbEntity
  8
Calque_1
 62
1
100
AcDbLine
 10
781.439112
 20
496.640010
 30
0.0
 11
770.879119
 21
496.640010
 31
0.0
  0
LINE
  5
13d
100
AcDbEntity
  8
Calque_1
 62
1
100
AcDbLine
 10
770.879119
 20
496.640010
 30
0.0
 11
770.879119
 21
493.440011
 31
0.0
  0
LINE
  5
13e
100
AcDbEntity
  8
Calque_1
 62
1
100
AcDbLine
 10
770.879119
 20
493.440011
 30
0.0
 11
760.105765
 21
493.440011
 31
0.0
  0
LINE
  5
13f
100
AcDbEntity
  8
Calque_1
 62
1
100
AcDbLine
 10
760.105765
 20
493.440011
 30
0.0
 11
760.105765
 21
496.640010
 31
0.0
  0
LINE
  5
140
100
AcDbEntity
  8
Calque_1
 62
1
100
AcDbLine
 10
760.105765
 20
496.640010
 30
0.0
 11
749.545772
 21
496.640010
 31
0.0
  0
LINE
  5
141
100
AcDbEntity
  8
Calque_1
 62
1
100
AcDbLine
 10
749.545772
 20
496.640010
 30
0.0
 11
749.545772
 21
493.440011
 31
0.0
  0
LINE
  5
142
100
AcDbEntity
  8
Calque_1
 62
1
100
AcDbLine
 10
749.545772
 20
493.440011
 30
0.0
 11
738.772447
 21
493.440011
 31
0.0
  0
LINE
  5
143
100
AcDbEntity
  8
Calque_1
 62
1
100
AcDbLine
 10
738.772447
 20
493.440011
 30
0.0
 11
738.772447
 21
496.640010
 31
0.0
  0
LINE
  5
144
100
AcDbEntity
  8
Calque_1
 62
1
100
AcDbLine
 10
738.772447
 20
496.640010
 30
0.0
 11
728.212454
 21
496.640010
 31
0.0
  0
LINE
  5
145
100
AcDbEntity
  8
Calque_1
 62
1
100
AcDbLine
 10
728.212454
 20
496.640010
 30
0.0
 11
728.212454
 21
493.440011
 31
0.0
  0
LINE
  5
146
100
AcDbEntity
  8
Calque_1
 62
1
100
AcDbLine
 10
728.212454
 20
493.440011
 30
0.0
 11
717.439100
 21
493.440011
 31
0.0
  0
LINE
  5
147
100
AcDbEntity
  8
Calque_1
 62
1
100
AcDbLine
 10
717.439100
 20
493.440011
 30
0.0
 11
717.439100
 21
496.640010
 31
0.0
  0
LINE
  5
148
100
AcDbEntity
  8
Calque_1
 62
1
100
AcDbLine
 10
717.439100
 20
496.640010
 30
0.0
 11
706.879107
 21
496.640010
 31
0.0
  0
LINE
  5
149
100
AcDbEntity
  8
Calque_1
 62
1
100
AcDbLine
 10
706.879107
 20
496.640010
 30
0.0
 11
706.879107
 21
493.440011
 31
0.0
  0
LINE
  5
14a
100
AcDbEntity
  8
Calque_1
 62
1
100
AcDbLine
 10
706.879107
 20
493.440011
 30
0.0
 11
696.105782
 21
493.440011
 31
0.0
  0
LINE
  5
14b
100
AcDbEntity
  8
Calque_1
 62
1
100
AcDbLine
 10
696.105782
 20
493.440011
 30
0.0
 11
696.105782
 21
496.640010
 31
0.0
  0
LINE
  5
14c
100
AcDbEntity
  8
Calque_1
 62
1
100
AcDbLine
 10
696.105782
 20
496.640010
 30
0.0
 11
685.545760
 21
496.640010
 31
0.0
  0
LINE
  5
14d
100
AcDbEntity
  8
Calque_1
 62
1
100
AcDbLine
 10
685.545760
 20
496.640010
 30
0.0
 11
685.545760
 21
493.440011
 31
0.0
  0
LINE
  5
14e
100
AcDbEntity
  8
Calque_1
 62
1
100
AcDbLine
 10
685.545760
 20
493.440011
 30
0.0
 11
674.772435
 21
493.440011
 31
0.0
  0
LINE
  5
14f
100
AcDbEntity
  8
Calque_1
 62
1
100
AcDbLine
 10
674.772435
 20
493.440011
 30
0.0
 11
674.772435
 21
496.640010
 31
0.0
  0
LINE
  5
150
100
AcDbEntity
  8
Calque_1
 62
1
100
AcDbLine
 10
674.772435
 20
496.640010
 30
0.0
 11
664.212442
 21
496.640010
 31
0.0
  0
LINE
  5
151
100
AcDbEntity
  8
Calque_1
 62
1
100
AcDbLine
 10
664.212442
 20
496.640010
 30
0.0
 11
664.212442
 21
493.440011
 31
0.0
  0
LINE
  5
152
100
AcDbEntity
  8
Calque_1
 62
1
100
AcDbLine
 10
664.212442
 20
493.440011
 30
0.0
 11
653.439117
 21
493.440011
 31
0.0
  0
LINE
  5
153
100
AcDbEntity
  8
Calque_1
 62
1
100
AcDbLine
 10
653.439117
 20
493.440011
 30
0.0
 11
653.439117
 21
496.640010
 31
0.0
  0
LINE
  5
154
100
AcDbEntity
  8
Calque_1
 62
1
100
AcDbLine
 10
653.439117
 20
496.640010
 30
0.0
 11
642.879123
 21
496.640010
 31
0.0
  0
LINE
  5
155
100
AcDbEntity
  8
Calque_1
 62
1
100
AcDbLine
 10
642.879123
 20
496.640010
 30
0.0
 11
642.879123
 21
493.440011
 31
0.0
  0
LINE
  5
156
100
AcDbEntity
  8
Calque_1
 62
1
100
AcDbLine
 10
642.879123
 20
493.440011
 30
0.0
 11
632.159110
 21
493.440011
 31
0.0
  0
LINE
  5
157
100
AcDbEntity
  8
Calque_1
 62
1
100
AcDbLine
 10
632.159110
 20
493.440011
 30
0.0
 11
632.159110
 21
504.160010
 31
0.0
  0
LINE
  5
158
100
AcDbEntity
  8
Calque_1
 62
1
100
AcDbLine
 10
632.159110
 20
504.160010
 30
0.0
 11
635.359115
 21
504.160010
 31
0.0
  0
LINE
  5
159
100
AcDbEntity
  8
Calque_1
 62
1
100
AcDbLine
 10
635.359115
 20
504.160010
 30
0.0
 11
635.359115
 21
514.720009
 31
0.0
  0
LINE
  5
15a
100
AcDbEntity
  8
Calque_1
 62
1
100
AcDbLine
 10
635.359115
 20
514.720009
 30
0.0
 11
632.159110
 21
514.720009
 31
0.0
  0
LINE
  5
15b
100
AcDbEntity
  8
Calque_1
 62
1
100
AcDbLine
 10
632.159110
 20
514.720009
 30
0.0
 11
632.159110
 21
525.493342
 31
0.0
  0
LINE
  5
15c
100
AcDbEntity
  8
Calque_1
 62
1
100
AcDbLine
 10
632.159110
 20
525.493342
 30
0.0
 11
635.359115
 21
525.493342
 31
0.0
  0
LINE
  5
15d
100
AcDbEntity
  8
Calque_1
 62
1
100
AcDbLine
 10
635.359115
 20
525.493342
 30
0.0
 11
635.359115
 21
536.053341
 31
0.0
  0
LINE
  5
15e
100
AcDbEntity
  8
Calque_1
 62
1
100
AcDbLine
 10
635.359115
 20
536.053341
 30
0.0
 11
632.159110
 21
536.053341
 31
0.0
  0
LINE
  5
15f
100
AcDbEntity
  8
Calque_1
 62
1
100
AcDbLine
 10
632.159110
 20
536.053341
 30
0.0
 11
632.159110
 21
546.826675
 31
0.0
  0
LINE
  5
160
100
AcDbEntity
  8
Calque_1
 62
1
100
AcDbLine
 10
632.159110
 20
546.826675
 30
0.0
 11
635.359115
 21
546.826675
 31
0.0
  0
LINE
  5
161
100
AcDbEntity
  8
Calque_1
 62
1
100
AcDbLine
 10
635.359115
 20
546.826675
 30
0.0
 11
635.359115
 21
557.386674
 31
0.0
  0
LINE
  5
162
100
AcDbEntity
  8
Calque_1
 62
1
100
AcDbLine
 10
635.359115
 20
557.386674
 30
0.0
 11
632.159110
 21
557.386674
 31
0.0
  0
LINE
  5
163
100
AcDbEntity
  8
Calque_1
 62
1
100
AcDbLine
 10
632.159110
 20
557.386674
 30
0.0
 11
632.159110
 21
568.160007
 31
0.0
  0
LINE
  5
164
100
AcDbEntity
  8
Calque_1
 62
1
100
AcDbLine
 10
632.159110
 20
568.160007
 30
0.0
 11
635.359115
 21
568.160007
 31
0.0
  0
LINE
  5
165
100
AcDbEntity
  8
Calque_1
 62
1
100
AcDbLine
 10
635.359115
 20
568.160007
 30
0.0
 11
635.359115
 21
578.720006
 31
0.0
  0
LINE
  5
166
100
AcDbEntity
  8
Calque_1
 62
1
100
AcDbLine
 10
635.359115
 20
578.720006
 30
0.0
 11
632.159110
 21
578.720006
 31
0.0
  0
LINE
  5
167
100
AcDbEntity
  8
Calque_1
 62
1
100
AcDbLine
 10
632.159110
 20
578.720006
 30
0.0
 11
632.159110
 21
589.493340
 31
0.0
  0
LINE
  5
168
100
AcDbEntity
  8
Calque_1
 62
1
100
AcDbLine
 10
632.159110
 20
589.493340
 30
0.0
 11
635.359115
 21
589.493340
 31
0.0
  0
LINE
  5
169
100
AcDbEntity
  8
Calque_1
 62
1
100
AcDbLine
 10
635.359115
 20
589.493340
 30
0.0
 11
635.359115
 21
600.053342
 31
0.0
  0
LINE
  5
16a
100
AcDbEntity
  8
Calque_1
 62
1
100
AcDbLine
 10
635.359115
 20
600.053342
 30
0.0
 11
632.159110
 21
600.053342
 31
0.0
  0
LINE
  5
16b
100
AcDbEntity
  8
Calque_1
 62
1
100
AcDbLine
 10
632.159110
 20
600.053342
 30
0.0
 11
632.159110
 21
610.826673
 31
0.0
  0
LINE
  5
16c
100
AcDbEntity
  8
Calque_1
 62
1
100
AcDbLine
 10
632.159110
 20
610.826673
 30
0.0
 11
635.359115
 21
610.826673
 31
0.0
  0
LINE
  5
16d
100
AcDbEntity
  8
Calque_1
 62
1
100
AcDbLine
 10
635.359115
 20
610.826673
 30
0.0
 11
635.359115
 21
621.386674
 31
0.0
  0
LINE
  5
16e
100
AcDbEntity
  8
Calque_1
 62
1
100
AcDbLine
 10
635.359115
 20
621.386674
 30
0.0
 11
632.159110
 21
621.386674
 31
0.0
  0
LINE
  5
16f
100
AcDbEntity
  8
Calque_1
 62
1
100
AcDbLine
 10
632.159110
 20
621.386674
 30
0.0
 11
632.159110
 21
632.160008
 31
0.0
  0
LINE
  5
170
100
AcDbEntity
  8
Calque_1
 62
1
100
AcDbLine
 10
632.159110
 20
632.160008
 30
0.0
 11
635.359115
 21
632.160008
 31
0.0
  0
LINE
  5
171
100
AcDbEntity
  8
Calque_1
 62
1
100
AcDbLine
 10
635.359115
 20
632.160008
 30
0.0
 11
635.359115
 21
642.720021
 31
0.0
  0
LINE
  5
172
100
AcDbEntity
  8
Calque_1
 62
1
100
AcDbLine
 10
635.359115
 20
642.720021
 30
0.0
 11
632.159110
 21
642.720021
 31
0.0
  0
LINE
  5
173
100
AcDbEntity
  8
Calque_1
 62
1
100
AcDbLine
 10
632.159110
 20
642.720021
 30
0.0
 11
632.159110
 21
653.440006
 31
0.0
  0
LINE
  5
174
100
AcDbEntity
  8
Calque_1
 62
1
100
AcDbLine
 10
795.359102
 20
653.440006
 30
0.0
 11
806.079115
 21
653.440006
 31
0.0
  0
LINE
  5
175
100
AcDbEntity
  8
Calque_1
 62
1
100
AcDbLine
 10
806.079115
 20
653.440006
 30
0.0
 11
806.079115
 21
650.240001
 31
0.0
  0
LINE
  5
176
100
AcDbEntity
  8
Calque_1
 62
1
100
AcDbLine
 10
806.079115
 20
650.240001
 30
0.0
 11
816.639109
 21
650.240001
 31
0.0
  0
LINE
  5
177
100
AcDbEntity
  8
Calque_1
 62
1
100
AcDbLine
 10
816.639109
 20
650.240001
 30
0.0
 11
816.639109
 21
653.440006
 31
0.0
  0
LINE
  5
178
100
AcDbEntity
  8
Calque_1
 62
1
100
AcDbLine
 10
816.639109
 20
653.440006
 30
0.0
 11
827.412434
 21
653.440006
 31
0.0
  0
LINE
  5
179
100
AcDbEntity
  8
Calque_1
 62
1
100
AcDbLine
 10
827.412434
 20
653.440006
 30
0.0
 11
827.412434
 21
650.240001
 31
0.0
  0
LINE
  5
17a
100
AcDbEntity
  8
Calque_1
 62
1
100
AcDbLine
 10
827.412434
 20
650.240001
 30
0.0
 11
837.972427
 21
650.240001
 31
0.0
  0
LINE
  5
17b
100
AcDbEntity
  8
Calque_1
 62
1
100
AcDbLine
 10
837.972427
 20
650.240001
 30
0.0
 11
837.972427
 21
653.440006
 31
0.0
  0
LINE
  5
17c
100
AcDbEntity
  8
Calque_1
 62
1
100
AcDbLine
 10
837.972427
 20
653.440006
 30
0.0
 11
848.745752
 21
653.440006
 31
0.0
  0
LINE
  5
17d
100
AcDbEntity
  8
Calque_1
 62
1
100
AcDbLine
 10
848.745752
 20
653.440006
 30
0.0
 11
848.745752
 21
650.240001
 31
0.0
  0
LINE
  5
17e
100
AcDbEntity
  8
Calque_1
 62
1
100
AcDbLine
 10
848.745752
 20
650.240001
 30
0.0
 11
859.305774
 21
650.240001
 31
0.0
  0
LINE
  5
17f
100
AcDbEntity
  8
Calque_1
 62
1
100
AcDbLine
 10
859.305774
 20
650.240001
 30
0.0
 11
859.305774
 21
653.440006
 31
0.0
  0
LINE
  5
180
100
AcDbEntity
  8
Calque_1
 62
1
100
AcDbLine
 10
859.305774
 20
653.440006
 30
0.0
 11
870.079099
 21
653.440006
 31
0.0
  0
LINE
  5
181
100
AcDbEntity
  8
Calque_1
 62
1
100
AcDbLine
 10
870.079099
 20
653.440006
 30
0.0
 11
870.079099
 21
650.240001
 31
0.0
  0
LINE
  5
182
100
AcDbEntity
  8
Calque_1
 62
1
100
AcDbLine
 10
870.079099
 20
650.240001
 30
0.0
 11
880.639092
 21
650.240001
 31
0.0
  0
LINE
  5
183
100
AcDbEntity
  8
Calque_1
 62
1
100
AcDbLine
 10
880.639092
 20
650.240001
 30
0.0
 11
880.639092
 21
653.440006
 31
0.0
  0
LINE
  5
184
100
AcDbEntity
  8
Calque_1
 62
1
100
AcDbLine
 10
880.639092
 20
653.440006
 30
0.0
 11
891.412446
 21
653.440006
 31
0.0
  0
LINE
  5
185
100
AcDbEntity
  8
Calque_1
 62
1
100
AcDbLine
 10
891.412446
 20
653.440006
 30
0.0
 11
891.412446
 21
650.240001
 31
0.0
  0
LINE
  5
186
100
AcDbEntity
  8
Calque_1
 62
1
100
AcDbLine
 10
891.412446
 20
650.240001
 30
0.0
 11
901.972439
 21
650.240001
 31
0.0
  0
LINE
  5
187
100
AcDbEntity
  8
Calque_1
 62
1
100
AcDbLine
 10
901.972439
 20
650.240001
 30
0.0
 11
901.972439
 21
653.440006
 31
0.0
  0
LINE
  5
188
100
AcDbEntity
  8
Calque_1
 62
1
100
AcDbLine
 10
901.972439
 20
653.440006
 30
0.0
 11
912.745764
 21
653.440006
 31
0.0
  0
LINE
  5
189
100
AcDbEntity
  8
Calque_1
 62
1
100
AcDbLine
 10
912.745764
 20
653.440006
 30
0.0
 11
912.745764
 21
650.240001
 31
0.0
  0
LINE
  5
18a
100
AcDbEntity
  8
Calque_1
 62
1
100
AcDbLine
 10
912.745764
 20
650.240001
 30
0.0
 11
923.305757
 21
650.240001
 31
0.0
  0
LINE
  5
18b
100
AcDbEntity
  8
Calque_1
 62
1
100
AcDbLine
 10
923.305757
 20
650.240001
 30
0.0
 11
923.305757
 21
653.440006
 31
0.0
  0
LINE
  5
18c
100
AcDbEntity
  8
Calque_1
 62
1
100
AcDbLine
 10
923.305757
 20
653.440006
 30
0.0
 11
934.079111
 21
653.440006
 31
0.0
  0
LINE
  5
18d
100
AcDbEntity
  8
Calque_1
 62
1
100
AcDbLine
 10
934.079111
 20
653.440006
 30
0.0
 11
934.079111
 21
650.240001
 31
0.0
  0
LINE
  5
18e
100
AcDbEntity
  8
Calque_1
 62
1
100
AcDbLine
 10
934.079111
 20
650.240001
 30
0.0
 11
944.639104
 21
650.240001
 31
0.0
  0
LINE
  5
18f
100
AcDbEntity
  8
Calque_1
 62
1
100
AcDbLine
 10
944.639104
 20
650.240001
 30
0.0
 11
944.639104
 21
653.440006
 31
0.0
  0
LINE
  5
190
100
AcDbEntity
  8
Calque_1
 62
1
100
AcDbLine
 10
944.639104
 20
653.440006
 30
0.0
 11
955.359089
 21
653.440006
 31
0.0
  0
LINE
  5
191
100
AcDbEntity
  8
Calque_1
 62
1
100
AcDbLine
 10
955.359089
 20
653.440006
 30
0.0
 11
955.359089
 21
642.720021
 31
0.0
  0
LINE
  5
192
100
AcDbEntity
  8
Calque_1
 62
1
100
AcDbLine
 10
955.359089
 20
642.720021
 30
0.0
 11
952.159084
 21
642.720021
 31
0.0
  0
LINE
  5
193
100
AcDbEntity
  8
Calque_1
 62
1
100
AcDbLine
 10
952.159084
 20
642.720021
 30
0.0
 11
952.159084
 21
632.160008
 31
0.0
  0
LINE
  5
194
100
AcDbEntity
  8
Calque_1
 62
1
100
AcDbLine
 10
952.159084
 20
632.160008
 30
0.0
 11
955.359089
 21
632.160008
 31
0.0
  0
LINE
  5
195
100
AcDbEntity
  8
Calque_1
 62
1
100
AcDbLine
 10
955.359089
 20
632.160008
 30
0.0
 11
955.359089
 21
621.386674
 31
0.0
  0
LINE
  5
196
100
AcDbEntity
  8
Calque_1
 62
1
100
AcDbLine
 10
955.359089
 20
621.386674
 30
0.0
 11
952.159084
 21
621.386674
 31
0.0
  0
LINE
  5
197
100
AcDbEntity
  8
Calque_1
 62
1
100
AcDbLine
 10
952.159084
 20
621.386674
 30
0.0
 11
952.159084
 21
610.826673
 31
0.0
  0
LINE
  5
198
100
AcDbEntity
  8
Calque_1
 62
1
100
AcDbLine
 10
952.159084
 20
610.826673
 30
0.0
 11
955.359089
 21
610.826673
 31
0.0
  0
LINE
  5
199
100
AcDbEntity
  8
Calque_1
 62
1
100
AcDbLine
 10
955.359089
 20
610.826673
 30
0.0
 11
955.359089
 21
600.053342
 31
0.0
  0
LINE
  5
19a
100
AcDbEntity
  8
Calque_1
 62
1
100
AcDbLine
 10
955.359089
 20
600.053342
 30
0.0
 11
952.159084
 21
600.053342
 31
0.0
  0
LINE
  5
19b
100
AcDbEntity
  8
Calque_1
 62
1
100
AcDbLine
 10
952.159084
 20
600.053342
 30
0.0
 11
952.159084
 21
589.493340
 31
0.0
  0
LINE
  5
19c
100
AcDbEntity
  8
Calque_1
 62
1
100
AcDbLine
 10
952.159084
 20
589.493340
 30
0.0
 11
955.359089
 21
589.493340
 31
0.0
  0
LINE
  5
19d
100
AcDbEntity
  8
Calque_1
 62
1
100
AcDbLine
 10
955.359089
 20
589.493340
 30
0.0
 11
955.359089
 21
578.720006
 31
0.0
  0
LINE
  5
19e
100
AcDbEntity
  8
Calque_1
 62
1
100
AcDbLine
 10
955.359089
 20
578.720006
 30
0.0
 11
952.159084
 21
578.720006
 31
0.0
  0
LINE
  5
19f
100
AcDbEntity
  8
Calque_1
 62
1
100
AcDbLine
 10
952.159084
 20
578.720006
 30
0.0
 11
952.159084
 21
568.160007
 31
0.0
  0
LINE
  5
1a0
100
AcDbEntity
  8
Calque_1
 62
1
100
AcDbLine
 10
952.159084
 20
568.160007
 30
0.0
 11
955.359089
 21
568.160007
 31
0.0
  0
LINE
  5
1a1
100
AcDbEntity
  8
Calque_1
 62
1
100
AcDbLine
 10
955.359089
 20
568.160007
 30
0.0
 11
955.359089
 21
557.386674
 31
0.0
  0
LINE
  5
1a2
100
AcDbEntity
  8
Calque_1
 62
1
100
AcDbLine
 10
955.359089
 20
557.386674
 30
0.0
 11
952.159084
 21
557.386674
 31
0.0
  0
LINE
  5
1a3
100
AcDbEntity
  8
Calque_1
 62
1
100
AcDbLine
 10
952.159084
 20
557.386674
 30
0.0
 11
952.159084
 21
546.826675
 31
0.0
  0
LINE
  5
1a4
100
AcDbEntity
  8
Calque_1
 62
1
100
AcDbLine
 10
952.159084
 20
546.826675
 30
0.0
 11
955.359089
 21
546.826675
 31
0.0
  0
LINE
  5
1a5
100
AcDbEntity
  8
Calque_1
 62
1
100
AcDbLine
 10
955.359089
 20
546.826675
 30
0.0
 11
955.359089
 21
536.053341
 31
0.0
  0
LINE
  5
1a6
100
AcDbEntity
  8
Calque_1
 62
1
100
AcDbLine
 10
955.359089
 20
536.053341
 30
0.0
 11
952.159084
 21
536.053341
 31
0.0
  0
LINE
  5
1a7
100
AcDbEntity
  8
Calque_1
 62
1
100
AcDbLine
 10
952.159084
 20
536.053341
 30
0.0
 11
952.159084
 21
525.493342
 31
0.0
  0
LINE
  5
1a8
100
AcDbEntity
  8
Calque_1
 62
1
100
AcDbLine
 10
952.159084
 20
525.493342
 30
0.0
 11
955.359089
 21
525.493342
 31
0.0
  0
LINE
  5
1a9
100
AcDbEntity
  8
Calque_1
 62
1
100
AcDbLine
 10
955.359089
 20
525.493342
 30
0.0
 11
955.359089
 21
514.720009
 31
0.0
  0
LINE
  5
1aa
100
AcDbEntity
  8
Calque_1
 62
1
100
AcDbLine
 10
955.359089
 20
514.720009
 30
0.0
 11
952.159084
 21
514.720009
 31
0.0
  0
LINE
  5
1ab
100
AcDbEntity
  8
Calque_1
 62
1
100
AcDbLine
 10
952.159084
 20
514.720009
 30
0.0
 11
952.159084
 21
504.160010
 31
0.0
  0
LINE
  5
1ac
100
AcDbEntity
  8
Calque_1
 62
1
100
AcDbLine
 10
952.159084
 20
504.160010
 30
0.0
 11
955.359089
 21
504.160010
 31
0.0
  0
LINE
  5
1ad
100
AcDbEntity
  8
Calque_1
 62
1
100
AcDbLine
 10
955.359089
 20
504.160010
 30
0.0
 11
955.359089
 21
493.440011
 31
0.0
  0
LINE
  5
1ae
100
AcDbEntity
  8
Calque_1
 62
1
100
AcDbLine
 10
955.359089
 20
493.440011
 30
0.0
 11
944.639104
 21
493.440011
 31
0.0
  0
LINE
  5
1af
100
AcDbEntity
  8
Calque_1
 62
1
100
AcDbLine
 10
944.639104
 20
493.440011
 30
0.0
 11
944.639104
 21
496.640010
 31
0.0
  0
LINE
  5
1b0
100
AcDbEntity
  8
Calque_1
 62
1
100
AcDbLine
 10
944.639104
 20
496.640010
 30
0.0
 11
934.079111
 21
496.640010
 31
0.0
  0
LINE
  5
1b1
100
AcDbEntity
  8
Calque_1
 62
1
100
AcDbLine
 10
934.079111
 20
496.640010
 30
0.0
 11
934.079111
 21
493.440011
 31
0.0
  0
LINE
  5
1b2
100
AcDbEntity
  8
Calque_1
 62
1
100
AcDbLine
 10
934.079111
 20
493.440011
 30
0.0
 11
923.305757
 21
493.440011
 31
0.0
  0
LINE
  5
1b3
100
AcDbEntity
  8
Calque_1
 62
1
100
AcDbLine
 10
923.305757
 20
493.440011
 30
0.0
 11
923.305757
 21
496.640010
 31
0.0
  0
LINE
  5
1b4
100
AcDbEntity
  8
Calque_1
 62
1
100
AcDbLine
 10
923.305757
 20
496.640010
 30
0.0
 11
912.745764
 21
496.640010
 31
0.0
  0
LINE
  5
1b5
100
AcDbEntity
  8
Calque_1
 62
1
100
AcDbLine
 10
912.745764
 20
496.640010
 30
0.0
 11
912.745764
 21
493.440011
 31
0.0
  0
LINE
  5
1b6
100
AcDbEntity
  8
Calque_1
 62
1
100
AcDbLine
 10
912.745764
 20
493.440011
 30
0.0
 11
901.972439
 21
493.440011
 31
0.0
  0
LINE
  5
1b7
100
AcDbEntity
  8
Calque_1
 62
1
100
AcDbLine
 10
901.972439
 20
493.440011
 30
0.0
 11
901.972439
 21
496.640010
 31
0.0
  0
LINE
  5
1b8
100
AcDbEntity
  8
Calque_1
 62
1
100
AcDbLine
 10
901.972439
 20
496.640010
 30
0.0
 11
891.412446
 21
496.640010
 31
0.0
  0
LINE
  5
1b9
100
AcDbEntity
  8
Calque_1
 62
1
100
AcDbLine
 10
891.412446
 20
496.640010
 30
0.0
 11
891.412446
 21
493.440011
 31
0.0
  0
LINE
  5
1ba
100
AcDbEntity
  8
Calque_1
 62
1
100
AcDbLine
 10
891.412446
 20
493.440011
 30
0.0
 11
880.639092
 21
493.440011
 31
0.0
  0
LINE
  5
1bb
100
AcDbEntity
  8
Calque_1
 62
1
100
AcDbLine
 10
880.639092
 20
493.440011
 30
0.0
 11
880.639092
 21
496.640010
 31
0.0
  0
LINE
  5
1bc
100
AcDbEntity
  8
Calque_1
 62
1
100
AcDbLine
 10
880.639092
 20
496.640010
 30
0.0
 11
870.079099
 21
496.640010
 31
0.0
  0
LINE
  5
1bd
100
AcDbEntity
  8
Calque_1
 62
1
100
AcDbLine
 10
870.079099
 20
496.640010
 30
0.0
 11
870.079099
 21
493.440011
 31
0.0
  0
LINE
  5
1be
100
AcDbEntity
  8
Calque_1
 62
1
100
AcDbLine
 10
870.079099
 20
493.440011
 30
0.0
 11
859.305774
 21
493.440011
 31
0.0
  0
LINE
  5
1bf
100
AcDbEntity
  8
Calque_1
 62
1
100
AcDbLine
 10
859.305774
 20
493.440011
 30
0.0
 11
859.305774
 21
496.640010
 31
0.0
  0
LINE
  5
1c0
100
AcDbEntity
  8
Calque_1
 62
1
100
AcDbLine
 10
859.305774
 20
496.640010
 30
0.0
 11
848.745752
 21
496.640010
 31
0.0
  0
LINE
  5
1c1
100
AcDbEntity
  8
Calque_1
 62
1
100
AcDbLine
 10
848.745752
 20
496.640010
 30
0.0
 11
848.745752
 21
493.440011
 31
0.0
  0
LINE
  5
1c2
100
AcDbEntity
  8
Calque_1
 62
1
100
AcDbLine
 10
848.745752
 20
493.440011
 30
0.0
 11
837.972427
 21
493.440011
 31
0.0
  0
LINE
  5
1c3
100
AcDbEntity
  8
Calque_1
 62
1
100
AcDbLine
 10
837.972427
 20
493.440011
 30
0.0
 11
837.972427
 21
496.640010
 31
0.0
  0
LINE
  5
1c4
100
AcDbEntity
  8
Calque_1
 62
1
100
AcDbLine
 10
837.972427
 20
496.640010
 30
0.0
 11
827.412434
 21
496.640010
 31
0.0
  0
LINE
  5
1c5
100
AcDbEntity
  8
Calque_1
 62
1
100
AcDbLine
 10
827.412434
 20
496.640010
 30
0.0
 11
827.412434
 21
493.440011
 31
0.0
  0
LINE
  5
1c6
100
AcDbEntity
  8
Calque_1
 62
1
100
AcDbLine
 10
827.412434
 20
493.440011
 30
0.0
 11
816.639109
 21
493.440011
 31
0.0
  0
LINE
  5
1c7
100
AcDbEntity
  8
Calque_1
 62
1
100
AcDbLine
 10
816.639109
 20
493.440011
 30
0.0
 11
816.639109
 21
496.640010
 31
0.0
  0
LINE
  5
1c8
100
AcDbEntity
  8
Calque_1
 62
1
100
AcDbLine
 10
816.639109
 20
496.640010
 30
0.0
 11
806.079115
 21
496.640010
 31
0.0
  0
LINE
  5
1c9
100
AcDbEntity
  8
Calque_1
 62
1
100
AcDbLine
 10
806.079115
 20
496.640010
 30
0.0
 11
806.079115
 21
493.440011
 31
0.0
  0
LINE
  5
1ca
100
AcDbEntity
  8
Calque_1
 62
1
100
AcDbLine
 10
806.079115
 20
493.440011
 30
0.0
 11
795.359102
 21
493.440011
 31
0.0
  0
LINE
  5
1cb
100
AcDbEntity
  8
Calque_1
 62
1
100
AcDbLine
 10
795.359102
 20
493.440011
 30
0.0
 11
795.359102
 21
504.160010
 31
0.0
  0
LINE
  5
1cc
100
AcDbEntity
  8
Calque_1
 62
1
100
AcDbLine
 10
795.359102
 20
504.160010
 30
0.0
 11
798.559107
 21
504.160010
 31
0.0
  0
LINE
  5
1cd
100
AcDbEntity
  8
Calque_1
 62
1
100
AcDbLine
 10
798.559107
 20
504.160010
 30
0.0
 11
798.559107
 21
514.720009
 31
0.0
  0
LINE
  5
1ce
100
AcDbEntity
  8
Calque_1
 62
1
100
AcDbLine
 10
798.559107
 20
514.720009
 30
0.0
 11
795.359102
 21
514.720009
 31
0.0
  0
LINE
  5
1cf
100
AcDbEntity
  8
Calque_1
 62
1
100
AcDbLine
 10
795.359102
 20
514.720009
 30
0.0
 11
795.359102
 21
525.493342
 31
0.0
  0
LINE
  5
1d0
100
AcDbEntity
  8
Calque_1
 62
1
100
AcDbLine
 10
795.359102
 20
525.493342
 30
0.0
 11
798.559107
 21
525.493342
 31
0.0
  0
LINE
  5
1d1
100
AcDbEntity
  8
Calque_1
 62
1
100
AcDbLine
 10
798.559107
 20
525.493342
 30
0.0
 11
798.559107
 21
536.053341
 31
0.0
  0
LINE
  5
1d2
100
AcDbEntity
  8
Calque_1
 62
1
100
AcDbLine
 10
798.559107
 20
536.053341
 30
0.0
 11
795.359102
 21
536.053341
 31
0.0
  0
LINE
  5
1d3
100
AcDbEntity
  8
Calque_1
 62
1
100
AcDbLine
 10
795.359102
 20
536.053341
 30
0.0
 11
795.359102
 21
546.826675
 31
0.0
  0
LINE
  5
1d4
100
AcDbEntity
  8
Calque_1
 62
1
100
AcDbLine
 10
795.359102
 20
546.826675
 30
0.0
 11
798.559107
 21
546.826675
 31
0.0
  0
LINE
  5
1d5
100
AcDbEntity
  8
Calque_1
 62
1
100
AcDbLine
 10
798.559107
 20
546.826675
 30
0.0
 11
798.559107
 21
557.386674
 31
0.0
  0
LINE
  5
1d6
100
AcDbEntity
  8
Calque_1
 62
1
100
AcDbLine
 10
798.559107
 20
557.386674
 30
0.0
 11
795.359102
 21
557.386674
 31
0.0
  0
LINE
  5
1d7
100
AcDbEntity
  8
Calque_1
 62
1
100
AcDbLine
 10
795.359102
 20
557.386674
 30
0.0
 11
795.359102
 21
568.160007
 31
0.0
  0
LINE
  5
1d8
100
AcDbEntity
  8
Calque_1
 62
1
100
AcDbLine
 10
795.359102
 20
568.160007
 30
0.0
 11
798.559107
 21
568.160007
 31
0.0
  0
LINE
  5
1d9
100
AcDbEntity
  8
Calque_1
 62
1
100
AcDbLine
 10
798.559107
 20
568.160007
 30
0.0
 11
798.559107
 21
578.720006
 31
0.0
  0
LINE
  5
1da
100
AcDbEntity
  8
Calque_1
 62
1
100
AcDbLine
 10
798.559107
 20
578.720006
 30
0.0
 11
795.359102
 21
578.720006
 31
0.0
  0
LINE
  5
1db
100
AcDbEntity
  8
Calque_1
 62
1
100
AcDbLine
 10
795.359102
 20
578.720006
 30
0.0
 11
795.359102
 21
589.493340
 31
0.0
  0
LINE
  5
1dc
100
AcDbEntity
  8
Calque_1
 62
1
100
AcDbLine
 10
795.359102
 20
589.493340
 30
0.0
 11
798.559107
 21
589.493340
 31
0.0
  0
LINE
  5
1dd
100
AcDbEntity
  8
Calque_1
 62
1
100
AcDbLine
 10
798.559107
 20
589.493340
 30
0.0
 11
798.559107
 21
600.053342
 31
0.0
  0
LINE
  5
1de
100
AcDbEntity
  8
Calque_1
 62
1
100
AcDbLine
 10
798.559107
 20
600.053342
 30
0.0
 11
795.359102
 21
600.053342
 31
0.0
  0
LINE
  5
1df
100
AcDbEntity
  8
Calque_1
 62
1
100
AcDbLine
 10
795.359102
 20
600.053342
 30
0.0
 11
795.359102
 21
610.826673
 31
0.0
  0
LINE
  5
1e0
100
AcDbEntity
  8
Calque_1
 62
1
100
AcDbLine
 10
795.359102
 20
610.826673
 30
0.0
 11
798.559107
 21
610.826673
 31
0.0
  0
LINE
  5
1e1
100
AcDbEntity
  8
Calque_1
 62
1
100
AcDbLine
 10
798.559107
 20
610.826673
 30
0.0
 11
798.559107
 21
621.386674
 31
0.0
  0
LINE
  5
1e2
100
AcDbEntity
  8
Calque_1
 62
1
100
AcDbLine
 10
798.559107
 20
621.386674
 30
0.0
 11
795.359102
 21
621.386674
 31
0.0
  0
LINE
  5
1e3
100
AcDbEntity
  8
Calque_1
 62
1
100
AcDbLine
 10
795.359102
 20
621.386674
 30
0.0
 11
795.359102
 21
632.160008
 31
0.0
  0
LINE
  5
1e4
100
AcDbEntity
  8
Calque_1
 62
1
100
AcDbLine
 10
795.359102
 20
632.160008
 30
0.0
 11
798.559107
 21
632.160008
 31
0.0
  0
LINE
  5
1e5
100
AcDbEntity
  8
Calque_1
 62
1
100
AcDbLine
 10
798.559107
 20
632.160008
 30
0.0
 11
798.559107
 21
642.720021
 31
0.0
  0
LINE
  5
1e6
100
AcDbEntity
  8
Calque_1
 62
1
100
AcDbLine
 10
798.559107
 20
642.720021
 30
0.0
 11
795.359102
 21
642.720021
 31
0.0
  0
LINE
  5
1e7
100
AcDbEntity
  8
Calque_1
 62
1
100
AcDbLine
 10
795.359102
 20
642.720021
 30
0.0
 11
795.359102
 21
653.440006
 31
0.0
  0
LINE
  5
1e8
100
AcDbEntity
  8
Calque_1
 62
1
100
AcDbLine
 10
795.359102
 20
487.039987
 30
0.0
 11
805.972435
 21
487.039987
 31
0.0
  0
LINE
  5
1e9
100
AcDbEntity
  8
Calque_1
 62
1
100
AcDbLine
 10
805.972435
 20
487.039987
 30
0.0
 11
805.972435
 21
490.239986
 31
0.0
  0
LINE
  5
1ea
100
AcDbEntity
  8
Calque_1
 62
1
100
AcDbLine
 10
805.972435
 20
490.239986
 30
0.0
 11
816.745760
 21
490.239986
 31
0.0
  0
LINE
  5
1eb
100
AcDbEntity
  8
Calque_1
 62
1
100
AcDbLine
 10
816.745760
 20
490.239986
 30
0.0
 11
816.745760
 21
487.039987
 31
0.0
  0
LINE
  5
1ec
100
AcDbEntity
  8
Calque_1
 62
1
100
AcDbLine
 10
816.745760
 20
487.039987
 30
0.0
 11
827.305754
 21
487.039987
 31
0.0
  0
LINE
  5
1ed
100
AcDbEntity
  8
Calque_1
 62
1
100
AcDbLine
 10
827.305754
 20
487.039987
 30
0.0
 11
827.305754
 21
490.239986
 31
0.0
  0
LINE
  5
1ee
100
AcDbEntity
  8
Calque_1
 62
1
100
AcDbLine
 10
827.305754
 20
490.239986
 30
0.0
 11
838.079107
 21
490.239986
 31
0.0
  0
LINE
  5
1ef
100
AcDbEntity
  8
Calque_1
 62
1
100
AcDbLine
 10
838.079107
 20
490.239986
 30
0.0
 11
838.079107
 21
487.039987
 31
0.0
  0
LINE
  5
1f0
100
AcDbEntity
  8
Calque_1
 62
1
100
AcDbLine
 10
838.079107
 20
487.039987
 30
0.0
 11
848.639100
 21
487.039987
 31
0.0
  0
LINE
  5
1f1
100
AcDbEntity
  8
Calque_1
 62
1
100
AcDbLine
 10
848.639100
 20
487.039987
 30
0.0
 11
848.639100
 21
490.239986
 31
0.0
  0
LINE
  5
1f2
100
AcDbEntity
  8
Calque_1
 62
1
100
AcDbLine
 10
848.639100
 20
490.239986
 30
0.0
 11
859.412426
 21
490.239986
 31
0.0
  0
LINE
  5
1f3
100
AcDbEntity
  8
Calque_1
 62
1
100
AcDbLine
 10
859.412426
 20
490.239986
 30
0.0
 11
859.412426
 21
487.039987
 31
0.0
  0
LINE
  5
1f4
100
AcDbEntity
  8
Calque_1
 62
1
100
AcDbLine
 10
859.412426
 20
487.039987
 30
0.0
 11
869.972419
 21
487.039987
 31
0.0
  0
LINE
  5
1f5
100
AcDbEntity
  8
Calque_1
 62
1
100
AcDbLine
 10
869.972419
 20
487.039987
 30
0.0
 11
869.972419
 21
490.239986
 31
0.0
  0
LINE
  5
1f6
100
AcDbEntity
  8
Calque_1
 62
1
100
AcDbLine
 10
869.972419
 20
490.239986
 30
0.0
 11
880.745772
 21
490.239986
 31
0.0
  0
LINE
  5
1f7
100
AcDbEntity
  8
Calque_1
 62
1
100
AcDbLine
 10
880.745772
 20
490.239986
 30
0.0
 11
880.745772
 21
487.039987
 31
0.0
  0
LINE
  5
1f8
100
AcDbEntity
  8
Calque_1
 62
1
100
AcDbLine
 10
880.745772
 20
487.039987
 30
0.0
 11
891.305766
 21
487.039987
 31
0.0
  0
LINE
  5
1f9
100
AcDbEntity
  8
Calque_1
 62
1
100
AcDbLine
 10
891.305766
 20
487.039987
 30
0.0
 11
891.305766
 21
490.239986
 31
0.0
  0
LINE
  5
1fa
100
AcDbEntity
  8
Calque_1
 62
1
100
AcDbLine
 10
891.305766
 20
490.239986
 30
0.0
 11
902.079091
 21
490.239986
 31
0.0
  0
LINE
  5
1fb
100
AcDbEntity
  8
Calque_1
 62
1
100
AcDbLine
 10
902.079091
 20
490.239986
 30
0.0
 11
902.079091
 21
487.039987
 31
0.0
  0
LINE
  5
1fc
100
AcDbEntity
  8
Calque_1
 62
1
100
AcDbLine
 10
902.079091
 20
487.039987
 30
0.0
 11
912.639112
 21
487.039987
 31
0.0
  0
LINE
  5
1fd
100
AcDbEntity
  8
Calque_1
 62
1
100
AcDbLine
 10
912.639112
 20
487.039987
 30
0.0
 11
912.639112
 21
490.239986
 31
0.0
  0
LINE
  5
1fe
100
AcDbEntity
  8
Calque_1
 62
1
100
AcDbLine
 10
912.639112
 20
490.239986
 30
0.0
 11
923.412437
 21
490.239986
 31
0.0
  0
LINE
  5
1ff
100
AcDbEntity
  8
Calque_1
 62
1
100
AcDbLine
 10
923.412437
 20
490.239986
 30
0.0
 11
923.412437
 21
487.039987
 31
0.0
  0
LINE
  5
200
100
AcDbEntity
  8
Calque_1
 62
1
100
AcDbLine
 10
923.412437
 20
487.039987
 30
0.0
 11
933.972431
 21
487.039987
 31
0.0
  0
LINE
  5
201
100
AcDbEntity
  8
Calque_1
 62
1
100
AcDbLine
 10
933.972431
 20
487.039987
 30
0.0
 11
933.972431
 21
490.239986
 31
0.0
  0
LINE
  5
202
100
AcDbEntity
  8
Calque_1
 62
1
100
AcDbLine
 10
933.972431
 20
490.239986
 30
0.0
 11
944.745756
 21
490.239986
 31
0.0
  0
LINE
  5
203
100
AcDbEntity
  8
Calque_1
 62
1
100
AcDbLine
 10
944.745756
 20
490.239986
 30
0.0
 11
944.745756
 21
487.039987
 31
0.0
  0
LINE
  5
204
100
AcDbEntity
  8
Calque_1
 62
1
100
AcDbLine
 10
944.745756
 20
487.039987
 30
0.0
 11
955.359089
 21
487.039987
 31
0.0
  0
LINE
  5
205
100
AcDbEntity
  8
Calque_1
 62
1
100
AcDbLine
 10
955.359089
 20
487.039987
 30
0.0
 11
955.359089
 21
469.564432
 31
0.0
  0
LINE
  5
206
100
AcDbEntity
  8
Calque_1
 62
1
100
AcDbLine
 10
955.359089
 20
469.564432
 30
0.0
 11
952.159084
 21
469.564432
 31
0.0
  0
LINE
  5
207
100
AcDbEntity
  8
Calque_1
 62
1
100
AcDbLine
 10
952.159084
 20
469.564432
 30
0.0
 11
952.159084
 21
452.248877
 31
0.0
  0
LINE
  5
208
100
AcDbEntity
  8
Calque_1
 62
1
100
AcDbLine
 10
952.159084
 20
452.248877
 30
0.0
 11
955.359089
 21
452.248877
 31
0.0
  0
LINE
  5
209
100
AcDbEntity
  8
Calque_1
 62
1
100
AcDbLine
 10
955.359089
 20
452.248877
 30
0.0
 11
955.359089
 21
434.773321
 31
0.0
  0
LINE
  5
20a
100
AcDbEntity
  8
Calque_1
 62
1
100
AcDbLine
 10
955.359089
 20
434.773321
 30
0.0
 11
944.745756
 21
434.773321
 31
0.0
  0
LINE
  5
20b
100
AcDbEntity
  8
Calque_1
 62
1
100
AcDbLine
 10
944.745756
 20
434.773321
 30
0.0
 11
944.745756
 21
431.573319
 31
0.0
  0
LINE
  5
20c
100
AcDbEntity
  8
Calque_1
 62
1
100
AcDbLine
 10
944.745756
 20
431.573319
 30
0.0
 11
933.972431
 21
431.573319
 31
0.0
  0
LINE
  5
20d
100
AcDbEntity
  8
Calque_1
 62
1
100
AcDbLine
 10
933.972431
 20
431.573319
 30
0.0
 11
933.972431
 21
434.773321
 31
0.0
  0
LINE
  5
20e
100
AcDbEntity
  8
Calque_1
 62
1
100
AcDbLine
 10
933.972431
 20
434.773321
 30
0.0
 11
923.412437
 21
434.773321
 31
0.0
  0
LINE
  5
20f
100
AcDbEntity
  8
Calque_1
 62
1
100
AcDbLine
 10
923.412437
 20
434.773321
 30
0.0
 11
923.412437
 21
431.573319
 31
0.0
  0
LINE
  5
210
100
AcDbEntity
  8
Calque_1
 62
1
100
AcDbLine
 10
923.412437
 20
431.573319
 30
0.0
 11
912.639112
 21
431.573319
 31
0.0
  0
LINE
  5
211
100
AcDbEntity
  8
Calque_1
 62
1
100
AcDbLine
 10
912.639112
 20
431.573319
 30
0.0
 11
912.639112
 21
434.773321
 31
0.0
  0
LINE
  5
212
100
AcDbEntity
  8
Calque_1
 62
1
100
AcDbLine
 10
912.639112
 20
434.773321
 30
0.0
 11
902.079091
 21
434.773321
 31
0.0
  0
LINE
  5
213
100
AcDbEntity
  8
Calque_1
 62
1
100
AcDbLine
 10
902.079091
 20
434.773321
 30
0.0
 11
902.079091
 21
431.573319
 31
0.0
  0
LINE
  5
214
100
AcDbEntity
  8
Calque_1
 62
1
100
AcDbLine
 10
902.079091
 20
431.573319
 30
0.0
 11
891.305766
 21
431.573319
 31
0.0
  0
LINE
  5
215
100
AcDbEntity
  8
Calque_1
 62
1
100
AcDbLine
 10
891.305766
 20
431.573319
 30
0.0
 11
891.305766
 21
434.773321
 31
0.0
  0
LINE
  5
216
100
AcDbEntity
  8
Calque_1
 62
1
100
AcDbLine
 10
891.305766
 20
434.773321
 30
0.0
 11
880.745772
 21
434.773321
 31
0.0
  0
LINE
  5
217
100
AcDbEntity
  8
Calque_1
 62
1
100
AcDbLine
 10
880.745772
 20
434.773321
 30
0.0
 11
880.745772
 21
431.573319
 31
0.0
  0
LINE
  5
218
100
AcDbEntity
  8
Calque_1
 62
1
100
AcDbLine
 10
880.745772
 20
431.573319
 30
0.0
 11
869.972419
 21
431.573319
 31
0.0
  0
LINE
  5
219
100
AcDbEntity
  8
Calque_1
 62
1
100
AcDbLine
 10
869.972419
 20
431.573319
 30
0.0
 11
869.972419
 21
434.773321
 31
0.0
  0
LINE
  5
21a
100
AcDbEntity
  8
Calque_1
 62
1
100
AcDbLine
 10
869.972419
 20
434.773321
 30
0.0
 11
859.412426
 21
434.773321
 31
0.0
  0
LINE
  5
21b
100
AcDbEntity
  8
Calque_1
 62
1
100
AcDbLine
 10
859.412426
 20
434.773321
 30
0.0
 11
859.412426
 21
431.573319
 31
0.0
  0
LINE
  5
21c
100
AcDbEntity
  8
Calque_1
 62
1
100
AcDbLine
 10
859.412426
 20
431.573319
 30
0.0
 11
848.639100
 21
431.573319
 31
0.0
  0
LINE
  5
21d
100
AcDbEntity
  8
Calque_1
 62
1
100
AcDbLine
 10
848.639100
 20
431.573319
 30
0.0
 11
848.639100
 21
434.773321
 31
0.0
  0
LINE
  5
21e
100
AcDbEntity
  8
Calque_1
 62
1
100
AcDbLine
 10
848.639100
 20
434.773321
 30
0.0
 11
838.079107
 21
434.773321
 31
0.0
  0
LINE
  5
21f
100
AcDbEntity
  8
Calque_1
 62
1
100
AcDbLine
 10
838.079107
 20
434.773321
 30
0.0
 11
838.079107
 21
431.573319
 31
0.0
  0
LINE
  5
220
100
AcDbEntity
  8
Calque_1
 62
1
100
AcDbLine
 10
838.079107
 20
431.573319
 30
0.0
 11
827.305754
 21
431.573319
 31
0.0
  0
LINE
  5
221
100
AcDbEntity
  8
Calque_1
 62
1
100
AcDbLine
 10
827.305754
 20
431.573319
 30
0.0
 11
827.305754
 21
434.773321
 31
0.0
  0
LINE
  5
222
100
AcDbEntity
  8
Calque_1
 62
1
100
AcDbLine
 10
827.305754
 20
434.773321
 30
0.0
 11
816.745760
 21
434.773321
 31
0.0
  0
LINE
  5
223
100
AcDbEntity
  8
Calque_1
 62
1
100
AcDbLine
 10
816.745760
 20
434.773321
 30
0.0
 11
816.745760
 21
431.573319
 31
0.0
  0
LINE
  5
224
100
AcDbEntity
  8
Calque_1
 62
1
100
AcDbLine
 10
816.745760
 20
431.573319
 30
0.0
 11
805.972435
 21
431.573319
 31
0.0
  0
LINE
  5
225
100
AcDbEntity
  8
Calque_1
 62
1
100
AcDbLine
 10
805.972435
 20
431.573319
 30
0.0
 11
805.972435
 21
434.773321
 31
0.0
  0
LINE
  5
226
100
AcDbEntity
  8
Calque_1
 62
1
100
AcDbLine
 10
805.972435
 20
434.773321
 30
0.0
 11
795.359102
 21
434.773321
 31
0.0
  0
LINE
  5
227
100
AcDbEntity
  8
Calque_1
 62
1
100
AcDbLine
 10
795.359102
 20
434.773321
 30
0.0
 11
795.359102
 21
452.248877
 31
0.0
  0
LINE
  5
228
100
AcDbEntity
  8
Calque_1
 62
1
100
AcDbLine
 10
795.359102
 20
452.248877
 30
0.0
 11
798.559107
 21
452.248877
 31
0.0
  0
LINE
  5
229
100
AcDbEntity
  8
Calque_1
 62
1
100
AcDbLine
 10
798.559107
 20
452.248877
 30
0.0
 11
798.559107
 21
469.564432
 31
0.0
  0
LINE
  5
22a
100
AcDbEntity
  8
Calque_1
 62
1
100
AcDbLine
 10
798.559107
 20
469.564432
 30
0.0
 11
795.359102
 21
469.564432
 31
0.0
  0
LINE
  5
22b
100
AcDbEntity
  8
Calque_1
 62
1
100
AcDbLine
 10
795.359102
 20
469.564432
 30
0.0
 11
795.359102
 21
487.039987
 31
0.0
  0
LINE
  5
22c
100
AcDbEntity
  8
Calque_1
 62
1
100
AcDbLine
 10
632.159082
 20
487.039987
 30
0.0
 11
642.772415
 21
487.039987
 31
0.0
  0
LINE
  5
22d
100
AcDbEntity
  8
Calque_1
 62
1
100
AcDbLine
 10
642.772415
 20
487.039987
 30
0.0
 11
642.772415
 21
490.239986
 31
0.0
  0
LINE
  5
22e
100
AcDbEntity
  8
Calque_1
 62
1
100
AcDbLine
 10
642.772415
 20
490.239986
 30
0.0
 11
653.545740
 21
490.239986
 31
0.0
  0
LINE
  5
22f
100
AcDbEntity
  8
Calque_1
 62
1
100
AcDbLine
 10
653.545740
 20
490.239986
 30
0.0
 11
653.545740
 21
487.039987
 31
0.0
  0
LINE
  5
230
100
AcDbEntity
  8
Calque_1
 62
1
100
AcDbLine
 10
653.545740
 20
487.039987
 30
0.0
 11
664.105734
 21
487.039987
 31
0.0
  0
LINE
  5
231
100
AcDbEntity
  8
Calque_1
 62
1
100
AcDbLine
 10
664.105734
 20
487.039987
 30
0.0
 11
664.105734
 21
490.239986
 31
0.0
  0
LINE
  5
232
100
AcDbEntity
  8
Calque_1
 62
1
100
AcDbLine
 10
664.105734
 20
490.239986
 30
0.0
 11
674.879087
 21
490.239986
 31
0.0
  0
LINE
  5
233
100
AcDbEntity
  8
Calque_1
 62
1
100
AcDbLine
 10
674.879087
 20
490.239986
 30
0.0
 11
674.879087
 21
487.039987
 31
0.0
  0
LINE
  5
234
100
AcDbEntity
  8
Calque_1
 62
1
100
AcDbLine
 10
674.879087
 20
487.039987
 30
0.0
 11
685.439080
 21
487.039987
 31
0.0
  0
LINE
  5
235
100
AcDbEntity
  8
Calque_1
 62
1
100
AcDbLine
 10
685.439080
 20
487.039987
 30
0.0
 11
685.439080
 21
490.239986
 31
0.0
  0
LINE
  5
236
100
AcDbEntity
  8
Calque_1
 62
1
100
AcDbLine
 10
685.439080
 20
490.239986
 30
0.0
 11
696.212405
 21
490.239986
 31
0.0
  0
LINE
  5
237
100
AcDbEntity
  8
Calque_1
 62
1
100
AcDbLine
 10
696.212405
 20
490.239986
 30
0.0
 11
696.212405
 21
487.039987
 31
0.0
  0
LINE
  5
238
100
AcDbEntity
  8
Calque_1
 62
1
100
AcDbLine
 10
696.212405
 20
487.039987
 30
0.0
 11
706.772399
 21
487.039987
 31
0.0
  0
LINE
  5
239
100
AcDbEntity
  8
Calque_1
 62
1
100
AcDbLine
 10
706.772399
 20
487.039987
 30
0.0
 11
706.772399
 21
490.239986
 31
0.0
  0
LINE
  5
23a
100
AcDbEntity
  8
Calque_1
 62
1
100
AcDbLine
 10
706.772399
 20
490.239986
 30
0.0
 11
717.545752
 21
490.239986
 31
0.0
  0
LINE
  5
23b
100
AcDbEntity
  8
Calque_1
 62
1
100
AcDbLine
 10
717.545752
 20
490.239986
 30
0.0
 11
717.545752
 21
487.039987
 31
0.0
  0
LINE
  5
23c
100
AcDbEntity
  8
Calque_1
 62
1
100
AcDbLine
 10
717.545752
 20
487.039987
 30
0.0
 11
728.105745
 21
487.039987
 31
0.0
  0
LINE
  5
23d
100
AcDbEntity
  8
Calque_1
 62
1
100
AcDbLine
 10
728.105745
 20
487.039987
 30
0.0
 11
728.105745
 21
490.239986
 31
0.0
  0
LINE
  5
23e
100
AcDbEntity
  8
Calque_1
 62
1
100
AcDbLine
 10
728.105745
 20
490.239986
 30
0.0
 11
738.879070
 21
490.239986
 31
0.0
  0
LINE
  5
23f
100
AcDbEntity
  8
Calque_1
 62
1
100
AcDbLine
 10
738.879070
 20
490.239986
 30
0.0
 11
738.879070
 21
487.039987
 31
0.0
  0
LINE
  5
240
100
AcDbEntity
  8
Calque_1
 62
1
100
AcDbLine
 10
738.879070
 20
487.039987
 30
0.0
 11
749.439092
 21
487.039987
 31
0.0
  0
LINE
  5
241
100
AcDbEntity
  8
Calque_1
 62
1
100
AcDbLine
 10
749.439092
 20
487.039987
 30
0.0
 11
749.439092
 21
490.239986
 31
0.0
  0
LINE
  5
242
100
AcDbEntity
  8
Calque_1
 62
1
100
AcDbLine
 10
749.439092
 20
490.239986
 30
0.0
 11
760.212417
 21
490.239986
 31
0.0
  0
LINE
  5
243
100
AcDbEntity
  8
Calque_1
 62
1
100
AcDbLine
 10
760.212417
 20
490.239986
 30
0.0
 11
760.212417
 21
487.039987
 31
0.0
  0
LINE
  5
244
100
AcDbEntity
  8
Calque_1
 62
1
100
AcDbLine
 10
760.212417
 20
487.039987
 30
0.0
 11
770.772410
 21
487.039987
 31
0.0
  0
LINE
  5
245
100
AcDbEntity
  8
Calque_1
 62
1
100
AcDbLine
 10
770.772410
 20
487.039987
 30
0.0
 11
770.772410
 21
490.239986
 31
0.0
  0
LINE
  5
246
100
AcDbEntity
  8
Calque_1
 62
1
100
AcDbLine
 10
770.772410
 20
490.239986
 30
0.0
 11
781.545736
 21
490.239986
 31
0.0
  0
LINE
  5
247
100
AcDbEntity
  8
Calque_1
 62
1
100
AcDbLine
 10
781.545736
 20
490.239986
 30
0.0
 11
781.545736
 21
487.039987
 31
0.0
  0
LINE
  5
248
100
AcDbEntity
  8
Calque_1
 62
1
100
AcDbLine
 10
781.545736
 20
487.039987
 30
0.0
 11
792.159069
 21
487.039987
 31
0.0
  0
LINE
  5
249
100
AcDbEntity
  8
Calque_1
 62
1
100
AcDbLine
 10
792.159069
 20
487.039987
 30
0.0
 11
792.159069
 21
469.564432
 31
0.0
  0
LINE
  5
24a
100
AcDbEntity
  8
Calque_1
 62
1
100
AcDbLine
 10
792.159069
 20
469.564432
 30
0.0
 11
788.959064
 21
469.564432
 31
0.0
  0
LINE
  5
24b
100
AcDbEntity
  8
Calque_1
 62
1
100
AcDbLine
 10
788.959064
 20
469.564432
 30
0.0
 11
788.959064
 21
452.248877
 31
0.0
  0
LINE
  5
24c
100
AcDbEntity
  8
Calque_1
 62
1
100
AcDbLine
 10
788.959064
 20
452.248877
 30
0.0
 11
792.159069
 21
452.248877
 31
0.0
  0
LINE
  5
24d
100
AcDbEntity
  8
Calque_1
 62
1
100
AcDbLine
 10
792.159069
 20
452.248877
 30
0.0
 11
792.159069
 21
434.773321
 31
0.0
  0
LINE
  5
24e
100
AcDbEntity
  8
Calque_1
 62
1
100
AcDbLine
 10
792.159069
 20
434.773321
 30
0.0
 11
781.545736
 21
434.773321
 31
0.0
  0
LINE
  5
24f
100
AcDbEntity
  8
Calque_1
 62
1
100
AcDbLine
 10
781.545736
 20
434.773321
 30
0.0
 11
781.545736
 21
431.573319
 31
0.0
  0
LINE
  5
250
100
AcDbEntity
  8
Calque_1
 62
1
100
AcDbLine
 10
781.545736
 20
431.573319
 30
0.0
 11
770.772410
 21
431.573319
 31
0.0
  0
LINE
  5
251
100
AcDbEntity
  8
Calque_1
 62
1
100
AcDbLine
 10
770.772410
 20
431.573319
 30
0.0
 11
770.772410
 21
434.773321
 31
0.0
  0
LINE
  5
252
100
AcDbEntity
  8
Calque_1
 62
1
100
AcDbLine
 10
770.772410
 20
434.773321
 30
0.0
 11
760.212417
 21
434.773321
 31
0.0
  0
LINE
  5
253
100
AcDbEntity
  8
Calque_1
 62
1
100
AcDbLine
 10
760.212417
 20
434.773321
 30
0.0
 11
760.212417
 21
431.573319
 31
0.0
  0
LINE
  5
254
100
AcDbEntity
  8
Calque_1
 62
1
100
AcDbLine
 10
760.212417
 20
431.573319
 30
0.0
 11
749.439092
 21
431.573319
 31
0.0
  0
LINE
  5
255
100
AcDbEntity
  8
Calque_1
 62
1
100
AcDbLine
 10
749.439092
 20
431.573319
 30
0.0
 11
749.439092
 21
434.773321
 31
0.0
  0
LINE
  5
256
100
AcDbEntity
  8
Calque_1
 62
1
100
AcDbLine
 10
749.439092
 20
434.773321
 30
0.0
 11
738.879070
 21
434.773321
 31
0.0
  0
LINE
  5
257
100
AcDbEntity
  8
Calque_1
 62
1
100
AcDbLine
 10
738.879070
 20
434.773321
 30
0.0
 11
738.879070
 21
431.573319
 31
0.0
  0
LINE
  5
258
100
AcDbEntity
  8
Calque_1
 62
1
100
AcDbLine
 10
738.879070
 20
431.573319
 30
0.0
 11
728.105745
 21
431.573319
 31
0.0
  0
LINE
  5
259
100
AcDbEntity
  8
Calque_1
 62
1
100
AcDbLine
 10
728.105745
 20
431.573319
 30
0.0
 11
728.105745
 21
434.773321
 31
0.0
  0
LINE
  5
25a
100
AcDbEntity
  8
Calque_1
 62
1
100
AcDbLine
 10
728.105745
 20
434.773321
 30
0.0
 11
717.545752
 21
434.773321
 31
0.0
  0
LINE
  5
25b
100
AcDbEntity
  8
Calque_1
 62
1
100
AcDbLine
 10
717.545752
 20
434.773321
 30
0.0
 11
717.545752
 21
431.573319
 31
0.0
  0
LINE
  5
25c
100
AcDbEntity
  8
Calque_1
 62
1
100
AcDbLine
 10
717.545752
 20
431.573319
 30
0.0
 11
706.772399
 21
431.573319
 31
0.0
  0
LINE
  5
25d
100
AcDbEntity
  8
Calque_1
 62
1
100
AcDbLine
 10
706.772399
 20
431.573319
 30
0.0
 11
706.772399
 21
434.773321
 31
0.0
  0
LINE
  5
25e
100
AcDbEntity
  8
Calque_1
 62
1
100
AcDbLine
 10
706.772399
 20
434.773321
 30
0.0
 11
696.212405
 21
434.773321
 31
0.0
  0
LINE
  5
25f
100
AcDbEntity
  8
Calque_1
 62
1
100
AcDbLine
 10
696.212405
 20
434.773321
 30
0.0
 11
696.212405
 21
431.573319
 31
0.0
  0
LINE
  5
260
100
AcDbEntity
  8
Calque_1
 62
1
100
AcDbLine
 10
696.212405
 20
431.573319
 30
0.0
 11
685.439080
 21
431.573319
 31
0.0
  0
LINE
  5
261
100
AcDbEntity
  8
Calque_1
 62
1
100
AcDbLine
 10
685.439080
 20
431.573319
 30
0.0
 11
685.439080
 21
434.773321
 31
0.0
  0
LINE
  5
262
100
AcDbEntity
  8
Calque_1
 62
1
100
AcDbLine
 10
685.439080
 20
434.773321
 30
0.0
 11
674.879087
 21
434.773321
 31
0.0
  0
LINE
  5
263
100
AcDbEntity
  8
Calque_1
 62
1
100
AcDbLine
 10
674.879087
 20
434.773321
 30
0.0
 11
674.879087
 21
431.573319
 31
0.0
  0
LINE
  5
264
100
AcDbEntity
  8
Calque_1
 62
1
100
AcDbLine
 10
674.879087
 20
431.573319
 30
0.0
 11
664.105734
 21
431.573319
 31
0.0
  0
LINE
  5
265
100
AcDbEntity
  8
Calque_1
 62
1
100
AcDbLine
 10
664.105734
 20
431.573319
 30
0.0
 11
664.105734
 21
434.773321
 31
0.0
  0
LINE
  5
266
100
AcDbEntity
  8
Calque_1
 62
1
100
AcDbLine
 10
664.105734
 20
434.773321
 30
0.0
 11
653.545740
 21
434.773321
 31
0.0
  0
LINE
  5
267
100
AcDbEntity
  8
Calque_1
 62
1
100
AcDbLine
 10
653.545740
 20
434.773321
 30
0.0
 11
653.545740
 21
431.573319
 31
0.0
  0
LINE
  5
268
100
AcDbEntity
  8
Calque_1
 62
1
100
AcDbLine
 10
653.545740
 20
431.573319
 30
0.0
 11
642.772415
 21
431.573319
 31
0.0
  0
LINE
  5
269
100
AcDbEntity
  8
Calque_1
 62
1
100
AcDbLine
 10
642.772415
 20
431.573319
 30
0.0
 11
642.772415
 21
434.773321
 31
0.0
  0
LINE
  5
26a
100
AcDbEntity
  8
Calque_1
 62
1
100
AcDbLine
 10
642.772415
 20
434.773321
 30
0.0
 11
632.159082
 21
434.773321
 31
0.0
  0
LINE
  5
26b
100
AcDbEntity
  8
Calque_1
 62
1
100
AcDbLine
 10
632.159082
 20
434.773321
 30
0.0
 11
632.159082
 21
452.248877
 31
0.0
  0
LINE
  5
26c
100
AcDbEntity
  8
Calque_1
 62
1
100
AcDbLine
 10
632.159082
 20
452.248877
 30
0.0
 11
635.359087
 21
452.248877
 31
0.0
  0
LINE
  5
26d
100
AcDbEntity
  8
Calque_1
 62
1
100
AcDbLine
 10
635.359087
 20
452.248877
 30
0.0
 11
635.359087
 21
469.564432
 31
0.0
  0
LINE
  5
26e
100
AcDbEntity
  8
Calque_1
 62
1
100
AcDbLine
 10
635.359087
 20
469.564432
 30
0.0
 11
632.159082
 21
469.564432
 31
0.0
  0
LINE
  5
26f
100
AcDbEntity
  8
Calque_1
 62
1
100
AcDbLine
 10
632.159082
 20
469.564432
 30
0.0
 11
632.159082
 21
487.039987
 31
0.0
  0
LINE
  5
270
100
AcDbEntity
  8
Calque_1
 62
1
100
AcDbLine
 10
798.559107
 20
425.173349
 30
0.0
 11
805.972435
 21
425.173349
 31
0.0
  0
LINE
  5
271
100
AcDbEntity
  8
Calque_1
 62
1
100
AcDbLine
 10
805.972435
 20
425.173349
 30
0.0
 11
805.972435
 21
428.373348
 31
0.0
  0
LINE
  5
272
100
AcDbEntity
  8
Calque_1
 62
1
100
AcDbLine
 10
805.972435
 20
428.373348
 30
0.0
 11
816.745760
 21
428.373348
 31
0.0
  0
LINE
  5
273
100
AcDbEntity
  8
Calque_1
 62
1
100
AcDbLine
 10
816.745760
 20
428.373348
 30
0.0
 11
816.745760
 21
425.173349
 31
0.0
  0
LINE
  5
274
100
AcDbEntity
  8
Calque_1
 62
1
100
AcDbLine
 10
816.745760
 20
425.173349
 30
0.0
 11
827.305754
 21
425.173349
 31
0.0
  0
LINE
  5
275
100
AcDbEntity
  8
Calque_1
 62
1
100
AcDbLine
 10
827.305754
 20
425.173349
 30
0.0
 11
827.305754
 21
428.373348
 31
0.0
  0
LINE
  5
276
100
AcDbEntity
  8
Calque_1
 62
1
100
AcDbLine
 10
827.305754
 20
428.373348
 30
0.0
 11
838.079107
 21
428.373348
 31
0.0
  0
LINE
  5
277
100
AcDbEntity
  8
Calque_1
 62
1
100
AcDbLine
 10
838.079107
 20
428.373348
 30
0.0
 11
838.079107
 21
425.173349
 31
0.0
  0
LINE
  5
278
100
AcDbEntity
  8
Calque_1
 62
1
100
AcDbLine
 10
838.079107
 20
425.173349
 30
0.0
 11
848.639100
 21
425.173349
 31
0.0
  0
LINE
  5
279
100
AcDbEntity
  8
Calque_1
 62
1
100
AcDbLine
 10
848.639100
 20
425.173349
 30
0.0
 11
848.639100
 21
428.373348
 31
0.0
  0
LINE
  5
27a
100
AcDbEntity
  8
Calque_1
 62
1
100
AcDbLine
 10
848.639100
 20
428.373348
 30
0.0
 11
859.412426
 21
428.373348
 31
0.0
  0
LINE
  5
27b
100
AcDbEntity
  8
Calque_1
 62
1
100
AcDbLine
 10
859.412426
 20
428.373348
 30
0.0
 11
859.412426
 21
425.173349
 31
0.0
  0
LINE
  5
27c
100
AcDbEntity
  8
Calque_1
 62
1
100
AcDbLine
 10
859.412426
 20
425.173349
 30
0.0
 11
869.972419
 21
425.173349
 31
0.0
  0
LINE
  5
27d
100
AcDbEntity
  8
Calque_1
 62
1
100
AcDbLine
 10
869.972419
 20
425.173349
 30
0.0
 11
869.972419
 21
428.373348
 31
0.0
  0
LINE
  5
27e
100
AcDbEntity
  8
Calque_1
 62
1
100
AcDbLine
 10
869.972419
 20
428.373348
 30
0.0
 11
880.745772
 21
428.373348
 31
0.0
  0
LINE
  5
27f
100
AcDbEntity
  8
Calque_1
 62
1
100
AcDbLine
 10
880.745772
 20
428.373348
 30
0.0
 11
880.745772
 21
425.173349
 31
0.0
  0
LINE
  5
280
100
AcDbEntity
  8
Calque_1
 62
1
100
AcDbLine
 10
880.745772
 20
425.173349
 30
0.0
 11
891.305766
 21
425.173349
 31
0.0
  0
LINE
  5
281
100
AcDbEntity
  8
Calque_1
 62
1
100
AcDbLine
 10
891.305766
 20
425.173349
 30
0.0
 11
891.305766
 21
428.373348
 31
0.0
  0
LINE
  5
282
100
AcDbEntity
  8
Calque_1
 62
1
100
AcDbLine
 10
891.305766
 20
428.373348
 30
0.0
 11
902.079091
 21
428.373348
 31
0.0
  0
LINE
  5
283
100
AcDbEntity
  8
Calque_1
 62
1
100
AcDbLine
 10
902.079091
 20
428.373348
 30
0.0
 11
902.079091
 21
425.173349
 31
0.0
  0
LINE
  5
284
100
AcDbEntity
  8
Calque_1
 62
1
100
AcDbLine
 10
902.079091
 20
425.173349
 30
0.0
 11
912.639112
 21
425.173349
 31
0.0
  0
LINE
  5
285
100
AcDbEntity
  8
Calque_1
 62
1
100
AcDbLine
 10
912.639112
 20
425.173349
 30
0.0
 11
912.639112
 21
428.373348
 31
0.0
  0
LINE
  5
286
100
AcDbEntity
  8
Calque_1
 62
1
100
AcDbLine
 10
912.639112
 20
428.373348
 30
0.0
 11
923.412437
 21
428.373348
 31
0.0
  0
LINE
  5
287
100
AcDbEntity
  8
Calque_1
 62
1
100
AcDbLine
 10
923.412437
 20
428.373348
 30
0.0
 11
923.412437
 21
425.173349
 31
0.0
  0
LINE
  5
288
100
AcDbEntity
  8
Calque_1
 62
1
100
AcDbLine
 10
923.412437
 20
425.173349
 30
0.0
 11
933.972431
 21
425.173349
 31
0.0
  0
LINE
  5
289
100
AcDbEntity
  8
Calque_1
 62
1
100
AcDbLine
 10
933.972431
 20
425.173349
 30
0.0
 11
933.972431
 21
428.373348
 31
0.0
  0
LINE
  5
28a
100
AcDbEntity
  8
Calque_1
 62
1
100
AcDbLine
 10
933.972431
 20
428.373348
 30
0.0
 11
944.745756
 21
428.373348
 31
0.0
  0
LINE
  5
28b
100
AcDbEntity
  8
Calque_1
 62
1
100
AcDbLine
 10
944.745756
 20
428.373348
 30
0.0
 11
944.745756
 21
425.173349
 31
0.0
  0
LINE
  5
28c
100
AcDbEntity
  8
Calque_1
 62
1
100
AcDbLine
 10
944.745756
 20
425.173349
 30
0.0
 11
952.159084
 21
425.173349
 31
0.0
  0
LINE
  5
28d
100
AcDbEntity
  8
Calque_1
 62
1
100
AcDbLine
 10
952.159084
 20
425.173349
 30
0.0
 11
952.159084
 21
407.804460
 31
0.0
  0
LINE
  5
28e
100
AcDbEntity
  8
Calque_1
 62
1
100
AcDbLine
 10
952.159084
 20
407.804460
 30
0.0
 11
955.359089
 21
407.804460
 31
0.0
  0
LINE
  5
28f
100
AcDbEntity
  8
Calque_1
 62
1
100
AcDbLine
 10
955.359089
 20
407.804460
 30
0.0
 11
955.359089
 21
390.275570
 31
0.0
  0
LINE
  5
290
100
AcDbEntity
  8
Calque_1
 62
1
100
AcDbLine
 10
955.359089
 20
390.275570
 30
0.0
 11
952.159084
 21
390.275570
 31
0.0
  0
LINE
  5
291
100
AcDbEntity
  8
Calque_1
 62
1
100
AcDbLine
 10
952.159084
 20
390.275570
 30
0.0
 11
952.159084
 21
372.906685
 31
0.0
  0
LINE
  5
292
100
AcDbEntity
  8
Calque_1
 62
1
100
AcDbLine
 10
952.159084
 20
372.906685
 30
0.0
 11
944.745756
 21
372.906685
 31
0.0
  0
LINE
  5
293
100
AcDbEntity
  8
Calque_1
 62
1
100
AcDbLine
 10
944.745756
 20
372.906685
 30
0.0
 11
944.745756
 21
369.706683
 31
0.0
  0
LINE
  5
294
100
AcDbEntity
  8
Calque_1
 62
1
100
AcDbLine
 10
944.745756
 20
369.706683
 30
0.0
 11
933.972431
 21
369.706683
 31
0.0
  0
LINE
  5
295
100
AcDbEntity
  8
Calque_1
 62
1
100
AcDbLine
 10
933.972431
 20
369.706683
 30
0.0
 11
933.972431
 21
372.906685
 31
0.0
  0
LINE
  5
296
100
AcDbEntity
  8
Calque_1
 62
1
100
AcDbLine
 10
933.972431
 20
372.906685
 30
0.0
 11
923.412437
 21
372.906685
 31
0.0
  0
LINE
  5
297
100
AcDbEntity
  8
Calque_1
 62
1
100
AcDbLine
 10
923.412437
 20
372.906685
 30
0.0
 11
923.412437
 21
369.706683
 31
0.0
  0
LINE
  5
298
100
AcDbEntity
  8
Calque_1
 62
1
100
AcDbLine
 10
923.412437
 20
369.706683
 30
0.0
 11
912.639112
 21
369.706683
 31
0.0
  0
LINE
  5
299
100
AcDbEntity
  8
Calque_1
 62
1
100
AcDbLine
 10
912.639112
 20
369.706683
 30
0.0
 11
912.639112
 21
372.906685
 31
0.0
  0
LINE
  5
29a
100
AcDbEntity
  8
Calque_1
 62
1
100
AcDbLine
 10
912.639112
 20
372.906685
 30
0.0
 11
902.079091
 21
372.906685
 31
0.0
  0
LINE
  5
29b
100
AcDbEntity
  8
Calque_1
 62
1
100
AcDbLine
 10
902.079091
 20
372.906685
 30
0.0
 11
902.079091
 21
369.706683
 31
0.0
  0
LINE
  5
29c
100
AcDbEntity
  8
Calque_1
 62
1
100
AcDbLine
 10
902.079091
 20
369.706683
 30
0.0
 11
891.305766
 21
369.706683
 31
0.0
  0
LINE
  5
29d
100
AcDbEntity
  8
Calque_1
 62
1
100
AcDbLine
 10
891.305766
 20
369.706683
 30
0.0
 11
891.305766
 21
372.906685
 31
0.0
  0
LINE
  5
29e
100
AcDbEntity
  8
Calque_1
 62
1
100
AcDbLine
 10
891.305766
 20
372.906685
 30
0.0
 11
880.745772
 21
372.906685
 31
0.0
  0
LINE
  5
29f
100
AcDbEntity
  8
Calque_1
 62
1
100
AcDbLine
 10
880.745772
 20
372.906685
 30
0.0
 11
880.745772
 21
369.706683
 31
0.0
  0
LINE
  5
2a0
100
AcDbEntity
  8
Calque_1
 62
1
100
AcDbLine
 10
880.745772
 20
369.706683
 30
0.0
 11
869.972419
 21
369.706683
 31
0.0
  0
LINE
  5
2a1
100
AcDbEntity
  8
Calque_1
 62
1
100
AcDbLine
 10
869.972419
 20
369.706683
 30
0.0
 11
869.972419
 21
372.906685
 31
0.0
  0
LINE
  5
2a2
100
AcDbEntity
  8
Calque_1
 62
1
100
AcDbLine
 10
869.972419
 20
372.906685
 30
0.0
 11
859.412426
 21
372.906685
 31
0.0
  0
LINE
  5
2a3
100
AcDbEntity
  8
Calque_1
 62
1
100
AcDbLine
 10
859.412426
 20
372.906685
 30
0.0
 11
859.412426
 21
369.706683
 31
0.0
  0
LINE
  5
2a4
100
AcDbEntity
  8
Calque_1
 62
1
100
AcDbLine
 10
859.412426
 20
369.706683
 30
0.0
 11
848.639100
 21
369.706683
 31
0.0
  0
LINE
  5
2a5
100
AcDbEntity
  8
Calque_1
 62
1
100
AcDbLine
 10
848.639100
 20
369.706683
 30
0.0
 11
848.639100
 21
372.906685
 31
0.0
  0
LINE
  5
2a6
100
AcDbEntity
  8
Calque_1
 62
1
100
AcDbLine
 10
848.639100
 20
372.906685
 30
0.0
 11
838.079107
 21
372.906685
 31
0.0
  0
LINE
  5
2a7
100
AcDbEntity
  8
Calque_1
 62
1
100
AcDbLine
 10
838.079107
 20
372.906685
 30
0.0
 11
838.079107
 21
369.706683
 31
0.0
  0
LINE
  5
2a8
100
AcDbEntity
  8
Calque_1
 62
1
100
AcDbLine
 10
838.079107
 20
369.706683
 30
0.0
 11
827.305754
 21
369.706683
 31
0.0
  0
LINE
  5
2a9
100
AcDbEntity
  8
Calque_1
 62
1
100
AcDbLine
 10
827.305754
 20
369.706683
 30
0.0
 11
827.305754
 21
372.906685
 31
0.0
  0
LINE
  5
2aa
100
AcDbEntity
  8
Calque_1
 62
1
100
AcDbLine
 10
827.305754
 20
372.906685
 30
0.0
 11
816.745760
 21
372.906685
 31
0.0
  0
LINE
  5
2ab
100
AcDbEntity
  8
Calque_1
 62
1
100
AcDbLine
 10
816.745760
 20
372.906685
 30
0.0
 11
816.745760
 21
369.706683
 31
0.0
  0
LINE
  5
2ac
100
AcDbEntity
  8
Calque_1
 62
1
100
AcDbLine
 10
816.745760
 20
369.706683
 30
0.0
 11
805.972435
 21
369.706683
 31
0.0
  0
LINE
  5
2ad
100
AcDbEntity
  8
Calque_1
 62
1
100
AcDbLine
 10
805.972435
 20
369.706683
 30
0.0
 11
805.972435
 21
372.906685
 31
0.0
  0
LINE
  5
2ae
100
AcDbEntity
  8
Calque_1
 62
1
100
AcDbLine
 10
805.972435
 20
372.906685
 30
0.0
 11
798.559107
 21
372.906685
 31
0.0
  0
LINE
  5
2af
100
AcDbEntity
  8
Calque_1
 62
1
100
AcDbLine
 10
798.559107
 20
372.906685
 30
0.0
 11
798.559107
 21
390.275570
 31
0.0
  0
LINE
  5
2b0
100
AcDbEntity
  8
Calque_1
 62
1
100
AcDbLine
 10
798.559107
 20
390.275570
 30
0.0
 11
795.359102
 21
390.275570
 31
0.0
  0
LINE
  5
2b1
100
AcDbEntity
  8
Calque_1
 62
1
100
AcDbLine
 10
795.359102
 20
390.275570
 30
0.0
 11
795.359102
 21
407.804460
 31
0.0
  0
LINE
  5
2b2
100
AcDbEntity
  8
Calque_1
 62
1
100
AcDbLine
 10
795.359102
 20
407.804460
 30
0.0
 11
798.559107
 21
407.804460
 31
0.0
  0
LINE
  5
2b3
100
AcDbEntity
  8
Calque_1
 62
1
100
AcDbLine
 10
798.559107
 20
407.804460
 30
0.0
 11
798.559107
 21
425.173349
 31
0.0
  0
LINE
  5
2b4
100
AcDbEntity
  8
Calque_1
 62
1
100
AcDbLine
 10
635.359115
 20
425.173349
 30
0.0
 11
642.772443
 21
425.173349
 31
0.0
  0
LINE
  5
2b5
100
AcDbEntity
  8
Calque_1
 62
1
100
AcDbLine
 10
642.772443
 20
425.173349
 30
0.0
 11
642.772443
 21
428.373348
 31
0.0
  0
LINE
  5
2b6
100
AcDbEntity
  8
Calque_1
 62
1
100
AcDbLine
 10
642.772443
 20
428.373348
 30
0.0
 11
653.545768
 21
428.373348
 31
0.0
  0
LINE
  5
2b7
100
AcDbEntity
  8
Calque_1
 62
1
100
AcDbLine
 10
653.545768
 20
428.373348
 30
0.0
 11
653.545768
 21
425.173349
 31
0.0
  0
LINE
  5
2b8
100
AcDbEntity
  8
Calque_1
 62
1
100
AcDbLine
 10
653.545768
 20
425.173349
 30
0.0
 11
664.105762
 21
425.173349
 31
0.0
  0
LINE
  5
2b9
100
AcDbEntity
  8
Calque_1
 62
1
100
AcDbLine
 10
664.105762
 20
425.173349
 30
0.0
 11
664.105762
 21
428.373348
 31
0.0
  0
LINE
  5
2ba
100
AcDbEntity
  8
Calque_1
 62
1
100
AcDbLine
 10
664.105762
 20
428.373348
 30
0.0
 11
674.879115
 21
428.373348
 31
0.0
  0
LINE
  5
2bb
100
AcDbEntity
  8
Calque_1
 62
1
100
AcDbLine
 10
674.879115
 20
428.373348
 30
0.0
 11
674.879115
 21
425.173349
 31
0.0
  0
LINE
  5
2bc
100
AcDbEntity
  8
Calque_1
 62
1
100
AcDbLine
 10
674.879115
 20
425.173349
 30
0.0
 11
685.439108
 21
425.173349
 31
0.0
  0
LINE
  5
2bd
100
AcDbEntity
  8
Calque_1
 62
1
100
AcDbLine
 10
685.439108
 20
425.173349
 30
0.0
 11
685.439108
 21
428.373348
 31
0.0
  0
LINE
  5
2be
100
AcDbEntity
  8
Calque_1
 62
1
100
AcDbLine
 10
685.439108
 20
428.373348
 30
0.0
 11
696.212434
 21
428.373348
 31
0.0
  0
LINE
  5
2bf
100
AcDbEntity
  8
Calque_1
 62
1
100
AcDbLine
 10
696.212434
 20
428.373348
 30
0.0
 11
696.212434
 21
425.173349
 31
0.0
  0
LINE
  5
2c0
100
AcDbEntity
  8
Calque_1
 62
1
100
AcDbLine
 10
696.212434
 20
425.173349
 30
0.0
 11
706.772427
 21
425.173349
 31
0.0
  0
LINE
  5
2c1
100
AcDbEntity
  8
Calque_1
 62
1
100
AcDbLine
 10
706.772427
 20
425.173349
 30
0.0
 11
706.772427
 21
428.373348
 31
0.0
  0
LINE
  5
2c2
100
AcDbEntity
  8
Calque_1
 62
1
100
AcDbLine
 10
706.772427
 20
428.373348
 30
0.0
 11
717.545780
 21
428.373348
 31
0.0
  0
LINE
  5
2c3
100
AcDbEntity
  8
Calque_1
 62
1
100
AcDbLine
 10
717.545780
 20
428.373348
 30
0.0
 11
717.545780
 21
425.173349
 31
0.0
  0
LINE
  5
2c4
100
AcDbEntity
  8
Calque_1
 62
1
100
AcDbLine
 10
717.545780
 20
425.173349
 30
0.0
 11
728.105774
 21
425.173349
 31
0.0
  0
LINE
  5
2c5
100
AcDbEntity
  8
Calque_1
 62
1
100
AcDbLine
 10
728.105774
 20
425.173349
 30
0.0
 11
728.105774
 21
428.373348
 31
0.0
  0
LINE
  5
2c6
100
AcDbEntity
  8
Calque_1
 62
1
100
AcDbLine
 10
728.105774
 20
428.373348
 30
0.0
 11
738.879099
 21
428.373348
 31
0.0
  0
LINE
  5
2c7
100
AcDbEntity
  8
Calque_1
 62
1
100
AcDbLine
 10
738.879099
 20
428.373348
 30
0.0
 11
738.879099
 21
425.173349
 31
0.0
  0
LINE
  5
2c8
100
AcDbEntity
  8
Calque_1
 62
1
100
AcDbLine
 10
738.879099
 20
425.173349
 30
0.0
 11
749.439120
 21
425.173349
 31
0.0
  0
LINE
  5
2c9
100
AcDbEntity
  8
Calque_1
 62
1
100
AcDbLine
 10
749.439120
 20
425.173349
 30
0.0
 11
749.439120
 21
428.373348
 31
0.0
  0
LINE
  5
2ca
100
AcDbEntity
  8
Calque_1
 62
1
100
AcDbLine
 10
749.439120
 20
428.373348
 30
0.0
 11
760.212445
 21
428.373348
 31
0.0
  0
LINE
  5
2cb
100
AcDbEntity
  8
Calque_1
 62
1
100
AcDbLine
 10
760.212445
 20
428.373348
 30
0.0
 11
760.212445
 21
425.173349
 31
0.0
  0
LINE
  5
2cc
100
AcDbEntity
  8
Calque_1
 62
1
100
AcDbLine
 10
760.212445
 20
425.173349
 30
0.0
 11
770.772439
 21
425.173349
 31
0.0
  0
LINE
  5
2cd
100
AcDbEntity
  8
Calque_1
 62
1
100
AcDbLine
 10
770.772439
 20
425.173349
 30
0.0
 11
770.772439
 21
428.373348
 31
0.0
  0
LINE
  5
2ce
100
AcDbEntity
  8
Calque_1
 62
1
100
AcDbLine
 10
770.772439
 20
428.373348
 30
0.0
 11
781.545764
 21
428.373348
 31
0.0
  0
LINE
  5
2cf
100
AcDbEntity
  8
Calque_1
 62
1
100
AcDbLine
 10
781.545764
 20
428.373348
 30
0.0
 11
781.545764
 21
425.173349
 31
0.0
  0
LINE
  5
2d0
100
AcDbEntity
  8
Calque_1
 62
1
100
AcDbLine
 10
781.545764
 20
425.173349
 30
0.0
 11
788.959092
 21
425.173349
 31
0.0
  0
LINE
  5
2d1
100
AcDbEntity
  8
Calque_1
 62
1
100
AcDbLine
 10
788.959092
 20
425.173349
 30
0.0
 11
788.959092
 21
407.804460
 31
0.0
  0
LINE
  5
2d2
100
AcDbEntity
  8
Calque_1
 62
1
100
AcDbLine
 10
788.959092
 20
407.804460
 30
0.0
 11
792.159097
 21
407.804460
 31
0.0
  0
LINE
  5
2d3
100
AcDbEntity
  8
Calque_1
 62
1
100
AcDbLine
 10
792.159097
 20
407.804460
 30
0.0
 11
792.159097
 21
390.275570
 31
0.0
  0
LINE
  5
2d4
100
AcDbEntity
  8
Calque_1
 62
1
100
AcDbLine
 10
792.159097
 20
390.275570
 30
0.0
 11
788.959092
 21
390.275570
 31
0.0
  0
LINE
  5
2d5
100
AcDbEntity
  8
Calque_1
 62
1
100
AcDbLine
 10
788.959092
 20
390.275570
 30
0.0
 11
788.959092
 21
372.906685
 31
0.0
  0
LINE
  5
2d6
100
AcDbEntity
  8
Calque_1
 62
1
100
AcDbLine
 10
788.959092
 20
372.906685
 30
0.0
 11
781.545764
 21
372.906685
 31
0.0
  0
LINE
  5
2d7
100
AcDbEntity
  8
Calque_1
 62
1
100
AcDbLine
 10
781.545764
 20
372.906685
 30
0.0
 11
781.545764
 21
369.706683
 31
0.0
  0
LINE
  5
2d8
100
AcDbEntity
  8
Calque_1
 62
1
100
AcDbLine
 10
781.545764
 20
369.706683
 30
0.0
 11
770.772439
 21
369.706683
 31
0.0
  0
LINE
  5
2d9
100
AcDbEntity
  8
Calque_1
 62
1
100
AcDbLine
 10
770.772439
 20
369.706683
 30
0.0
 11
770.772439
 21
372.906685
 31
0.0
  0
LINE
  5
2da
100
AcDbEntity
  8
Calque_1
 62
1
100
AcDbLine
 10
770.772439
 20
372.906685
 30
0.0
 11
760.212445
 21
372.906685
 31
0.0
  0
LINE
  5
2db
100
AcDbEntity
  8
Calque_1
 62
1
100
AcDbLine
 10
760.212445
 20
372.906685
 30
0.0
 11
760.212445
 21
369.706683
 31
0.0
  0
LINE
  5
2dc
100
AcDbEntity
  8
Calque_1
 62
1
100
AcDbLine
 10
760.212445
 20
369.706683
 30
0.0
 11
749.439120
 21
369.706683
 31
0.0
  0
LINE
  5
2dd
100
AcDbEntity
  8
Calque_1
 62
1
100
AcDbLine
 10
749.439120
 20
369.706683
 30
0.0
 11
749.439120
 21
372.906685
 31
0.0
  0
LINE
  5
2de
100
AcDbEntity
  8
Calque_1
 62
1
100
AcDbLine
 10
749.439120
 20
372.906685
 30
0.0
 11
738.879099
 21
372.906685
 31
0.0
  0
LINE
  5
2df
100
AcDbEntity
  8
Calque_1
 62
1
100
AcDbLine
 10
738.879099
 20
372.906685
 30
0.0
 11
738.879099
 21
369.706683
 31
0.0
  0
LINE
  5
2e0
100
AcDbEntity
  8
Calque_1
 62
1
100
AcDbLine
 10
738.879099
 20
369.706683
 30
0.0
 11
728.105774
 21
369.706683
 31
0.0
  0
LINE
  5
2e1
100
AcDbEntity
  8
Calque_1
 62
1
100
AcDbLine
 10
728.105774
 20
369.706683
 30
0.0
 11
728.105774
 21
372.906685
 31
0.0
  0
LINE
  5
2e2
100
AcDbEntity
  8
Calque_1
 62
1
100
AcDbLine
 10
728.105774
 20
372.906685
 30
0.0
 11
717.545780
 21
372.906685
 31
0.0
  0
LINE
  5
2e3
100
AcDbEntity
  8
Calque_1
 62
1
100
AcDbLine
 10
717.545780
 20
372.906685
 30
0.0
 11
717.545780
 21
369.706683
 31
0.0
  0
LINE
  5
2e4
100
AcDbEntity
  8
Calque_1
 62
1
100
AcDbLine
 10
717.545780
 20
369.706683
 30
0.0
 11
706.772427
 21
369.706683
 31
0.0
  0
LINE
  5
2e5
100
AcDbEntity
  8
Calque_1
 62
1
100
AcDbLine
 10
706.772427
 20
369.706683
 30
0.0
 11
706.772427
 21
372.906685
 31
0.0
  0
LINE
  5
2e6
100
AcDbEntity
  8
Calque_1
 62
1
100
AcDbLine
 10
706.772427
 20
372.906685
 30
0.0
 11
696.212434
 21
372.906685
 31
0.0
  0
LINE
  5
2e7
100
AcDbEntity
  8
Calque_1
 62
1
100
AcDbLine
 10
696.212434
 20
372.906685
 30
0.0
 11
696.212434
 21
369.706683
 31
0.0
  0
LINE
  5
2e8
100
AcDbEntity
  8
Calque_1
 62
1
100
AcDbLine
 10
696.212434
 20
369.706683
 30
0.0
 11
685.439108
 21
369.706683
 31
0.0
  0
LINE
  5
2e9
100
AcDbEntity
  8
Calque_1
 62
1
100
AcDbLine
 10
685.439108
 20
369.706683
 30
0.0
 11
685.439108
 21
372.906685
 31
0.0
  0
LINE
  5
2ea
100
AcDbEntity
  8
Calque_1
 62
1
100
AcDbLine
 10
685.439108
 20
372.906685
 30
0.0
 11
674.879115
 21
372.906685
 31
0.0
  0
LINE
  5
2eb
100
AcDbEntity
  8
Calque_1
 62
1
100
AcDbLine
 10
674.879115
 20
372.906685
 30
0.0
 11
674.879115
 21
369.706683
 31
0.0
  0
LINE
  5
2ec
100
AcDbEntity
  8
Calque_1
 62
1
100
AcDbLine
 10
674.879115
 20
369.706683
 30
0.0
 11
664.105762
 21
369.706683
 31
0.0
  0
LINE
  5
2ed
100
AcDbEntity
  8
Calque_1
 62
1
100
AcDbLine
 10
664.105762
 20
369.706683
 30
0.0
 11
664.105762
 21
372.906685
 31
0.0
  0
LINE
  5
2ee
100
AcDbEntity
  8
Calque_1
 62
1
100
AcDbLine
 10
664.105762
 20
372.906685
 30
0.0
 11
653.545768
 21
372.906685
 31
0.0
  0
LINE
  5
2ef
100
AcDbEntity
  8
Calque_1
 62
1
100
AcDbLine
 10
653.545768
 20
372.906685
 30
0.0
 11
653.545768
 21
369.706683
 31
0.0
  0
LINE
  5
2f0
100
AcDbEntity
  8
Calque_1
 62
1
100
AcDbLine
 10
653.545768
 20
369.706683
 30
0.0
 11
642.772443
 21
369.706683
 31
0.0
  0
LINE
  5
2f1
100
AcDbEntity
  8
Calque_1
 62
1
100
AcDbLine
 10
642.772443
 20
369.706683
 30
0.0
 11
642.772443
 21
372.906685
 31
0.0
  0
LINE
  5
2f2
100
AcDbEntity
  8
Calque_1
 62
1
100
AcDbLine
 10
642.772443
 20
372.906685
 30
0.0
 11
635.359115
 21
372.906685
 31
0.0
  0
LINE
  5
2f3
100
AcDbEntity
  8
Calque_1
 62
1
100
AcDbLine
 10
635.359115
 20
372.906685
 30
0.0
 11
635.359115
 21
390.275570
 31
0.0
  0
LINE
  5
2f4
100
AcDbEntity
  8
Calque_1
 62
1
100
AcDbLine
 10
635.359115
 20
390.275570
 30
0.0
 11
632.159110
 21
390.275570
 31
0.0
  0
LINE
  5
2f5
100
AcDbEntity
  8
Calque_1
 62
1
100
AcDbLine
 10
632.159110
 20
390.275570
 30
0.0
 11
632.159110
 21
407.804460
 31
0.0
  0
LINE
  5
2f6
100
AcDbEntity
  8
Calque_1
 62
1
100
AcDbLine
 10
632.159110
 20
407.804460
 30
0.0
 11
635.359115
 21
407.804460
 31
0.0
  0
LINE
  5
2f7
100
AcDbEntity
  8
Calque_1
 62
1
100
AcDbLine
 10
635.359115
 20
407.804460
 30
0.0
 11
635.359115
 21
425.173349
 31
0.0
  0
SPLINE
  5
2f8
100
AcDbEntity
  8
Calque_1
 62
1
100
AcDbSpline
 70
8
 71
3
 72
8
 73
4
 74
0
 40
0
 40
0
 40
0
 40
0
 40
1
 40
1
 40
1
 40
1
 10
692.728414
 20
613.604111
 30
0.0
 10
692.728419
 20
612.967591
 30
0.0
 10
692.478748
 20
612.357139
 30
0.0
 10
692.034325
 20
611.907048
 30
0.0
  0
SPLINE
  5
2f9
100
AcDbEntity
  8
Calque_1
 62
1
100
AcDbSpline
 70
8
 71
3
 72
8
 73
4
 74
0
 40
0
 40
0
 40
0
 40
0
 40
1
 40
1
 40
1
 40
1
 10
692.034325
 20
611.907048
 30
0.0
 10
691.589903
 20
611.456957
 30
0.0
 10
690.987135
 20
611.204097
 30
0.0
 10
690.358623
 20
611.204094
 30
0.0
  0
SPLINE
  5
2fa
100
AcDbEntity
  8
Calque_1
 62
1
100
AcDbSpline
 70
8
 71
3
 72
8
 73
4
 74
0
 40
0
 40
0
 40
0
 40
0
 40
1
 40
1
 40
1
 40
1
 10
690.358623
 20
611.204094
 30
0.0
 10
689.730106
 20
611.204089
 30
0.0
 10
689.127330
 20
611.456946
 30
0.0
 10
688.682902
 20
611.907038
 30
0.0
  0
SPLINE
  5
2fb
100
AcDbEntity
  8
Calque_1
 62
1
100
AcDbSpline
 70
8
 71
3
 72
8
 73
4
 74
0
 40
0
 40
0
 40
0
 40
0
 40
1
 40
1
 40
1
 40
1
 10
688.682902
 20
611.907038
 30
0.0
 10
688.238473
 20
612.357129
 30
0.0
 10
687.988798
 20
612.967586
 30
0.0
 10
687.988803
 20
613.604111
 30
0.0
  0
SPLINE
  5
2fc
100
AcDbEntity
  8
Calque_1
 62
1
100
AcDbSpline
 70
8
 71
3
 72
8
 73
4
 74
0
 40
0
 40
0
 40
0
 40
0
 40
1
 40
1
 40
1
 40
1
 10
687.988803
 20
613.604111
 30
0.0
 10
687.988805
 20
614.240632
 30
0.0
 10
688.238484
 20
614.851081
 30
0.0
 10
688.682912
 20
615.301167
 30
0.0
  0
SPLINE
  5
2fd
100
AcDbEntity
  8
Calque_1
 62
1
100
AcDbSpline
 70
8
 71
3
 72
8
 73
4
 74
0
 40
0
 40
0
 40
0
 40
0
 40
1
 40
1
 40
1
 40
1
 10
688.682912
 20
615.301167
 30
0.0
 10
689.127339
 20
615.751252
 30
0.0
 10
689.730111
 20
616.004105
 30
0.0
 10
690.358623
 20
616.004101
 30
0.0
  0
SPLINE
  5
2fe
100
AcDbEntity
  8
Calque_1
 62
1
100
AcDbSpline
 70
8
 71
3
 72
8
 73
4
 74
0
 40
0
 40
0
 40
0
 40
0
 40
1
 40
1
 40
1
 40
1
 10
690.358623
 20
616.004101
 30
0.0
 10
691.667420
 20
616.004094
 30
0.0
 10
692.728409
 20
614.929586
 30
0.0
 10
692.728414
 20
613.604111
 30
0.0
  0
LINE
  5
2ff
100
AcDbEntity
  8
Calque_1
 62
1
100
AcDbLine
 10
692.728414
 20
613.604111
 30
0.0
 11
692.728414
 21
613.604111
 31
0.0
  0
LINE
  5
300
100
AcDbEntity
  8
Calque_1
 62
3
100
AcDbLine
 10
692.925885
 20
611.004083
 30
0.0
 11
731.331926
 21
611.004083
 31
0.0
  0
LINE
  5
301
100
AcDbEntity
  8
Calque_1
 62
3
100
AcDbLine
 10
731.331926
 20
611.004083
 30
0.0
 11
731.331926
 21
535.875880
 31
0.0
  0
LINE
  5
302
100
AcDbEntity
  8
Calque_1
 62
3
100
AcDbLine
 10
731.331926
 20
535.875880
 30
0.0
 11
692.925885
 21
535.875880
 31
0.0
  0
LINE
  5
303
100
AcDbEntity
  8
Calque_1
 62
3
100
AcDbLine
 10
692.925885
 20
535.875880
 30
0.0
 11
692.925885
 21
611.004083
 31
0.0
  0
SPLINE
  5
304
100
AcDbEntity
  8
Calque_1
 62
1
100
AcDbSpline
 70
8
 71
3
 72
8
 73
4
 74
0
 40
0
 40
0
 40
0
 40
0
 40
1
 40
1
 40
1
 40
1
 10
736.331916
 20
613.604111
 30
0.0
 10
736.331921
 20
612.967586
 30
0.0
 10
736.079064
 20
612.357129
 30
0.0
 10
735.628972
 20
611.907037
 30
0.0
  0
SPLINE
  5
305
100
AcDbEntity
  8
Calque_1
 62
1
100
AcDbSpline
 70
8
 71
3
 72
8
 73
4
 74
0
 40
0
 40
0
 40
0
 40
0
 40
1
 40
1
 40
1
 40
1
 10
735.628972
 20
611.907037
 30
0.0
 10
735.178881
 20
611.456946
 30
0.0
 10
734.568424
 20
611.204089
 30
0.0
 10
733.931898
 20
611.204094
 30
0.0
  0
SPLINE
  5
306
100
AcDbEntity
  8
Calque_1
 62
1
100
AcDbSpline
 70
8
 71
3
 72
8
 73
4
 74
0
 40
0
 40
0
 40
0
 40
0
 40
1
 40
1
 40
1
 40
1
 10
733.931898
 20
611.204094
 30
0.0
 10
733.295378
 20
611.204097
 30
0.0
 10
732.684928
 20
611.456957
 30
0.0
 10
732.234843
 20
611.907047
 30
0.0
  0
SPLINE
  5
307
100
AcDbEntity
  8
Calque_1
 62
1
100
AcDbSpline
 70
8
 71
3
 72
8
 73
4
 74
0
 40
0
 40
0
 40
0
 40
0
 40
1
 40
1
 40
1
 40
1
 10
732.234843
 20
611.907047
 30
0.0
 10
731.784757
 20
612.357138
 30
0.0
 10
731.531904
 20
612.967591
 30
0.0
 10
731.531909
 20
613.604111
 30
0.0
  0
SPLINE
  5
308
100
AcDbEntity
  8
Calque_1
 62
1
100
AcDbSpline
 70
8
 71
3
 72
8
 73
4
 74
0
 40
0
 40
0
 40
0
 40
0
 40
1
 40
1
 40
1
 40
1
 10
731.531909
 20
613.604111
 30
0.0
 10
731.531915
 20
614.929587
 30
0.0
 10
732.606423
 20
616.004095
 30
0.0
 10
733.931898
 20
616.004101
 30
0.0
  0
SPLINE
  5
309
100
AcDbEntity
  8
Calque_1
 62
1
100
AcDbSpline
 70
8
 71
3
 72
8
 73
4
 74
0
 40
0
 40
0
 40
0
 40
0
 40
1
 40
1
 40
1
 40
1
 10
733.931898
 20
616.004101
 30
0.0
 10
734.568419
 20
616.004106
 30
0.0
 10
735.178872
 20
615.751253
 30
0.0
 10
735.628963
 20
615.301167
 30
0.0
  0
SPLINE
  5
30a
100
AcDbEntity
  8
Calque_1
 62
1
100
AcDbSpline
 70
8
 71
3
 72
8
 73
4
 74
0
 40
0
 40
0
 40
0
 40
0
 40
1
 40
1
 40
1
 40
1
 10
735.628963
 20
615.301167
 30
0.0
 10
736.079053
 20
614.851082
 30
0.0
 10
736.331913
 20
614.240632
 30
0.0
 10
736.331916
 20
613.604111
 30
0.0
  0
LINE
  5
30b
100
AcDbEntity
  8
Calque_1
 62
1
100
AcDbLine
 10
736.331916
 20
613.604111
 30
0.0
 11
736.331916
 21
613.604111
 31
0.0
  0
SPLINE
  5
30c
100
AcDbEntity
  8
Calque_1
 62
1
100
AcDbSpline
 70
8
 71
3
 72
8
 73
4
 74
0
 40
0
 40
0
 40
0
 40
0
 40
1
 40
1
 40
1
 40
1
 10
692.725903
 20
533.275908
 30
0.0
 10
692.725900
 20
532.639387
 30
0.0
 10
692.476221
 20
532.028938
 30
0.0
 10
692.031794
 20
531.578852
 30
0.0
  0
SPLINE
  5
30d
100
AcDbEntity
  8
Calque_1
 62
1
100
AcDbSpline
 70
8
 71
3
 72
8
 73
4
 74
0
 40
0
 40
0
 40
0
 40
0
 40
1
 40
1
 40
1
 40
1
 10
692.031794
 20
531.578852
 30
0.0
 10
691.587366
 20
531.128767
 30
0.0
 10
690.984595
 20
530.875914
 30
0.0
 10
690.356083
 20
530.875918
 30
0.0
  0
SPLINE
  5
30e
100
AcDbEntity
  8
Calque_1
 62
1
100
AcDbSpline
 70
8
 71
3
 72
8
 73
4
 74
0
 40
0
 40
0
 40
0
 40
0
 40
1
 40
1
 40
1
 40
1
 10
690.356083
 20
530.875918
 30
0.0
 10
689.047285
 20
530.875924
 30
0.0
 10
687.986297
 20
531.950433
 30
0.0
 10
687.986291
 20
533.275908
 30
0.0
  0
SPLINE
  5
30f
100
AcDbEntity
  8
Calque_1
 62
1
100
AcDbSpline
 70
8
 71
3
 72
8
 73
4
 74
0
 40
0
 40
0
 40
0
 40
0
 40
1
 40
1
 40
1
 40
1
 10
687.986291
 20
533.275908
 30
0.0
 10
687.986297
 20
534.601382
 30
0.0
 10
689.047285
 20
535.675891
 30
0.0
 10
690.356083
 20
535.675897
 30
0.0
  0
SPLINE
  5
310
100
AcDbEntity
  8
Calque_1
 62
1
100
AcDbSpline
 70
8
 71
3
 72
8
 73
4
 74
0
 40
0
 40
0
 40
0
 40
0
 40
1
 40
1
 40
1
 40
1
 10
690.356083
 20
535.675897
 30
0.0
 10
690.984595
 20
535.675902
 30
0.0
 10
691.587366
 20
535.423049
 30
0.0
 10
692.031794
 20
534.972963
 30
0.0
  0
SPLINE
  5
311
100
AcDbEntity
  8
Calque_1
 62
1
100
AcDbSpline
 70
8
 71
3
 72
8
 73
4
 74
0
 40
0
 40
0
 40
0
 40
0
 40
1
 40
1
 40
1
 40
1
 10
692.031794
 20
534.972963
 30
0.0
 10
692.476221
 20
534.522878
 30
0.0
 10
692.725900
 20
533.912428
 30
0.0
 10
692.725903
 20
533.275908
 30
0.0
  0
LINE
  5
312
100
AcDbEntity
  8
Calque_1
 62
1
100
AcDbLine
 10
692.725903
 20
533.275908
 30
0.0
 11
692.725903
 21
533.275908
 31
0.0
  0
SPLINE
  5
313
100
AcDbEntity
  8
Calque_1
 62
1
100
AcDbSpline
 70
8
 71
3
 72
8
 73
4
 74
0
 40
0
 40
0
 40
0
 40
0
 40
1
 40
1
 40
1
 40
1
 10
736.271521
 20
533.275908
 30
0.0
 10
736.271515
 20
531.950433
 30
0.0
 10
735.210527
 20
530.875924
 30
0.0
 10
733.901729
 20
530.875918
 30
0.0
  0
SPLINE
  5
314
100
AcDbEntity
  8
Calque_1
 62
1
100
AcDbSpline
 70
8
 71
3
 72
8
 73
4
 74
0
 40
0
 40
0
 40
0
 40
0
 40
1
 40
1
 40
1
 40
1
 10
733.901729
 20
530.875918
 30
0.0
 10
733.273217
 20
530.875914
 30
0.0
 10
732.670445
 20
531.128767
 30
0.0
 10
732.226018
 20
531.578852
 30
0.0
  0
SPLINE
  5
315
100
AcDbEntity
  8
Calque_1
 62
1
100
AcDbSpline
 70
8
 71
3
 72
8
 73
4
 74
0
 40
0
 40
0
 40
0
 40
0
 40
1
 40
1
 40
1
 40
1
 10
732.226018
 20
531.578852
 30
0.0
 10
731.781590
 20
532.028938
 30
0.0
 10
731.531912
 20
532.639387
 30
0.0
 10
731.531909
 20
533.275908
 30
0.0
  0
SPLINE
  5
316
100
AcDbEntity
  8
Calque_1
 62
1
100
AcDbSpline
 70
8
 71
3
 72
8
 73
4
 74
0
 40
0
 40
0
 40
0
 40
0
 40
1
 40
1
 40
1
 40
1
 10
731.531909
 20
533.275908
 30
0.0
 10
731.531912
 20
533.912428
 30
0.0
 10
731.781590
 20
534.522878
 30
0.0
 10
732.226018
 20
534.972963
 30
0.0
  0
SPLINE
  5
317
100
AcDbEntity
  8
Calque_1
 62
1
100
AcDbSpline
 70
8
 71
3
 72
8
 73
4
 74
0
 40
0
 40
0
 40
0
 40
0
 40
1
 40
1
 40
1
 40
1
 10
732.226018
 20
534.972963
 30
0.0
 10
732.670445
 20
535.423049
 30
0.0
 10
733.273217
 20
535.675902
 30
0.0
 10
733.901729
 20
535.675897
 30
0.0
  0
SPLINE
  5
318
100
AcDbEntity
  8
Calque_1
 62
1
100
AcDbSpline
 70
8
 71
3
 72
8
 73
4
 74
0
 40
0
 40
0
 40
0
 40
0
 40
1
 40
1
 40
1
 40
1
 10
733.901729
 20
535.675897
 30
0.0
 10
735.210527
 20
535.675891
 30
0.0
 10
736.271515
 20
534.601382
 30
0.0
 10
736.271521
 20
533.275908
 30
0.0
  0
LINE
  5
319
100
AcDbEntity
  8
Calque_1
 62
1
100
AcDbLine
 10
736.271521
 20
533.275908
 30
0.0
 11
736.271521
 21
533.275908
 31
0.0
  0
SPLINE
  5
31a
100
AcDbEntity
  8
Calque_1
 62
1
100
AcDbSpline
 70
8
 71
3
 72
8
 73
4
 74
0
 40
0
 40
0
 40
0
 40
0
 40
1
 40
1
 40
1
 40
1
 10
723.059090
 20
573.439996
 30
0.0
 10
723.059094
 20
570.549131
 30
0.0
 10
721.910704
 20
567.776667
 30
0.0
 10
719.866554
 20
565.732517
 30
0.0
  0
SPLINE
  5
31b
100
AcDbEntity
  8
Calque_1
 62
1
100
AcDbSpline
 70
8
 71
3
 72
8
 73
4
 74
0
 40
0
 40
0
 40
0
 40
0
 40
1
 40
1
 40
1
 40
1
 10
719.866554
 20
565.732517
 30
0.0
 10
717.822404
 20
563.688367
 30
0.0
 10
715.049940
 20
562.539977
 30
0.0
 10
712.159075
 20
562.539981
 30
0.0
  0
SPLINE
  5
31c
100
AcDbEntity
  8
Calque_1
 62
1
100
AcDbSpline
 70
8
 71
3
 72
8
 73
4
 74
0
 40
0
 40
0
 40
0
 40
0
 40
1
 40
1
 40
1
 40
1
 10
712.159075
 20
562.539981
 30
0.0
 10
706.139171
 20
562.539989
 30
0.0
 10
701.259081
 20
567.420092
 30
0.0
 10
701.259089
 20
573.439996
 30
0.0
  0
SPLINE
  5
31d
100
AcDbEntity
  8
Calque_1
 62
1
100
AcDbSpline
 70
8
 71
3
 72
8
 73
4
 74
0
 40
0
 40
0
 40
0
 40
0
 40
1
 40
1
 40
1
 40
1
 10
701.259089
 20
573.439996
 30
0.0
 10
701.259097
 20
579.459889
 30
0.0
 10
706.139182
 20
584.339974
 30
0.0
 10
712.159075
 20
584.339982
 30
0.0
  0
SPLINE
  5
31e
100
AcDbEntity
  8
Calque_1
 62
1
100
AcDbSpline
 70
8
 71
3
 72
8
 73
4
 74
0
 40
0
 40
0
 40
0
 40
0
 40
1
 40
1
 40
1
 40
1
 10
712.159075
 20
584.339982
 30
0.0
 10
718.178979
 20
584.339990
 30
0.0
 10
723.059082
 20
579.459900
 30
0.0
 10
723.059090
 20
573.439996
 30
0.0
  0
LINE
  5
31f
100
AcDbEntity
  8
Calque_1
 62
1
100
AcDbLine
 10
723.059090
 20
573.439996
 30
0.0
 11
723.059090
 21
573.439996
 31
0.0
  0
LINE
  5
320
100
AcDbEntity
  8
Calque_1
 62
3
100
AcDbLine
 10
860.909104
 20
402.719879
 30
0.0
 11
889.809107
 21
402.719879
 31
0.0
  0
LINE
  5
321
100
AcDbEntity
  8
Calque_1
 62
3
100
AcDbLine
 10
889.809107
 20
402.719879
 30
0.0
 11
889.809107
 21
395.360238
 31
0.0
  0
LINE
  5
322
100
AcDbEntity
  8
Calque_1
 62
3
100
AcDbLine
 10
889.809107
 20
395.360238
 30
0.0
 11
860.909104
 21
395.360238
 31
0.0
  0
LINE
  5
323
100
AcDbEntity
  8
Calque_1
 62
3
100
AcDbLine
 10
860.909104
 20
395.360238
 30
0.0
 11
860.909104
 21
402.719879
 31
0.0
  0
SPLINE
  5
324
100
AcDbEntity
  8
Calque_1
 62
1
100
AcDbSpline
 70
8
 71
3
 72
8
 73
4
 74
0
 40
0
 40
0
 40
0
 40
0
 40
1
 40
1
 40
1
 40
1
 10
864.309122
 20
399.040035
 30
0.0
 10
864.309122
 20
398.101151
 30
0.0
 10
863.548006
 20
397.340036
 30
0.0
 10
862.609123
 20
397.340035
 30
0.0
  0
SPLINE
  5
325
100
AcDbEntity
  8
Calque_1
 62
1
100
AcDbSpline
 70
8
 71
3
 72
8
 73
4
 74
0
 40
0
 40
0
 40
0
 40
0
 40
1
 40
1
 40
1
 40
1
 10
862.609123
 20
397.340035
 30
0.0
 10
862.158254
 20
397.340035
 30
0.0
 10
861.725852
 20
397.519141
 30
0.0
 10
861.407040
 20
397.837953
 30
0.0
  0
SPLINE
  5
326
100
AcDbEntity
  8
Calque_1
 62
1
100
AcDbSpline
 70
8
 71
3
 72
8
 73
4
 74
0
 40
0
 40
0
 40
0
 40
0
 40
1
 40
1
 40
1
 40
1
 10
861.407040
 20
397.837953
 30
0.0
 10
861.088228
 20
398.156765
 30
0.0
 10
860.909121
 20
398.589166
 30
0.0
 10
860.909121
 20
399.040035
 30
0.0
  0
SPLINE
  5
327
100
AcDbEntity
  8
Calque_1
 62
1
100
AcDbSpline
 70
8
 71
3
 72
8
 73
4
 74
0
 40
0
 40
0
 40
0
 40
0
 40
1
 40
1
 40
1
 40
1
 10
860.909121
 20
399.040035
 30
0.0
 10
860.909121
 20
399.490903
 30
0.0
 10
861.088228
 20
399.923305
 30
0.0
 10
861.407040
 20
400.242117
 30
0.0
  0
SPLINE
  5
328
100
AcDbEntity
  8
Calque_1
 62
1
100
AcDbSpline
 70
8
 71
3
 72
8
 73
4
 74
0
 40
0
 40
0
 40
0
 40
0
 40
1
 40
1
 40
1
 40
1
 10
861.407040
 20
400.242117
 30
0.0
 10
861.725852
 20
400.560929
 30
0.0
 10
862.158254
 20
400.740035
 30
0.0
 10
862.609123
 20
400.740034
 30
0.0
  0
SPLINE
  5
329
100
AcDbEntity
  8
Calque_1
 62
1
100
AcDbSpline
 70
8
 71
3
 72
8
 73
4
 74
0
 40
0
 40
0
 40
0
 40
0
 40
1
 40
1
 40
1
 40
1
 10
862.609123
 20
400.740034
 30
0.0
 10
863.548006
 20
400.740034
 30
0.0
 10
864.309122
 20
399.978918
 30
0.0
 10
864.309122
 20
399.040035
 30
0.0
  0
LINE
  5
32a
100
AcDbEntity
  8
Calque_1
 62
1
100
AcDbLine
 10
864.309122
 20
399.040035
 30
0.0
 11
864.309122
 21
399.040035
 31
0.0
  0
SPLINE
  5
32b
100
AcDbEntity
  8
Calque_1
 62
1
100
AcDbSpline
 70
8
 71
3
 72
8
 73
4
 74
0
 40
0
 40
0
 40
0
 40
0
 40
1
 40
1
 40
1
 40
1
 10
889.809099
 20
399.040035
 30
0.0
 10
889.809099
 20
398.589166
 30
0.0
 10
889.629992
 20
398.156765
 30
0.0
 10
889.311179
 20
397.837953
 30
0.0
  0
SPLINE
  5
32c
100
AcDbEntity
  8
Calque_1
 62
1
100
AcDbSpline
 70
8
 71
3
 72
8
 73
4
 74
0
 40
0
 40
0
 40
0
 40
0
 40
1
 40
1
 40
1
 40
1
 10
889.311179
 20
397.837953
 30
0.0
 10
888.992367
 20
397.519141
 30
0.0
 10
888.559965
 20
397.340035
 30
0.0
 10
888.109097
 20
397.340035
 30
0.0
  0
SPLINE
  5
32d
100
AcDbEntity
  8
Calque_1
 62
1
100
AcDbSpline
 70
8
 71
3
 72
8
 73
4
 74
0
 40
0
 40
0
 40
0
 40
0
 40
1
 40
1
 40
1
 40
1
 10
888.109097
 20
397.340035
 30
0.0
 10
887.170213
 20
397.340036
 30
0.0
 10
886.409098
 20
398.101151
 30
0.0
 10
886.409097
 20
399.040035
 30
0.0
  0
SPLINE
  5
32e
100
AcDbEntity
  8
Calque_1
 62
1
100
AcDbSpline
 70
8
 71
3
 72
8
 73
4
 74
0
 40
0
 40
0
 40
0
 40
0
 40
1
 40
1
 40
1
 40
1
 10
886.409097
 20
399.040035
 30
0.0
 10
886.409098
 20
399.978918
 30
0.0
 10
887.170213
 20
400.740034
 30
0.0
 10
888.109097
 20
400.740034
 30
0.0
  0
SPLINE
  5
32f
100
AcDbEntity
  8
Calque_1
 62
1
100
AcDbSpline
 70
8
 71
3
 72
8
 73
4
 74
0
 40
0
 40
0
 40
0
 40
0
 40
1
 40
1
 40
1
 40
1
 10
888.109097
 20
400.740034
 30
0.0
 10
888.559965
 20
400.740035
 30
0.0
 10
888.992367
 20
400.560929
 30
0.0
 10
889.311179
 20
400.242117
 30
0.0
  0
SPLINE
  5
330
100
AcDbEntity
  8
Calque_1
 62
1
100
AcDbSpline
 70
8
 71
3
 72
8
 73
4
 74
0
 40
0
 40
0
 40
0
 40
0
 40
1
 40
1
 40
1
 40
1
 10
889.311179
 20
400.242117
 30
0.0
 10
889.629992
 20
399.923305
 30
0.0
 10
889.809099
 20
399.490903
 30
0.0
 10
889.809099
 20
399.040035
 30
0.0
  0
LINE
  5
331
100
AcDbEntity
  8
Calque_1
 62
1
100
AcDbLine
 10
889.809099
 20
399.040035
 30
0.0
 11
889.809099
 21
399.040035
 31
0.0
  0
SPLINE
  5
332
100
AcDbEntity
  8
Calque_1
 62
1
100
AcDbSpline
 70
8
 71
3
 72
8
 73
4
 74
0
 40
0
 40
0
 40
0
 40
0
 40
1
 40
1
 40
1
 40
1
 10
867.950751
 20
404.390017
 30
0.0
 10
866.288603
 20
404.390017
 30
0.0
 10
865.165190
 20
402.942640
 30
0.0
 10
865.454100
 20
401.172966
 30
0.0
  0
LINE
  5
333
100
AcDbEntity
  8
Calque_1
 62
1
100
AcDbLine
 10
865.454100
 20
401.172966
 30
0.0
 11
866.151697
 21
396.909322
 31
0.0
  0
SPLINE
  5
334
100
AcDbEntity
  8
Calque_1
 62
1
100
AcDbSpline
 70
8
 71
3
 72
8
 73
4
 74
0
 40
0
 40
0
 40
0
 40
0
 40
1
 40
1
 40
1
 40
1
 10
866.151697
 20
396.909322
 30
0.0
 10
866.440919
 20
395.139337
 30
0.0
 10
868.038184
 20
393.690013
 30
0.0
 10
869.700359
 20
393.690013
 30
0.0
  0
LINE
  5
335
100
AcDbEntity
  8
Calque_1
 62
1
100
AcDbLine
 10
869.700359
 20
393.690013
 30
0.0
 11
881.017837
 21
393.690013
 31
0.0
  0
SPLINE
  5
336
100
AcDbEntity
  8
Calque_1
 62
1
100
AcDbSpline
 70
8
 71
3
 72
8
 73
4
 74
0
 40
0
 40
0
 40
0
 40
0
 40
1
 40
1
 40
1
 40
1
 10
881.017837
 20
393.690013
 30
0.0
 10
882.679703
 20
393.690013
 30
0.0
 10
884.276375
 20
395.138998
 30
0.0
 10
884.566471
 20
396.909322
 30
0.0
  0
LINE
  5
337
100
AcDbEntity
  8
Calque_1
 62
1
100
AcDbLine
 10
884.566471
 20
396.909322
 30
0.0
 11
885.264068
 21
401.172966
 31
0.0
  0
SPLINE
  5
338
100
AcDbEntity
  8
Calque_1
 62
1
100
AcDbSpline
 70
8
 71
3
 72
8
 73
4
 74
0
 40
0
 40
0
 40
0
 40
0
 40
1
 40
1
 40
1
 40
1
 10
885.264068
 20
401.172966
 30
0.0
 10
885.553007
 20
402.942640
 30
0.0
 10
884.430468
 20
404.390017
 30
0.0
 10
882.767417
 20
404.390017
 30
0.0
  0
LINE
  5
339
100
AcDbEntity
  8
Calque_1
 62
1
100
AcDbLine
 10
882.767417
 20
404.390017
 30
0.0
 11
867.950751
 21
404.390017
 31
0.0
  0
SPLINE
  5
33a
100
AcDbEntity
  8
Calque_1
 62
1
100
AcDbSpline
 70
8
 71
3
 72
8
 73
4
 74
0
 40
0
 40
0
 40
0
 40
0
 40
1
 40
1
 40
1
 40
1
 10
645.309079
 20
413.523318
 30
0.0
 10
644.858208
 20
413.523319
 30
0.0
 10
644.425805
 20
413.702430
 30
0.0
 10
644.106994
 20
414.021246
 30
0.0
  0
SPLINE
  5
33b
100
AcDbEntity
  8
Calque_1
 62
1
100
AcDbSpline
 70
8
 71
3
 72
8
 73
4
 74
0
 40
0
 40
0
 40
0
 40
0
 40
1
 40
1
 40
1
 40
1
 10
644.106994
 20
414.021246
 30
0.0
 10
643.788183
 20
414.340063
 30
0.0
 10
643.609080
 20
414.772469
 30
0.0
 10
643.609085
 20
415.223340
 30
0.0
  0
SPLINE
  5
33c
100
AcDbEntity
  8
Calque_1
 62
1
100
AcDbSpline
 70
8
 71
3
 72
8
 73
4
 74
0
 40
0
 40
0
 40
0
 40
0
 40
1
 40
1
 40
1
 40
1
 10
643.609085
 20
415.223340
 30
0.0
 10
643.609089
 20
416.162219
 30
0.0
 10
644.370200
 20
416.923330
 30
0.0
 10
645.309079
 20
416.923333
 30
0.0
  0
SPLINE
  5
33d
100
AcDbEntity
  8
Calque_1
 62
1
100
AcDbSpline
 70
8
 71
3
 72
8
 73
4
 74
0
 40
0
 40
0
 40
0
 40
0
 40
1
 40
1
 40
1
 40
1
 10
645.309079
 20
416.923333
 30
0.0
 10
646.247958
 20
416.923330
 30
0.0
 10
647.009069
 20
416.162219
 30
0.0
 10
647.009073
 20
415.223340
 30
0.0
  0
SPLINE
  5
33e
100
AcDbEntity
  8
Calque_1
 62
1
100
AcDbSpline
 70
8
 71
3
 72
8
 73
4
 74
0
 40
0
 40
0
 40
0
 40
0
 40
1
 40
1
 40
1
 40
1
 10
647.009073
 20
415.223340
 30
0.0
 10
647.009079
 20
414.772469
 30
0.0
 10
646.829976
 20
414.340063
 30
0.0
 10
646.511164
 20
414.021246
 30
0.0
  0
SPLINE
  5
33f
100
AcDbEntity
  8
Calque_1
 62
1
100
AcDbSpline
 70
8
 71
3
 72
8
 73
4
 74
0
 40
0
 40
0
 40
0
 40
0
 40
1
 40
1
 40
1
 40
1
 10
646.511164
 20
414.021246
 30
0.0
 10
646.192353
 20
413.702430
 30
0.0
 10
645.759950
 20
413.523319
 30
0.0
 10
645.309079
 20
413.523318
 30
0.0
  0
LINE
  5
340
100
AcDbEntity
  8
Calque_1
 62
1
100
AcDbLine
 10
645.309079
 20
413.523318
 30
0.0
 11
645.309079
 21
413.523318
 31
0.0
  0
LINE
  5
341
100
AcDbEntity
  8
Calque_1
 62
3
100
AcDbLine
 10
635.359087
 20
425.173344
 30
0.0
 11
653.545768
 21
425.173344
 31
0.0
  0
LINE
  5
342
100
AcDbEntity
  8
Calque_1
 62
3
100
AcDbLine
 10
653.545768
 20
425.173344
 30
0.0
 11
653.545768
 21
406.986633
 31
0.0
  0
LINE
  5
343
100
AcDbEntity
  8
Calque_1
 62
3
100
AcDbLine
 10
653.545768
 20
406.986633
 30
0.0
 11
635.359087
 21
406.986633
 31
0.0
  0
LINE
  5
344
100
AcDbEntity
  8
Calque_1
 62
3
100
AcDbLine
 10
635.359087
 20
406.986633
 30
0.0
 11
635.359087
 21
425.173344
 31
0.0
  0
SPLINE
  5
345
100
AcDbEntity
  8
Calque_1
 62
1
100
AcDbSpline
 70
8
 71
3
 72
8
 73
4
 74
0
 40
0
 40
0
 40
0
 40
0
 40
1
 40
1
 40
1
 40
1
 10
645.309067
 20
384.556705
 30
0.0
 10
644.858196
 20
384.556704
 30
0.0
 10
644.425792
 20
384.377593
 30
0.0
 10
644.106981
 20
384.058777
 30
0.0
  0
SPLINE
  5
346
100
AcDbEntity
  8
Calque_1
 62
1
100
AcDbSpline
 70
8
 71
3
 72
8
 73
4
 74
0
 40
0
 40
0
 40
0
 40
0
 40
1
 40
1
 40
1
 40
1
 10
644.106981
 20
384.058777
 30
0.0
 10
643.788170
 20
383.739961
 30
0.0
 10
643.609067
 20
383.307554
 30
0.0
 10
643.609073
 20
382.856683
 30
0.0
  0
SPLINE
  5
347
100
AcDbEntity
  8
Calque_1
 62
1
100
AcDbSpline
 70
8
 71
3
 72
8
 73
4
 74
0
 40
0
 40
0
 40
0
 40
0
 40
1
 40
1
 40
1
 40
1
 10
643.609073
 20
382.856683
 30
0.0
 10
643.609076
 20
381.917804
 30
0.0
 10
644.370187
 20
381.156693
 30
0.0
 10
645.309067
 20
381.156690
 30
0.0
  0
SPLINE
  5
348
100
AcDbEntity
  8
Calque_1
 62
1
100
AcDbSpline
 70
8
 71
3
 72
8
 73
4
 74
0
 40
0
 40
0
 40
0
 40
0
 40
1
 40
1
 40
1
 40
1
 10
645.309067
 20
381.156690
 30
0.0
 10
646.247946
 20
381.156693
 30
0.0
 10
647.009057
 20
381.917804
 30
0.0
 10
647.009060
 20
382.856683
 30
0.0
  0
SPLINE
  5
349
100
AcDbEntity
  8
Calque_1
 62
1
100
AcDbSpline
 70
8
 71
3
 72
8
 73
4
 74
0
 40
0
 40
0
 40
0
 40
0
 40
1
 40
1
 40
1
 40
1
 10
647.009060
 20
382.856683
 30
0.0
 10
647.009066
 20
383.307554
 30
0.0
 10
646.829963
 20
383.739961
 30
0.0
 10
646.511152
 20
384.058777
 30
0.0
  0
SPLINE
  5
34a
100
AcDbEntity
  8
Calque_1
 62
1
100
AcDbSpline
 70
8
 71
3
 72
8
 73
4
 74
0
 40
0
 40
0
 40
0
 40
0
 40
1
 40
1
 40
1
 40
1
 10
646.511152
 20
384.058777
 30
0.0
 10
646.192341
 20
384.377593
 30
0.0
 10
645.759937
 20
384.556704
 30
0.0
 10
645.309067
 20
384.556705
 30
0.0
  0
LINE
  5
34b
100
AcDbEntity
  8
Calque_1
 62
1
100
AcDbLine
 10
645.309067
 20
384.556705
 30
0.0
 11
645.309067
 21
384.556705
 31
0.0
  0
LINE
  5
34c
100
AcDbEntity
  8
Calque_1
 62
3
100
AcDbLine
 10
635.359074
 20
372.906680
 30
0.0
 11
653.545755
 21
372.906680
 31
0.0
  0
LINE
  5
34d
100
AcDbEntity
  8
Calque_1
 62
3
100
AcDbLine
 10
653.545755
 20
372.906680
 30
0.0
 11
653.545755
 21
391.093389
 31
0.0
  0
LINE
  5
34e
100
AcDbEntity
  8
Calque_1
 62
3
100
AcDbLine
 10
653.545755
 20
391.093389
 30
0.0
 11
635.359074
 21
391.093389
 31
0.0
  0
LINE
  5
34f
100
AcDbEntity
  8
Calque_1
 62
3
100
AcDbLine
 10
635.359074
 20
391.093389
 30
0.0
 11
635.359074
 21
372.906680
 31
0.0
  0
SPLINE
  5
350
100
AcDbEntity
  8
Calque_1
 62
1
100
AcDbSpline
 70
8
 71
3
 72
8
 73
4
 74
0
 40
0
 40
0
 40
0
 40
0
 40
1
 40
1
 40
1
 40
1
 10
779.009141
 20
413.523330
 30
0.0
 10
779.460011
 20
413.523332
 30
0.0
 10
779.892415
 20
413.702442
 30
0.0
 10
780.211226
 20
414.021259
 30
0.0
  0
SPLINE
  5
351
100
AcDbEntity
  8
Calque_1
 62
1
100
AcDbSpline
 70
8
 71
3
 72
8
 73
4
 74
0
 40
0
 40
0
 40
0
 40
0
 40
1
 40
1
 40
1
 40
1
 10
780.211226
 20
414.021259
 30
0.0
 10
780.530037
 20
414.340075
 30
0.0
 10
780.709140
 20
414.772482
 30
0.0
 10
780.709134
 20
415.223352
 30
0.0
  0
SPLINE
  5
352
100
AcDbEntity
  8
Calque_1
 62
1
100
AcDbSpline
 70
8
 71
3
 72
8
 73
4
 74
0
 40
0
 40
0
 40
0
 40
0
 40
1
 40
1
 40
1
 40
1
 10
780.709134
 20
415.223352
 30
0.0
 10
780.709131
 20
416.162231
 30
0.0
 10
779.948020
 20
416.923343
 30
0.0
 10
779.009141
 20
416.923346
 30
0.0
  0
SPLINE
  5
353
100
AcDbEntity
  8
Calque_1
 62
1
100
AcDbSpline
 70
8
 71
3
 72
8
 73
4
 74
0
 40
0
 40
0
 40
0
 40
0
 40
1
 40
1
 40
1
 40
1
 10
779.009141
 20
416.923346
 30
0.0
 10
778.070261
 20
416.923343
 30
0.0
 10
777.309150
 20
416.162231
 30
0.0
 10
777.309147
 20
415.223352
 30
0.0
  0
SPLINE
  5
354
100
AcDbEntity
  8
Calque_1
 62
1
100
AcDbSpline
 70
8
 71
3
 72
8
 73
4
 74
0
 40
0
 40
0
 40
0
 40
0
 40
1
 40
1
 40
1
 40
1
 10
777.309147
 20
415.223352
 30
0.0
 10
777.309141
 20
414.772482
 30
0.0
 10
777.488244
 20
414.340075
 30
0.0
 10
777.807055
 20
414.021259
 30
0.0
  0
SPLINE
  5
355
100
AcDbEntity
  8
Calque_1
 62
1
100
AcDbSpline
 70
8
 71
3
 72
8
 73
4
 74
0
 40
0
 40
0
 40
0
 40
0
 40
1
 40
1
 40
1
 40
1
 10
777.807055
 20
414.021259
 30
0.0
 10
778.125866
 20
413.702442
 30
0.0
 10
778.558270
 20
413.523332
 30
0.0
 10
779.009141
 20
413.523330
 30
0.0
  0
LINE
  5
356
100
AcDbEntity
  8
Calque_1
 62
1
100
AcDbLine
 10
779.009141
 20
413.523330
 30
0.0
 11
779.009141
 21
413.523330
 31
0.0
  0
LINE
  5
357
100
AcDbEntity
  8
Calque_1
 62
3
100
AcDbLine
 10
788.959133
 20
425.173356
 30
0.0
 11
770.772452
 21
425.173356
 31
0.0
  0
LINE
  5
358
100
AcDbEntity
  8
Calque_1
 62
3
100
AcDbLine
 10
770.772452
 20
425.173356
 30
0.0
 11
770.772452
 21
406.986646
 31
0.0
  0
LINE
  5
359
100
AcDbEntity
  8
Calque_1
 62
3
100
AcDbLine
 10
770.772452
 20
406.986646
 30
0.0
 11
788.959133
 21
406.986646
 31
0.0
  0
LINE
  5
35a
100
AcDbEntity
  8
Calque_1
 62
3
100
AcDbLine
 10
788.959133
 20
406.986646
 30
0.0
 11
788.959133
 21
425.173356
 31
0.0
  0
SPLINE
  5
35b
100
AcDbEntity
  8
Calque_1
 62
1
100
AcDbSpline
 70
8
 71
3
 72
8
 73
4
 74
0
 40
0
 40
0
 40
0
 40
0
 40
1
 40
1
 40
1
 40
1
 10
779.009128
 20
384.556712
 30
0.0
 10
779.459999
 20
384.556711
 30
0.0
 10
779.892402
 20
384.377600
 30
0.0
 10
780.211213
 20
384.058784
 30
0.0
  0
SPLINE
  5
35c
100
AcDbEntity
  8
Calque_1
 62
1
100
AcDbSpline
 70
8
 71
3
 72
8
 73
4
 74
0
 40
0
 40
0
 40
0
 40
0
 40
1
 40
1
 40
1
 40
1
 10
780.211213
 20
384.058784
 30
0.0
 10
780.530024
 20
383.739968
 30
0.0
 10
780.709128
 20
383.307561
 30
0.0
 10
780.709122
 20
382.856690
 30
0.0
  0
SPLINE
  5
35d
100
AcDbEntity
  8
Calque_1
 62
1
100
AcDbSpline
 70
8
 71
3
 72
8
 73
4
 74
0
 40
0
 40
0
 40
0
 40
0
 40
1
 40
1
 40
1
 40
1
 10
780.709122
 20
382.856690
 30
0.0
 10
780.709118
 20
381.917811
 30
0.0
 10
779.948007
 20
381.156700
 30
0.0
 10
779.009128
 20
381.156697
 30
0.0
  0
SPLINE
  5
35e
100
AcDbEntity
  8
Calque_1
 62
1
100
AcDbSpline
 70
8
 71
3
 72
8
 73
4
 74
0
 40
0
 40
0
 40
0
 40
0
 40
1
 40
1
 40
1
 40
1
 10
779.009128
 20
381.156697
 30
0.0
 10
778.070249
 20
381.156700
 30
0.0
 10
777.309138
 20
381.917811
 30
0.0
 10
777.309134
 20
382.856690
 30
0.0
  0
SPLINE
  5
35f
100
AcDbEntity
  8
Calque_1
 62
1
100
AcDbSpline
 70
8
 71
3
 72
8
 73
4
 74
0
 40
0
 40
0
 40
0
 40
0
 40
1
 40
1
 40
1
 40
1
 10
777.309134
 20
382.856690
 30
0.0
 10
777.309128
 20
383.307561
 30
0.0
 10
777.488232
 20
383.739968
 30
0.0
 10
777.807043
 20
384.058784
 30
0.0
  0
SPLINE
  5
360
100
AcDbEntity
  8
Calque_1
 62
1
100
AcDbSpline
 70
8
 71
3
 72
8
 73
4
 74
0
 40
0
 40
0
 40
0
 40
0
 40
1
 40
1
 40
1
 40
1
 10
777.807043
 20
384.058784
 30
0.0
 10
778.125854
 20
384.377600
 30
0.0
 10
778.558257
 20
384.556711
 30
0.0
 10
779.009128
 20
384.556712
 30
0.0
  0
LINE
  5
361
100
AcDbEntity
  8
Calque_1
 62
1
100
AcDbLine
 10
779.009128
 20
384.556712
 30
0.0
 11
779.009128
 21
384.556712
 31
0.0
  0
LINE
  5
362
100
AcDbEntity
  8
Calque_1
 62
3
100
AcDbLine
 10
788.959121
 20
372.906687
 30
0.0
 11
770.772439
 21
372.906687
 31
0.0
  0
LINE
  5
363
100
AcDbEntity
  8
Calque_1
 62
3
100
AcDbLine
 10
770.772439
 20
372.906687
 30
0.0
 11
770.772439
 21
391.093397
 31
0.0
  0
LINE
  5
364
100
AcDbEntity
  8
Calque_1
 62
3
100
AcDbLine
 10
770.772439
 20
391.093397
 30
0.0
 11
788.959121
 21
391.093397
 31
0.0
  0
LINE
  5
365
100
AcDbEntity
  8
Calque_1
 62
3
100
AcDbLine
 10
788.959121
 20
391.093397
 30
0.0
 11
788.959121
 21
372.906687
 31
0.0
  0
SPLINE
  5
366
100
AcDbEntity
  8
Calque_1
 62
1
100
AcDbSpline
 70
8
 71
3
 72
8
 73
4
 74
0
 40
0
 40
0
 40
0
 40
0
 40
1
 40
1
 40
1
 40
1
 10
830.755723
 20
619.453272
 30
0.0
 10
829.402637
 20
619.453272
 30
0.0
 10
828.305724
 20
618.356359
 30
0.0
 10
828.305724
 20
617.003301
 30
0.0
  0
SPLINE
  5
367
100
AcDbEntity
  8
Calque_1
 62
1
100
AcDbSpline
 70
8
 71
3
 72
8
 73
4
 74
0
 40
0
 40
0
 40
0
 40
0
 40
1
 40
1
 40
1
 40
1
 10
828.305724
 20
617.003301
 30
0.0
 10
828.305724
 20
615.650186
 30
0.0
 10
829.402637
 20
614.553330
 30
0.0
 10
830.755723
 20
614.553330
 30
0.0
  0
LINE
  5
368
100
AcDbEntity
  8
Calque_1
 62
1
100
AcDbLine
 10
830.755723
 20
614.553330
 30
0.0
 11
832.835672
 21
614.553330
 31
0.0
  0
SPLINE
  5
369
100
AcDbEntity
  8
Calque_1
 62
1
100
AcDbSpline
 70
8
 71
3
 72
8
 73
4
 74
0
 40
0
 40
0
 40
0
 40
0
 40
1
 40
1
 40
1
 40
1
 10
832.835672
 20
614.553330
 30
0.0
 10
834.188759
 20
614.553330
 30
0.0
 10
835.285672
 20
615.650186
 30
0.0
 10
835.285672
 20
617.003301
 30
0.0
  0
SPLINE
  5
36a
100
AcDbEntity
  8
Calque_1
 62
1
100
AcDbSpline
 70
8
 71
3
 72
8
 73
4
 74
0
 40
0
 40
0
 40
0
 40
0
 40
1
 40
1
 40
1
 40
1
 10
835.285672
 20
617.003301
 30
0.0
 10
835.285672
 20
618.356359
 30
0.0
 10
834.188759
 20
619.453272
 30
0.0
 10
832.835672
 20
619.453272
 30
0.0
  0
LINE
  5
36b
100
AcDbEntity
  8
Calque_1
 62
1
100
AcDbLine
 10
832.835672
 20
619.453272
 30
0.0
 11
830.755723
 21
619.453272
 31
0.0
  0
SPLINE
  5
36c
100
AcDbEntity
  8
Calque_1
 62
3
100
AcDbSpline
 70
8
 71
3
 72
8
 73
4
 74
0
 40
0
 40
0
 40
0
 40
0
 40
1
 40
1
 40
1
 40
1
 10
846.745728
 20
617.003301
 30
0.0
 10
846.745732
 20
613.038313
 30
0.0
 10
845.170651
 20
609.235720
 30
0.0
 10
842.366984
 20
606.432048
 30
0.0
  0
SPLINE
  5
36d
100
AcDbEntity
  8
Calque_1
 62
3
100
AcDbSpline
 70
8
 71
3
 72
8
 73
4
 74
0
 40
0
 40
0
 40
0
 40
0
 40
1
 40
1
 40
1
 40
1
 10
842.366984
 20
606.432048
 30
0.0
 10
839.563318
 20
603.628376
 30
0.0
 10
835.760727
 20
602.053287
 30
0.0
 10
831.795740
 20
602.053284
 30
0.0
  0
SPLINE
  5
36e
100
AcDbEntity
  8
Calque_1
 62
3
100
AcDbSpline
 70
8
 71
3
 72
8
 73
4
 74
0
 40
0
 40
0
 40
0
 40
0
 40
1
 40
1
 40
1
 40
1
 10
831.795740
 20
602.053284
 30
0.0
 10
827.830748
 20
602.053280
 30
0.0
 10
824.028150
 20
603.628365
 30
0.0
 10
821.224477
 20
606.432038
 30
0.0
  0
SPLINE
  5
36f
100
AcDbEntity
  8
Calque_1
 62
3
100
AcDbSpline
 70
8
 71
3
 72
8
 73
4
 74
0
 40
0
 40
0
 40
0
 40
0
 40
1
 40
1
 40
1
 40
1
 10
821.224477
 20
606.432038
 30
0.0
 10
818.420804
 20
609.235711
 30
0.0
 10
816.845719
 20
613.038308
 30
0.0
 10
816.845724
 20
617.003301
 30
0.0
  0
SPLINE
  5
370
100
AcDbEntity
  8
Calque_1
 62
3
100
AcDbSpline
 70
8
 71
3
 72
8
 73
4
 74
0
 40
0
 40
0
 40
0
 40
0
 40
1
 40
1
 40
1
 40
1
 10
816.845724
 20
617.003301
 30
0.0
 10
816.845727
 20
620.968288
 30
0.0
 10
818.420815
 20
624.770878
 30
0.0
 10
821.224487
 20
627.574545
 30
0.0
  0
SPLINE
  5
371
100
AcDbEntity
  8
Calque_1
 62
3
100
AcDbSpline
 70
8
 71
3
 72
8
 73
4
 74
0
 40
0
 40
0
 40
0
 40
0
 40
1
 40
1
 40
1
 40
1
 10
821.224487
 20
627.574545
 30
0.0
 10
824.028159
 20
630.378212
 30
0.0
 10
827.830753
 20
631.953293
 30
0.0
 10
831.795740
 20
631.953289
 30
0.0
  0
SPLINE
  5
372
100
AcDbEntity
  8
Calque_1
 62
3
100
AcDbSpline
 70
8
 71
3
 72
8
 73
4
 74
0
 40
0
 40
0
 40
0
 40
0
 40
1
 40
1
 40
1
 40
1
 10
831.795740
 20
631.953289
 30
0.0
 10
840.052388
 20
631.953282
 30
0.0
 10
846.745721
 20
625.259948
 30
0.0
 10
846.745728
 20
617.003301
 30
0.0
  0
LINE
  5
373
100
AcDbEntity
  8
Calque_1
 62
3
100
AcDbLine
 10
846.745728
 20
617.003301
 30
0.0
 11
846.745728
 21
617.003301
 31
0.0
  0
SPLINE
  5
374
100
AcDbEntity
  8
Calque_1
 62
1
100
AcDbSpline
 70
8
 71
3
 72
8
 73
4
 74
0
 40
0
 40
0
 40
0
 40
0
 40
1
 40
1
 40
1
 40
1
 10
917.882378
 20
619.453272
 30
0.0
 10
916.529291
 20
619.453272
 30
0.0
 10
915.432378
 20
618.356359
 30
0.0
 10
915.432378
 20
617.003301
 30
0.0
  0
SPLINE
  5
375
100
AcDbEntity
  8
Calque_1
 62
1
100
AcDbSpline
 70
8
 71
3
 72
8
 73
4
 74
0
 40
0
 40
0
 40
0
 40
0
 40
1
 40
1
 40
1
 40
1
 10
915.432378
 20
617.003301
 30
0.0
 10
915.432378
 20
615.650186
 30
0.0
 10
916.529291
 20
614.553330
 30
0.0
 10
917.882378
 20
614.553330
 30
0.0
  0
LINE
  5
376
100
AcDbEntity
  8
Calque_1
 62
1
100
AcDbLine
 10
917.882378
 20
614.553330
 30
0.0
 11
919.962327
 21
614.553330
 31
0.0
  0
SPLINE
  5
377
100
AcDbEntity
  8
Calque_1
 62
1
100
AcDbSpline
 70
8
 71
3
 72
8
 73
4
 74
0
 40
0
 40
0
 40
0
 40
0
 40
1
 40
1
 40
1
 40
1
 10
919.962327
 20
614.553330
 30
0.0
 10
921.315413
 20
614.553330
 30
0.0
 10
922.412326
 20
615.650186
 30
0.0
 10
922.412326
 20
617.003301
 30
0.0
  0
SPLINE
  5
378
100
AcDbEntity
  8
Calque_1
 62
1
100
AcDbSpline
 70
8
 71
3
 72
8
 73
4
 74
0
 40
0
 40
0
 40
0
 40
0
 40
1
 40
1
 40
1
 40
1
 10
922.412326
 20
617.003301
 30
0.0
 10
922.412326
 20
618.356359
 30
0.0
 10
921.315413
 20
619.453272
 30
0.0
 10
919.962327
 20
619.453272
 30
0.0
  0
LINE
  5
379
100
AcDbEntity
  8
Calque_1
 62
1
100
AcDbLine
 10
919.962327
 20
619.453272
 30
0.0
 11
917.882378
 21
619.453272
 31
0.0
  0
SPLINE
  5
37a
100
AcDbEntity
  8
Calque_1
 62
3
100
AcDbSpline
 70
8
 71
3
 72
8
 73
4
 74
0
 40
0
 40
0
 40
0
 40
0
 40
1
 40
1
 40
1
 40
1
 10
933.872383
 20
617.003301
 30
0.0
 10
933.872387
 20
613.038313
 30
0.0
 10
932.297306
 20
609.235720
 30
0.0
 10
929.493639
 20
606.432048
 30
0.0
  0
SPLINE
  5
37b
100
AcDbEntity
  8
Calque_1
 62
3
100
AcDbSpline
 70
8
 71
3
 72
8
 73
4
 74
0
 40
0
 40
0
 40
0
 40
0
 40
1
 40
1
 40
1
 40
1
 10
929.493639
 20
606.432048
 30
0.0
 10
926.689972
 20
603.628376
 30
0.0
 10
922.887382
 20
602.053287
 30
0.0
 10
918.922395
 20
602.053284
 30
0.0
  0
SPLINE
  5
37c
100
AcDbEntity
  8
Calque_1
 62
3
100
AcDbSpline
 70
8
 71
3
 72
8
 73
4
 74
0
 40
0
 40
0
 40
0
 40
0
 40
1
 40
1
 40
1
 40
1
 10
918.922395
 20
602.053284
 30
0.0
 10
914.957403
 20
602.053280
 30
0.0
 10
911.154805
 20
603.628365
 30
0.0
 10
908.351132
 20
606.432038
 30
0.0
  0
SPLINE
  5
37d
100
AcDbEntity
  8
Calque_1
 62
3
100
AcDbSpline
 70
8
 71
3
 72
8
 73
4
 74
0
 40
0
 40
0
 40
0
 40
0
 40
1
 40
1
 40
1
 40
1
 10
908.351132
 20
606.432038
 30
0.0
 10
905.547459
 20
609.235711
 30
0.0
 10
903.972374
 20
613.038308
 30
0.0
 10
903.972378
 20
617.003301
 30
0.0
  0
SPLINE
  5
37e
100
AcDbEntity
  8
Calque_1
 62
3
100
AcDbSpline
 70
8
 71
3
 72
8
 73
4
 74
0
 40
0
 40
0
 40
0
 40
0
 40
1
 40
1
 40
1
 40
1
 10
903.972378
 20
617.003301
 30
0.0
 10
903.972382
 20
620.968288
 30
0.0
 10
905.547470
 20
624.770878
 30
0.0
 10
908.351142
 20
627.574545
 30
0.0
  0
SPLINE
  5
37f
100
AcDbEntity
  8
Calque_1
 62
3
100
AcDbSpline
 70
8
 71
3
 72
8
 73
4
 74
0
 40
0
 40
0
 40
0
 40
0
 40
1
 40
1
 40
1
 40
1
 10
908.351142
 20
627.574545
 30
0.0
 10
911.154814
 20
630.378212
 30
0.0
 10
914.957407
 20
631.953293
 30
0.0
 10
918.922395
 20
631.953289
 30
0.0
  0
SPLINE
  5
380
100
AcDbEntity
  8
Calque_1
 62
3
100
AcDbSpline
 70
8
 71
3
 72
8
 73
4
 74
0
 40
0
 40
0
 40
0
 40
0
 40
1
 40
1
 40
1
 40
1
 10
918.922395
 20
631.953289
 30
0.0
 10
927.179042
 20
631.953282
 30
0.0
 10
933.872376
 20
625.259948
 30
0.0
 10
933.872383
 20
617.003301
 30
0.0
  0
LINE
  5
381
100
AcDbEntity
  8
Calque_1
 62
3
100
AcDbLine
 10
933.872383
 20
617.003301
 30
0.0
 11
933.872383
 21
617.003301
 31
0.0
  0
SPLINE
  5
382
100
AcDbEntity
  8
Calque_1
 62
1
100
AcDbSpline
 70
8
 71
3
 72
8
 73
4
 74
0
 40
0
 40
0
 40
0
 40
0
 40
1
 40
1
 40
1
 40
1
 10
821.544385
 20
532.326707
 30
0.0
 10
820.191299
 20
532.326707
 30
0.0
 10
819.094385
 20
531.229794
 30
0.0
 10
819.094385
 20
529.876736
 30
0.0
  0
SPLINE
  5
383
100
AcDbEntity
  8
Calque_1
 62
1
100
AcDbSpline
 70
8
 71
3
 72
8
 73
4
 74
0
 40
0
 40
0
 40
0
 40
0
 40
1
 40
1
 40
1
 40
1
 10
819.094385
 20
529.876736
 30
0.0
 10
819.094385
 20
528.523622
 30
0.0
 10
820.191299
 20
527.426765
 30
0.0
 10
821.544385
 20
527.426765
 30
0.0
  0
LINE
  5
384
100
AcDbEntity
  8
Calque_1
 62
1
100
AcDbLine
 10
821.544385
 20
527.426765
 30
0.0
 11
823.624334
 21
527.426765
 31
0.0
  0
SPLINE
  5
385
100
AcDbEntity
  8
Calque_1
 62
1
100
AcDbSpline
 70
8
 71
3
 72
8
 73
4
 74
0
 40
0
 40
0
 40
0
 40
0
 40
1
 40
1
 40
1
 40
1
 10
823.624334
 20
527.426765
 30
0.0
 10
824.977420
 20
527.426765
 30
0.0
 10
826.074334
 20
528.523622
 30
0.0
 10
826.074334
 20
529.876736
 30
0.0
  0
SPLINE
  5
386
100
AcDbEntity
  8
Calque_1
 62
1
100
AcDbSpline
 70
8
 71
3
 72
8
 73
4
 74
0
 40
0
 40
0
 40
0
 40
0
 40
1
 40
1
 40
1
 40
1
 10
826.074334
 20
529.876736
 30
0.0
 10
826.074334
 20
531.229794
 30
0.0
 10
824.977420
 20
532.326707
 30
0.0
 10
823.624334
 20
532.326707
 30
0.0
  0
LINE
  5
387
100
AcDbEntity
  8
Calque_1
 62
1
100
AcDbLine
 10
823.624334
 20
532.326707
 30
0.0
 11
821.544385
 21
532.326707
 31
0.0
  0
SPLINE
  5
388
100
AcDbEntity
  8
Calque_1
 62
3
100
AcDbSpline
 70
8
 71
3
 72
8
 73
4
 74
0
 40
0
 40
0
 40
0
 40
0
 40
1
 40
1
 40
1
 40
1
 10
837.534390
 20
529.876736
 30
0.0
 10
837.534394
 20
525.911749
 30
0.0
 10
835.959313
 20
522.109155
 30
0.0
 10
833.155646
 20
519.305483
 30
0.0
  0
SPLINE
  5
389
100
AcDbEntity
  8
Calque_1
 62
3
100
AcDbSpline
 70
8
 71
3
 72
8
 73
4
 74
0
 40
0
 40
0
 40
0
 40
0
 40
1
 40
1
 40
1
 40
1
 10
833.155646
 20
519.305483
 30
0.0
 10
830.351980
 20
516.501811
 30
0.0
 10
826.549389
 20
514.926723
 30
0.0
 10
822.584402
 20
514.926720
 30
0.0
  0
SPLINE
  5
38a
100
AcDbEntity
  8
Calque_1
 62
3
100
AcDbSpline
 70
8
 71
3
 72
8
 73
4
 74
0
 40
0
 40
0
 40
0
 40
0
 40
1
 40
1
 40
1
 40
1
 10
822.584402
 20
514.926720
 30
0.0
 10
818.619410
 20
514.926715
 30
0.0
 10
814.816812
 20
516.501800
 30
0.0
 10
812.013139
 20
519.305473
 30
0.0
  0
SPLINE
  5
38b
100
AcDbEntity
  8
Calque_1
 62
3
100
AcDbSpline
 70
8
 71
3
 72
8
 73
4
 74
0
 40
0
 40
0
 40
0
 40
0
 40
1
 40
1
 40
1
 40
1
 10
812.013139
 20
519.305473
 30
0.0
 10
809.209466
 20
522.109146
 30
0.0
 10
807.634381
 20
525.911744
 30
0.0
 10
807.634385
 20
529.876736
 30
0.0
  0
SPLINE
  5
38c
100
AcDbEntity
  8
Calque_1
 62
3
100
AcDbSpline
 70
8
 71
3
 72
8
 73
4
 74
0
 40
0
 40
0
 40
0
 40
0
 40
1
 40
1
 40
1
 40
1
 10
807.634385
 20
529.876736
 30
0.0
 10
807.634389
 20
533.841723
 30
0.0
 10
809.209477
 20
537.644314
 30
0.0
 10
812.013149
 20
540.447980
 30
0.0
  0
SPLINE
  5
38d
100
AcDbEntity
  8
Calque_1
 62
3
100
AcDbSpline
 70
8
 71
3
 72
8
 73
4
 74
0
 40
0
 40
0
 40
0
 40
0
 40
1
 40
1
 40
1
 40
1
 10
812.013149
 20
540.447980
 30
0.0
 10
814.816821
 20
543.251647
 30
0.0
 10
818.619415
 20
544.826728
 30
0.0
 10
822.584402
 20
544.826724
 30
0.0
  0
SPLINE
  5
38e
100
AcDbEntity
  8
Calque_1
 62
3
100
AcDbSpline
 70
8
 71
3
 72
8
 73
4
 74
0
 40
0
 40
0
 40
0
 40
0
 40
1
 40
1
 40
1
 40
1
 10
822.584402
 20
544.826724
 30
0.0
 10
830.841050
 20
544.826717
 30
0.0
 10
837.534383
 20
538.133384
 30
0.0
 10
837.534390
 20
529.876736
 30
0.0
  0
LINE
  5
38f
100
AcDbEntity
  8
Calque_1
 62
3
100
AcDbLine
 10
837.534390
 20
529.876736
 30
0.0
 11
837.534390
 21
529.876736
 31
0.0
  0
SPLINE
  5
390
100
AcDbEntity
  8
Calque_1
 62
1
100
AcDbSpline
 70
8
 71
3
 72
8
 73
4
 74
0
 40
0
 40
0
 40
0
 40
0
 40
1
 40
1
 40
1
 40
1
 10
917.882378
 20
532.326707
 30
0.0
 10
916.529291
 20
532.326707
 30
0.0
 10
915.432378
 20
531.229794
 30
0.0
 10
915.432378
 20
529.876736
 30
0.0
  0
SPLINE
  5
391
100
AcDbEntity
  8
Calque_1
 62
1
100
AcDbSpline
 70
8
 71
3
 72
8
 73
4
 74
0
 40
0
 40
0
 40
0
 40
0
 40
1
 40
1
 40
1
 40
1
 10
915.432378
 20
529.876736
 30
0.0
 10
915.432378
 20
528.523622
 30
0.0
 10
916.529291
 20
527.426765
 30
0.0
 10
917.882378
 20
527.426765
 30
0.0
  0
LINE
  5
392
100
AcDbEntity
  8
Calque_1
 62
1
100
AcDbLine
 10
917.882378
 20
527.426765
 30
0.0
 11
919.962327
 21
527.426765
 31
0.0
  0
SPLINE
  5
393
100
AcDbEntity
  8
Calque_1
 62
1
100
AcDbSpline
 70
8
 71
3
 72
8
 73
4
 74
0
 40
0
 40
0
 40
0
 40
0
 40
1
 40
1
 40
1
 40
1
 10
919.962327
 20
527.426765
 30
0.0
 10
921.315413
 20
527.426765
 30
0.0
 10
922.412326
 20
528.523622
 30
0.0
 10
922.412326
 20
529.876736
 30
0.0
  0
SPLINE
  5
394
100
AcDbEntity
  8
Calque_1
 62
1
100
AcDbSpline
 70
8
 71
3
 72
8
 73
4
 74
0
 40
0
 40
0
 40
0
 40
0
 40
1
 40
1
 40
1
 40
1
 10
922.412326
 20
529.876736
 30
0.0
 10
922.412326
 20
531.229794
 30
0.0
 10
921.315413
 20
532.326707
 30
0.0
 10
919.962327
 20
532.326707
 30
0.0
  0
LINE
  5
395
100
AcDbEntity
  8
Calque_1
 62
1
100
AcDbLine
 10
919.962327
 20
532.326707
 30
0.0
 11
917.882378
 21
532.326707
 31
0.0
  0
SPLINE
  5
396
100
AcDbEntity
  8
Calque_1
 62
3
100
AcDbSpline
 70
8
 71
3
 72
8
 73
4
 74
0
 40
0
 40
0
 40
0
 40
0
 40
1
 40
1
 40
1
 40
1
 10
933.872383
 20
529.876736
 30
0.0
 10
933.872387
 20
525.911749
 30
0.0
 10
932.297306
 20
522.109155
 30
0.0
 10
929.493639
 20
519.305483
 30
0.0
  0
SPLINE
  5
397
100
AcDbEntity
  8
Calque_1
 62
3
100
AcDbSpline
 70
8
 71
3
 72
8
 73
4
 74
0
 40
0
 40
0
 40
0
 40
0
 40
1
 40
1
 40
1
 40
1
 10
929.493639
 20
519.305483
 30
0.0
 10
926.689972
 20
516.501811
 30
0.0
 10
922.887382
 20
514.926723
 30
0.0
 10
918.922395
 20
514.926720
 30
0.0
  0
SPLINE
  5
398
100
AcDbEntity
  8
Calque_1
 62
3
100
AcDbSpline
 70
8
 71
3
 72
8
 73
4
 74
0
 40
0
 40
0
 40
0
 40
0
 40
1
 40
1
 40
1
 40
1
 10
918.922395
 20
514.926720
 30
0.0
 10
914.957403
 20
514.926715
 30
0.0
 10
911.154805
 20
516.501800
 30
0.0
 10
908.351132
 20
519.305473
 30
0.0
  0
SPLINE
  5
399
100
AcDbEntity
  8
Calque_1
 62
3
100
AcDbSpline
 70
8
 71
3
 72
8
 73
4
 74
0
 40
0
 40
0
 40
0
 40
0
 40
1
 40
1
 40
1
 40
1
 10
908.351132
 20
519.305473
 30
0.0
 10
905.547459
 20
522.109146
 30
0.0
 10
903.972374
 20
525.911744
 30
0.0
 10
903.972378
 20
529.876736
 30
0.0
  0
SPLINE
  5
39a
100
AcDbEntity
  8
Calque_1
 62
3
100
AcDbSpline
 70
8
 71
3
 72
8
 73
4
 74
0
 40
0
 40
0
 40
0
 40
0
 40
1
 40
1
 40
1
 40
1
 10
903.972378
 20
529.876736
 30
0.0
 10
903.972382
 20
533.841723
 30
0.0
 10
905.547470
 20
537.644314
 30
0.0
 10
908.351142
 20
540.447980
 30
0.0
  0
SPLINE
  5
39b
100
AcDbEntity
  8
Calque_1
 62
3
100
AcDbSpline
 70
8
 71
3
 72
8
 73
4
 74
0
 40
0
 40
0
 40
0
 40
0
 40
1
 40
1
 40
1
 40
1
 10
908.351142
 20
540.447980
 30
0.0
 10
911.154814
 20
543.251647
 30
0.0
 10
914.957407
 20
544.826728
 30
0.0
 10
918.922395
 20
544.826724
 30
0.0
  0
SPLINE
  5
39c
100
AcDbEntity
  8
Calque_1
 62
3
100
AcDbSpline
 70
8
 71
3
 72
8
 73
4
 74
0
 40
0
 40
0
 40
0
 40
0
 40
1
 40
1
 40
1
 40
1
 10
918.922395
 20
544.826724
 30
0.0
 10
927.179042
 20
544.826717
 30
0.0
 10
933.872376
 20
538.133384
 30
0.0
 10
933.872383
 20
529.876736
 30
0.0
  0
LINE
  5
39d
100
AcDbEntity
  8
Calque_1
 62
3
100
AcDbLine
 10
933.872383
 20
529.876736
 30
0.0
 11
933.872383
 21
529.876736
 31
0.0
  0
SPLINE
  5
39e
100
AcDbEntity
  8
Calque_1
 62
1
100
AcDbSpline
 70
8
 71
3
 72
8
 73
4
 74
0
 40
0
 40
0
 40
0
 40
0
 40
1
 40
1
 40
1
 40
1
 10
645.309071
 20
475.389961
 30
0.0
 10
644.858200
 20
475.389963
 30
0.0
 10
644.425797
 20
475.569073
 30
0.0
 10
644.106986
 20
475.887889
 30
0.0
  0
SPLINE
  5
39f
100
AcDbEntity
  8
Calque_1
 62
1
100
AcDbSpline
 70
8
 71
3
 72
8
 73
4
 74
0
 40
0
 40
0
 40
0
 40
0
 40
1
 40
1
 40
1
 40
1
 10
644.106986
 20
475.887889
 30
0.0
 10
643.788175
 20
476.206706
 30
0.0
 10
643.609072
 20
476.639112
 30
0.0
 10
643.609077
 20
477.089983
 30
0.0
  0
SPLINE
  5
3a0
100
AcDbEntity
  8
Calque_1
 62
1
100
AcDbSpline
 70
8
 71
3
 72
8
 73
4
 74
0
 40
0
 40
0
 40
0
 40
0
 40
1
 40
1
 40
1
 40
1
 10
643.609077
 20
477.089983
 30
0.0
 10
643.609081
 20
478.028862
 30
0.0
 10
644.370192
 20
478.789973
 30
0.0
 10
645.309071
 20
478.789977
 30
0.0
  0
SPLINE
  5
3a1
100
AcDbEntity
  8
Calque_1
 62
1
100
AcDbSpline
 70
8
 71
3
 72
8
 73
4
 74
0
 40
0
 40
0
 40
0
 40
0
 40
1
 40
1
 40
1
 40
1
 10
645.309071
 20
478.789977
 30
0.0
 10
646.247950
 20
478.789973
 30
0.0
 10
647.009061
 20
478.028862
 30
0.0
 10
647.009065
 20
477.089983
 30
0.0
  0
SPLINE
  5
3a2
100
AcDbEntity
  8
Calque_1
 62
1
100
AcDbSpline
 70
8
 71
3
 72
8
 73
4
 74
0
 40
0
 40
0
 40
0
 40
0
 40
1
 40
1
 40
1
 40
1
 10
647.009065
 20
477.089983
 30
0.0
 10
647.009071
 20
476.639112
 30
0.0
 10
646.829968
 20
476.206706
 30
0.0
 10
646.511156
 20
475.887889
 30
0.0
  0
SPLINE
  5
3a3
100
AcDbEntity
  8
Calque_1
 62
1
100
AcDbSpline
 70
8
 71
3
 72
8
 73
4
 74
0
 40
0
 40
0
 40
0
 40
0
 40
1
 40
1
 40
1
 40
1
 10
646.511156
 20
475.887889
 30
0.0
 10
646.192345
 20
475.569073
 30
0.0
 10
645.759942
 20
475.389963
 30
0.0
 10
645.309071
 20
475.389961
 30
0.0
  0
LINE
  5
3a4
100
AcDbEntity
  8
Calque_1
 62
1
100
AcDbLine
 10
645.309071
 20
475.389961
 30
0.0
 11
645.309071
 21
475.389961
 31
0.0
  0
LINE
  5
3a5
100
AcDbEntity
  8
Calque_1
 62
3
100
AcDbLine
 10
635.359079
 20
487.039987
 30
0.0
 11
653.545760
 21
487.039987
 31
0.0
  0
LINE
  5
3a6
100
AcDbEntity
  8
Calque_1
 62
3
100
AcDbLine
 10
653.545760
 20
487.039987
 30
0.0
 11
653.545760
 21
468.853277
 31
0.0
  0
LINE
  5
3a7
100
AcDbEntity
  8
Calque_1
 62
3
100
AcDbLine
 10
653.545760
 20
468.853277
 30
0.0
 11
635.359079
 21
468.853277
 31
0.0
  0
LINE
  5
3a8
100
AcDbEntity
  8
Calque_1
 62
3
100
AcDbLine
 10
635.359079
 20
468.853277
 30
0.0
 11
635.359079
 21
487.039987
 31
0.0
  0
SPLINE
  5
3a9
100
AcDbEntity
  8
Calque_1
 62
1
100
AcDbSpline
 70
8
 71
3
 72
8
 73
4
 74
0
 40
0
 40
0
 40
0
 40
0
 40
1
 40
1
 40
1
 40
1
 10
645.309059
 20
446.423332
 30
0.0
 10
644.858188
 20
446.423330
 30
0.0
 10
644.425784
 20
446.244220
 30
0.0
 10
644.106973
 20
445.925403
 30
0.0
  0
SPLINE
  5
3aa
100
AcDbEntity
  8
Calque_1
 62
1
100
AcDbSpline
 70
8
 71
3
 72
8
 73
4
 74
0
 40
0
 40
0
 40
0
 40
0
 40
1
 40
1
 40
1
 40
1
 10
644.106973
 20
445.925403
 30
0.0
 10
643.788162
 20
445.606587
 30
0.0
 10
643.609059
 20
445.174181
 30
0.0
 10
643.609065
 20
444.723310
 30
0.0
  0
SPLINE
  5
3ab
100
AcDbEntity
  8
Calque_1
 62
1
100
AcDbSpline
 70
8
 71
3
 72
8
 73
4
 74
0
 40
0
 40
0
 40
0
 40
0
 40
1
 40
1
 40
1
 40
1
 10
643.609065
 20
444.723310
 30
0.0
 10
643.609068
 20
443.784431
 30
0.0
 10
644.370179
 20
443.023320
 30
0.0
 10
645.309059
 20
443.023316
 30
0.0
  0
SPLINE
  5
3ac
100
AcDbEntity
  8
Calque_1
 62
1
100
AcDbSpline
 70
8
 71
3
 72
8
 73
4
 74
0
 40
0
 40
0
 40
0
 40
0
 40
1
 40
1
 40
1
 40
1
 10
645.309059
 20
443.023316
 30
0.0
 10
646.247938
 20
443.023320
 30
0.0
 10
647.009049
 20
443.784431
 30
0.0
 10
647.009052
 20
444.723310
 30
0.0
  0
SPLINE
  5
3ad
100
AcDbEntity
  8
Calque_1
 62
1
100
AcDbSpline
 70
8
 71
3
 72
8
 73
4
 74
0
 40
0
 40
0
 40
0
 40
0
 40
1
 40
1
 40
1
 40
1
 10
647.009052
 20
444.723310
 30
0.0
 10
647.009058
 20
445.174181
 30
0.0
 10
646.829955
 20
445.606587
 30
0.0
 10
646.511144
 20
445.925403
 30
0.0
  0
SPLINE
  5
3ae
100
AcDbEntity
  8
Calque_1
 62
1
100
AcDbSpline
 70
8
 71
3
 72
8
 73
4
 74
0
 40
0
 40
0
 40
0
 40
0
 40
1
 40
1
 40
1
 40
1
 10
646.511144
 20
445.925403
 30
0.0
 10
646.192333
 20
446.244220
 30
0.0
 10
645.759929
 20
446.423330
 30
0.0
 10
645.309059
 20
446.423332
 30
0.0
  0
LINE
  5
3af
100
AcDbEntity
  8
Calque_1
 62
1
100
AcDbLine
 10
645.309059
 20
446.423332
 30
0.0
 11
645.309059
 21
446.423332
 31
0.0
  0
LINE
  5
3b0
100
AcDbEntity
  8
Calque_1
 62
3
100
AcDbLine
 10
635.359066
 20
434.773306
 30
0.0
 11
653.545747
 21
434.773306
 31
0.0
  0
LINE
  5
3b1
100
AcDbEntity
  8
Calque_1
 62
3
100
AcDbLine
 10
653.545747
 20
434.773306
 30
0.0
 11
653.545747
 21
452.960016
 31
0.0
  0
LINE
  5
3b2
100
AcDbEntity
  8
Calque_1
 62
3
100
AcDbLine
 10
653.545747
 20
452.960016
 30
0.0
 11
635.359066
 21
452.960016
 31
0.0
  0
LINE
  5
3b3
100
AcDbEntity
  8
Calque_1
 62
3
100
AcDbLine
 10
635.359066
 20
452.960016
 30
0.0
 11
635.359066
 21
434.773306
 31
0.0
  0
SPLINE
  5
3b4
100
AcDbEntity
  8
Calque_1
 62
1
100
AcDbSpline
 70
8
 71
3
 72
8
 73
4
 74
0
 40
0
 40
0
 40
0
 40
0
 40
1
 40
1
 40
1
 40
1
 10
779.009104
 20
475.389974
 30
0.0
 10
779.459975
 20
475.389975
 30
0.0
 10
779.892378
 20
475.569086
 30
0.0
 10
780.211190
 20
475.887902
 30
0.0
  0
SPLINE
  5
3b5
100
AcDbEntity
  8
Calque_1
 62
1
100
AcDbSpline
 70
8
 71
3
 72
8
 73
4
 74
0
 40
0
 40
0
 40
0
 40
0
 40
1
 40
1
 40
1
 40
1
 10
780.211190
 20
475.887902
 30
0.0
 10
780.530001
 20
476.206718
 30
0.0
 10
780.709104
 20
476.639125
 30
0.0
 10
780.709098
 20
477.089996
 30
0.0
  0
SPLINE
  5
3b6
100
AcDbEntity
  8
Calque_1
 62
1
100
AcDbSpline
 70
8
 71
3
 72
8
 73
4
 74
0
 40
0
 40
0
 40
0
 40
0
 40
1
 40
1
 40
1
 40
1
 10
780.709098
 20
477.089996
 30
0.0
 10
780.709095
 20
478.028875
 30
0.0
 10
779.947984
 20
478.789986
 30
0.0
 10
779.009104
 20
478.789989
 30
0.0
  0
SPLINE
  5
3b7
100
AcDbEntity
  8
Calque_1
 62
1
100
AcDbSpline
 70
8
 71
3
 72
8
 73
4
 74
0
 40
0
 40
0
 40
0
 40
0
 40
1
 40
1
 40
1
 40
1
 10
779.009104
 20
478.789989
 30
0.0
 10
778.070225
 20
478.789986
 30
0.0
 10
777.309114
 20
478.028875
 30
0.0
 10
777.309111
 20
477.089996
 30
0.0
  0
SPLINE
  5
3b8
100
AcDbEntity
  8
Calque_1
 62
1
100
AcDbSpline
 70
8
 71
3
 72
8
 73
4
 74
0
 40
0
 40
0
 40
0
 40
0
 40
1
 40
1
 40
1
 40
1
 10
777.309111
 20
477.089996
 30
0.0
 10
777.309105
 20
476.639125
 30
0.0
 10
777.488208
 20
476.206718
 30
0.0
 10
777.807019
 20
475.887902
 30
0.0
  0
SPLINE
  5
3b9
100
AcDbEntity
  8
Calque_1
 62
1
100
AcDbSpline
 70
8
 71
3
 72
8
 73
4
 74
0
 40
0
 40
0
 40
0
 40
0
 40
1
 40
1
 40
1
 40
1
 10
777.807019
 20
475.887902
 30
0.0
 10
778.125830
 20
475.569086
 30
0.0
 10
778.558234
 20
475.389975
 30
0.0
 10
779.009104
 20
475.389974
 30
0.0
  0
LINE
  5
3ba
100
AcDbEntity
  8
Calque_1
 62
1
100
AcDbLine
 10
779.009104
 20
475.389974
 30
0.0
 11
779.009104
 21
475.389974
 31
0.0
  0
LINE
  5
3bb
100
AcDbEntity
  8
Calque_1
 62
3
100
AcDbLine
 10
788.959097
 20
487.039999
 30
0.0
 11
770.772415
 21
487.039999
 31
0.0
  0
LINE
  5
3bc
100
AcDbEntity
  8
Calque_1
 62
3
100
AcDbLine
 10
770.772415
 20
487.039999
 30
0.0
 11
770.772415
 21
468.853290
 31
0.0
  0
LINE
  5
3bd
100
AcDbEntity
  8
Calque_1
 62
3
100
AcDbLine
 10
770.772415
 20
468.853290
 30
0.0
 11
788.959097
 21
468.853290
 31
0.0
  0
LINE
  5
3be
100
AcDbEntity
  8
Calque_1
 62
3
100
AcDbLine
 10
788.959097
 20
468.853290
 30
0.0
 11
788.959097
 21
487.039999
 31
0.0
  0
SPLINE
  5
3bf
100
AcDbEntity
  8
Calque_1
 62
1
100
AcDbSpline
 70
8
 71
3
 72
8
 73
4
 74
0
 40
0
 40
0
 40
0
 40
0
 40
1
 40
1
 40
1
 40
1
 10
779.009148
 20
446.423384
 30
0.0
 10
779.460019
 20
446.423382
 30
0.0
 10
779.892422
 20
446.244272
 30
0.0
 10
780.211233
 20
445.925455
 30
0.0
  0
SPLINE
  5
3c0
100
AcDbEntity
  8
Calque_1
 62
1
100
AcDbSpline
 70
8
 71
3
 72
8
 73
4
 74
0
 40
0
 40
0
 40
0
 40
0
 40
1
 40
1
 40
1
 40
1
 10
780.211233
 20
445.925455
 30
0.0
 10
780.530045
 20
445.606639
 30
0.0
 10
780.709148
 20
445.174233
 30
0.0
 10
780.709142
 20
444.723362
 30
0.0
  0
SPLINE
  5
3c1
100
AcDbEntity
  8
Calque_1
 62
1
100
AcDbSpline
 70
8
 71
3
 72
8
 73
4
 74
0
 40
0
 40
0
 40
0
 40
0
 40
1
 40
1
 40
1
 40
1
 10
780.709142
 20
444.723362
 30
0.0
 10
780.709138
 20
443.784483
 30
0.0
 10
779.948027
 20
443.023372
 30
0.0
 10
779.009148
 20
443.023368
 30
0.0
  0
SPLINE
  5
3c2
100
AcDbEntity
  8
Calque_1
 62
1
100
AcDbSpline
 70
8
 71
3
 72
8
 73
4
 74
0
 40
0
 40
0
 40
0
 40
0
 40
1
 40
1
 40
1
 40
1
 10
779.009148
 20
443.023368
 30
0.0
 10
778.070269
 20
443.023372
 30
0.0
 10
777.309158
 20
443.784483
 30
0.0
 10
777.309154
 20
444.723362
 30
0.0
  0
SPLINE
  5
3c3
100
AcDbEntity
  8
Calque_1
 62
1
100
AcDbSpline
 70
8
 71
3
 72
8
 73
4
 74
0
 40
0
 40
0
 40
0
 40
0
 40
1
 40
1
 40
1
 40
1
 10
777.309154
 20
444.723362
 30
0.0
 10
777.309149
 20
445.174233
 30
0.0
 10
777.488252
 20
445.606639
 30
0.0
 10
777.807063
 20
445.925455
 30
0.0
  0
SPLINE
  5
3c4
100
AcDbEntity
  8
Calque_1
 62
1
100
AcDbSpline
 70
8
 71
3
 72
8
 73
4
 74
0
 40
0
 40
0
 40
0
 40
0
 40
1
 40
1
 40
1
 40
1
 10
777.807063
 20
445.925455
 30
0.0
 10
778.125874
 20
446.244272
 30
0.0
 10
778.558277
 20
446.423382
 30
0.0
 10
779.009148
 20
446.423384
 30
0.0
  0
LINE
  5
3c5
100
AcDbEntity
  8
Calque_1
 62
1
100
AcDbLine
 10
779.009148
 20
446.423384
 30
0.0
 11
779.009148
 21
446.423384
 31
0.0
  0
LINE
  5
3c6
100
AcDbEntity
  8
Calque_1
 62
3
100
AcDbLine
 10
788.959141
 20
434.773358
 30
0.0
 11
770.772459
 21
434.773358
 31
0.0
  0
LINE
  5
3c7
100
AcDbEntity
  8
Calque_1
 62
3
100
AcDbLine
 10
770.772459
 20
434.773358
 30
0.0
 11
770.772459
 21
452.960068
 31
0.0
  0
LINE
  5
3c8
100
AcDbEntity
  8
Calque_1
 62
3
100
AcDbLine
 10
770.772459
 20
452.960068
 30
0.0
 11
788.959141
 21
452.960068
 31
0.0
  0
LINE
  5
3c9
100
AcDbEntity
  8
Calque_1
 62
3
100
AcDbLine
 10
788.959141
 20
452.960068
 30
0.0
 11
788.959141
 21
434.773358
 31
0.0
  0
SPLINE
  5
3ca
100
AcDbEntity
  8
Calque_1
 62
1
100
AcDbSpline
 70
8
 71
3
 72
8
 73
4
 74
0
 40
0
 40
0
 40
0
 40
0
 40
1
 40
1
 40
1
 40
1
 10
808.509063
 20
475.389961
 30
0.0
 10
808.058192
 20
475.389963
 30
0.0
 10
807.625789
 20
475.569073
 30
0.0
 10
807.306977
 20
475.887889
 30
0.0
  0
SPLINE
  5
3cb
100
AcDbEntity
  8
Calque_1
 62
1
100
AcDbSpline
 70
8
 71
3
 72
8
 73
4
 74
0
 40
0
 40
0
 40
0
 40
0
 40
1
 40
1
 40
1
 40
1
 10
807.306977
 20
475.887889
 30
0.0
 10
806.988166
 20
476.206706
 30
0.0
 10
806.809063
 20
476.639112
 30
0.0
 10
806.809069
 20
477.089983
 30
0.0
  0
SPLINE
  5
3cc
100
AcDbEntity
  8
Calque_1
 62
1
100
AcDbSpline
 70
8
 71
3
 72
8
 73
4
 74
0
 40
0
 40
0
 40
0
 40
0
 40
1
 40
1
 40
1
 40
1
 10
806.809069
 20
477.089983
 30
0.0
 10
806.809072
 20
478.028862
 30
0.0
 10
807.570184
 20
478.789973
 30
0.0
 10
808.509063
 20
478.789977
 30
0.0
  0
SPLINE
  5
3cd
100
AcDbEntity
  8
Calque_1
 62
1
100
AcDbSpline
 70
8
 71
3
 72
8
 73
4
 74
0
 40
0
 40
0
 40
0
 40
0
 40
1
 40
1
 40
1
 40
1
 10
808.509063
 20
478.789977
 30
0.0
 10
809.447942
 20
478.789973
 30
0.0
 10
810.209053
 20
478.028862
 30
0.0
 10
810.209056
 20
477.089983
 30
0.0
  0
SPLINE
  5
3ce
100
AcDbEntity
  8
Calque_1
 62
1
100
AcDbSpline
 70
8
 71
3
 72
8
 73
4
 74
0
 40
0
 40
0
 40
0
 40
0
 40
1
 40
1
 40
1
 40
1
 10
810.209056
 20
477.089983
 30
0.0
 10
810.209062
 20
476.639112
 30
0.0
 10
810.029959
 20
476.206706
 30
0.0
 10
809.711148
 20
475.887889
 30
0.0
  0
SPLINE
  5
3cf
100
AcDbEntity
  8
Calque_1
 62
1
100
AcDbSpline
 70
8
 71
3
 72
8
 73
4
 74
0
 40
0
 40
0
 40
0
 40
0
 40
1
 40
1
 40
1
 40
1
 10
809.711148
 20
475.887889
 30
0.0
 10
809.392337
 20
475.569073
 30
0.0
 10
808.959933
 20
475.389963
 30
0.0
 10
808.509063
 20
475.389961
 30
0.0
  0
LINE
  5
3d0
100
AcDbEntity
  8
Calque_1
 62
1
100
AcDbLine
 10
808.509063
 20
475.389961
 30
0.0
 11
808.509063
 21
475.389961
 31
0.0
  0
LINE
  5
3d1
100
AcDbEntity
  8
Calque_1
 62
3
100
AcDbLine
 10
798.559070
 20
487.039987
 30
0.0
 11
816.745752
 21
487.039987
 31
0.0
  0
LINE
  5
3d2
100
AcDbEntity
  8
Calque_1
 62
3
100
AcDbLine
 10
816.745752
 20
487.039987
 30
0.0
 11
816.745752
 21
468.853277
 31
0.0
  0
LINE
  5
3d3
100
AcDbEntity
  8
Calque_1
 62
3
100
AcDbLine
 10
816.745752
 20
468.853277
 30
0.0
 11
798.559070
 21
468.853277
 31
0.0
  0
LINE
  5
3d4
100
AcDbEntity
  8
Calque_1
 62
3
100
AcDbLine
 10
798.559070
 20
468.853277
 30
0.0
 11
798.559070
 21
487.039987
 31
0.0
  0
SPLINE
  5
3d5
100
AcDbEntity
  8
Calque_1
 62
1
100
AcDbSpline
 70
8
 71
3
 72
8
 73
4
 74
0
 40
0
 40
0
 40
0
 40
0
 40
1
 40
1
 40
1
 40
1
 10
808.509050
 20
446.423332
 30
0.0
 10
808.058179
 20
446.423330
 30
0.0
 10
807.625776
 20
446.244220
 30
0.0
 10
807.306965
 20
445.925403
 30
0.0
  0
SPLINE
  5
3d6
100
AcDbEntity
  8
Calque_1
 62
1
100
AcDbSpline
 70
8
 71
3
 72
8
 73
4
 74
0
 40
0
 40
0
 40
0
 40
0
 40
1
 40
1
 40
1
 40
1
 10
807.306965
 20
445.925403
 30
0.0
 10
806.988154
 20
445.606587
 30
0.0
 10
806.809051
 20
445.174181
 30
0.0
 10
806.809056
 20
444.723310
 30
0.0
  0
SPLINE
  5
3d7
100
AcDbEntity
  8
Calque_1
 62
1
100
AcDbSpline
 70
8
 71
3
 72
8
 73
4
 74
0
 40
0
 40
0
 40
0
 40
0
 40
1
 40
1
 40
1
 40
1
 10
806.809056
 20
444.723310
 30
0.0
 10
806.809060
 20
443.784431
 30
0.0
 10
807.570171
 20
443.023320
 30
0.0
 10
808.509050
 20
443.023316
 30
0.0
  0
SPLINE
  5
3d8
100
AcDbEntity
  8
Calque_1
 62
1
100
AcDbSpline
 70
8
 71
3
 72
8
 73
4
 74
0
 40
0
 40
0
 40
0
 40
0
 40
1
 40
1
 40
1
 40
1
 10
808.509050
 20
443.023316
 30
0.0
 10
809.447929
 20
443.023320
 30
0.0
 10
810.209040
 20
443.784431
 30
0.0
 10
810.209044
 20
444.723310
 30
0.0
  0
SPLINE
  5
3d9
100
AcDbEntity
  8
Calque_1
 62
1
100
AcDbSpline
 70
8
 71
3
 72
8
 73
4
 74
0
 40
0
 40
0
 40
0
 40
0
 40
1
 40
1
 40
1
 40
1
 10
810.209044
 20
444.723310
 30
0.0
 10
810.209050
 20
445.174181
 30
0.0
 10
810.029946
 20
445.606587
 30
0.0
 10
809.711135
 20
445.925403
 30
0.0
  0
SPLINE
  5
3da
100
AcDbEntity
  8
Calque_1
 62
1
100
AcDbSpline
 70
8
 71
3
 72
8
 73
4
 74
0
 40
0
 40
0
 40
0
 40
0
 40
1
 40
1
 40
1
 40
1
 10
809.711135
 20
445.925403
 30
0.0
 10
809.392324
 20
446.244220
 30
0.0
 10
808.959921
 20
446.423330
 30
0.0
 10
808.509050
 20
446.423332
 30
0.0
  0
LINE
  5
3db
100
AcDbEntity
  8
Calque_1
 62
1
100
AcDbLine
 10
808.509050
 20
446.423332
 30
0.0
 11
808.509050
 21
446.423332
 31
0.0
  0
LINE
  5
3dc
100
AcDbEntity
  8
Calque_1
 62
3
100
AcDbLine
 10
798.559058
 20
434.773306
 30
0.0
 11
816.745739
 21
434.773306
 31
0.0
  0
LINE
  5
3dd
100
AcDbEntity
  8
Calque_1
 62
3
100
AcDbLine
 10
816.745739
 20
434.773306
 30
0.0
 11
816.745739
 21
452.960016
 31
0.0
  0
LINE
  5
3de
100
AcDbEntity
  8
Calque_1
 62
3
100
AcDbLine
 10
816.745739
 20
452.960016
 30
0.0
 11
798.559058
 21
452.960016
 31
0.0
  0
LINE
  5
3df
100
AcDbEntity
  8
Calque_1
 62
3
100
AcDbLine
 10
798.559058
 20
452.960016
 30
0.0
 11
798.559058
 21
434.773306
 31
0.0
  0
SPLINE
  5
3e0
100
AcDbEntity
  8
Calque_1
 62
1
100
AcDbSpline
 70
8
 71
3
 72
8
 73
4
 74
0
 40
0
 40
0
 40
0
 40
0
 40
1
 40
1
 40
1
 40
1
 10
942.209096
 20
475.389974
 30
0.0
 10
942.659967
 20
475.389975
 30
0.0
 10
943.092370
 20
475.569086
 30
0.0
 10
943.411181
 20
475.887902
 30
0.0
  0
SPLINE
  5
3e1
100
AcDbEntity
  8
Calque_1
 62
1
100
AcDbSpline
 70
8
 71
3
 72
8
 73
4
 74
0
 40
0
 40
0
 40
0
 40
0
 40
1
 40
1
 40
1
 40
1
 10
943.411181
 20
475.887902
 30
0.0
 10
943.729992
 20
476.206718
 30
0.0
 10
943.909095
 20
476.639125
 30
0.0
 10
943.909090
 20
477.089996
 30
0.0
  0
SPLINE
  5
3e2
100
AcDbEntity
  8
Calque_1
 62
1
100
AcDbSpline
 70
8
 71
3
 72
8
 73
4
 74
0
 40
0
 40
0
 40
0
 40
0
 40
1
 40
1
 40
1
 40
1
 10
943.909090
 20
477.089996
 30
0.0
 10
943.909086
 20
478.028875
 30
0.0
 10
943.147975
 20
478.789986
 30
0.0
 10
942.209096
 20
478.789989
 30
0.0
  0
SPLINE
  5
3e3
100
AcDbEntity
  8
Calque_1
 62
1
100
AcDbSpline
 70
8
 71
3
 72
8
 73
4
 74
0
 40
0
 40
0
 40
0
 40
0
 40
1
 40
1
 40
1
 40
1
 10
942.209096
 20
478.789989
 30
0.0
 10
941.270217
 20
478.789986
 30
0.0
 10
940.509106
 20
478.028875
 30
0.0
 10
940.509102
 20
477.089996
 30
0.0
  0
SPLINE
  5
3e4
100
AcDbEntity
  8
Calque_1
 62
1
100
AcDbSpline
 70
8
 71
3
 72
8
 73
4
 74
0
 40
0
 40
0
 40
0
 40
0
 40
1
 40
1
 40
1
 40
1
 10
940.509102
 20
477.089996
 30
0.0
 10
940.509096
 20
476.639125
 30
0.0
 10
940.688200
 20
476.206718
 30
0.0
 10
941.007011
 20
475.887902
 30
0.0
  0
SPLINE
  5
3e5
100
AcDbEntity
  8
Calque_1
 62
1
100
AcDbSpline
 70
8
 71
3
 72
8
 73
4
 74
0
 40
0
 40
0
 40
0
 40
0
 40
1
 40
1
 40
1
 40
1
 10
941.007011
 20
475.887902
 30
0.0
 10
941.325822
 20
475.569086
 30
0.0
 10
941.758225
 20
475.389975
 30
0.0
 10
942.209096
 20
475.389974
 30
0.0
  0
LINE
  5
3e6
100
AcDbEntity
  8
Calque_1
 62
1
100
AcDbLine
 10
942.209096
 20
475.389974
 30
0.0
 11
942.209096
 21
475.389974
 31
0.0
  0
LINE
  5
3e7
100
AcDbEntity
  8
Calque_1
 62
3
100
AcDbLine
 10
952.159088
 20
487.039999
 30
0.0
 11
933.972407
 21
487.039999
 31
0.0
  0
LINE
  5
3e8
100
AcDbEntity
  8
Calque_1
 62
3
100
AcDbLine
 10
933.972407
 20
487.039999
 30
0.0
 11
933.972407
 21
468.853290
 31
0.0
  0
LINE
  5
3e9
100
AcDbEntity
  8
Calque_1
 62
3
100
AcDbLine
 10
933.972407
 20
468.853290
 30
0.0
 11
952.159088
 21
468.853290
 31
0.0
  0
LINE
  5
3ea
100
AcDbEntity
  8
Calque_1
 62
3
100
AcDbLine
 10
952.159088
 20
468.853290
 30
0.0
 11
952.159088
 21
487.039999
 31
0.0
  0
SPLINE
  5
3eb
100
AcDbEntity
  8
Calque_1
 62
1
100
AcDbSpline
 70
8
 71
3
 72
8
 73
4
 74
0
 40
0
 40
0
 40
0
 40
0
 40
1
 40
1
 40
1
 40
1
 10
942.209140
 20
446.423384
 30
0.0
 10
942.660010
 20
446.423382
 30
0.0
 10
943.092414
 20
446.244272
 30
0.0
 10
943.411225
 20
445.925455
 30
0.0
  0
SPLINE
  5
3ec
100
AcDbEntity
  8
Calque_1
 62
1
100
AcDbSpline
 70
8
 71
3
 72
8
 73
4
 74
0
 40
0
 40
0
 40
0
 40
0
 40
1
 40
1
 40
1
 40
1
 10
943.411225
 20
445.925455
 30
0.0
 10
943.730036
 20
445.606639
 30
0.0
 10
943.909139
 20
445.174233
 30
0.0
 10
943.909133
 20
444.723362
 30
0.0
  0
SPLINE
  5
3ed
100
AcDbEntity
  8
Calque_1
 62
1
100
AcDbSpline
 70
8
 71
3
 72
8
 73
4
 74
0
 40
0
 40
0
 40
0
 40
0
 40
1
 40
1
 40
1
 40
1
 10
943.909133
 20
444.723362
 30
0.0
 10
943.909130
 20
443.784483
 30
0.0
 10
943.148019
 20
443.023372
 30
0.0
 10
942.209140
 20
443.023368
 30
0.0
  0
SPLINE
  5
3ee
100
AcDbEntity
  8
Calque_1
 62
1
100
AcDbSpline
 70
8
 71
3
 72
8
 73
4
 74
0
 40
0
 40
0
 40
0
 40
0
 40
1
 40
1
 40
1
 40
1
 10
942.209140
 20
443.023368
 30
0.0
 10
941.270261
 20
443.023372
 30
0.0
 10
940.509149
 20
443.784483
 30
0.0
 10
940.509146
 20
444.723362
 30
0.0
  0
SPLINE
  5
3ef
100
AcDbEntity
  8
Calque_1
 62
1
100
AcDbSpline
 70
8
 71
3
 72
8
 73
4
 74
0
 40
0
 40
0
 40
0
 40
0
 40
1
 40
1
 40
1
 40
1
 10
940.509146
 20
444.723362
 30
0.0
 10
940.509140
 20
445.174233
 30
0.0
 10
940.688243
 20
445.606639
 30
0.0
 10
941.007054
 20
445.925455
 30
0.0
  0
SPLINE
  5
3f0
100
AcDbEntity
  8
Calque_1
 62
1
100
AcDbSpline
 70
8
 71
3
 72
8
 73
4
 74
0
 40
0
 40
0
 40
0
 40
0
 40
1
 40
1
 40
1
 40
1
 10
941.007054
 20
445.925455
 30
0.0
 10
941.325866
 20
446.244272
 30
0.0
 10
941.758269
 20
446.423382
 30
0.0
 10
942.209140
 20
446.423384
 30
0.0
  0
LINE
  5
3f1
100
AcDbEntity
  8
Calque_1
 62
1
100
AcDbLine
 10
942.209140
 20
446.423384
 30
0.0
 11
942.209140
 21
446.423384
 31
0.0
  0
LINE
  5
3f2
100
AcDbEntity
  8
Calque_1
 62
3
100
AcDbLine
 10
952.159132
 20
434.773358
 30
0.0
 11
933.972450
 21
434.773358
 31
0.0
  0
LINE
  5
3f3
100
AcDbEntity
  8
Calque_1
 62
3
100
AcDbLine
 10
933.972450
 20
434.773358
 30
0.0
 11
933.972450
 21
452.960068
 31
0.0
  0
LINE
  5
3f4
100
AcDbEntity
  8
Calque_1
 62
3
100
AcDbLine
 10
933.972450
 20
452.960068
 30
0.0
 11
952.159132
 21
452.960068
 31
0.0
  0
LINE
  5
3f5
100
AcDbEntity
  8
Calque_1
 62
3
100
AcDbLine
 10
952.159132
 20
452.960068
 30
0.0
 11
952.159132
 21
434.773358
 31
0.0
  0
SPLINE
  5
3f6
100
AcDbEntity
  8
Calque_1
 62
1
100
AcDbSpline
 70
8
 71
3
 72
8
 73
4
 74
0
 40
0
 40
0
 40
0
 40
0
 40
1
 40
1
 40
1
 40
1
 10
808.509063
 20
413.523323
 30
0.0
 10
808.058192
 20
413.523325
 30
0.0
 10
807.625789
 20
413.702435
 30
0.0
 10
807.306977
 20
414.021252
 30
0.0
  0
SPLINE
  5
3f7
100
AcDbEntity
  8
Calque_1
 62
1
100
AcDbSpline
 70
8
 71
3
 72
8
 73
4
 74
0
 40
0
 40
0
 40
0
 40
0
 40
1
 40
1
 40
1
 40
1
 10
807.306977
 20
414.021252
 30
0.0
 10
806.988166
 20
414.340068
 30
0.0
 10
806.809063
 20
414.772475
 30
0.0
 10
806.809069
 20
415.223345
 30
0.0
  0
SPLINE
  5
3f8
100
AcDbEntity
  8
Calque_1
 62
1
100
AcDbSpline
 70
8
 71
3
 72
8
 73
4
 74
0
 40
0
 40
0
 40
0
 40
0
 40
1
 40
1
 40
1
 40
1
 10
806.809069
 20
415.223345
 30
0.0
 10
806.809072
 20
416.162225
 30
0.0
 10
807.570184
 20
416.923336
 30
0.0
 10
808.509063
 20
416.923339
 30
0.0
  0
SPLINE
  5
3f9
100
AcDbEntity
  8
Calque_1
 62
1
100
AcDbSpline
 70
8
 71
3
 72
8
 73
4
 74
0
 40
0
 40
0
 40
0
 40
0
 40
1
 40
1
 40
1
 40
1
 10
808.509063
 20
416.923339
 30
0.0
 10
809.447942
 20
416.923336
 30
0.0
 10
810.209053
 20
416.162225
 30
0.0
 10
810.209056
 20
415.223345
 30
0.0
  0
SPLINE
  5
3fa
100
AcDbEntity
  8
Calque_1
 62
1
100
AcDbSpline
 70
8
 71
3
 72
8
 73
4
 74
0
 40
0
 40
0
 40
0
 40
0
 40
1
 40
1
 40
1
 40
1
 10
810.209056
 20
415.223345
 30
0.0
 10
810.209062
 20
414.772475
 30
0.0
 10
810.029959
 20
414.340068
 30
0.0
 10
809.711148
 20
414.021252
 30
0.0
  0
SPLINE
  5
3fb
100
AcDbEntity
  8
Calque_1
 62
1
100
AcDbSpline
 70
8
 71
3
 72
8
 73
4
 74
0
 40
0
 40
0
 40
0
 40
0
 40
1
 40
1
 40
1
 40
1
 10
809.711148
 20
414.021252
 30
0.0
 10
809.392337
 20
413.702435
 30
0.0
 10
808.959933
 20
413.523325
 30
0.0
 10
808.509063
 20
413.523323
 30
0.0
  0
LINE
  5
3fc
100
AcDbEntity
  8
Calque_1
 62
1
100
AcDbLine
 10
808.509063
 20
413.523323
 30
0.0
 11
808.509063
 21
413.523323
 31
0.0
  0
LINE
  5
3fd
100
AcDbEntity
  8
Calque_1
 62
3
100
AcDbLine
 10
798.559070
 20
425.173349
 30
0.0
 11
816.745752
 21
425.173349
 31
0.0
  0
LINE
  5
3fe
100
AcDbEntity
  8
Calque_1
 62
3
100
AcDbLine
 10
816.745752
 20
425.173349
 30
0.0
 11
816.745752
 21
406.986639
 31
0.0
  0
LINE
  5
3ff
100
AcDbEntity
  8
Calque_1
 62
3
100
AcDbLine
 10
816.745752
 20
406.986639
 30
0.0
 11
798.559070
 21
406.986639
 31
0.0
  0
LINE
  5
400
100
AcDbEntity
  8
Calque_1
 62
3
100
AcDbLine
 10
798.559070
 20
406.986639
 30
0.0
 11
798.559070
 21
425.173349
 31
0.0
  0
SPLINE
  5
401
100
AcDbEntity
  8
Calque_1
 62
1
100
AcDbSpline
 70
8
 71
3
 72
8
 73
4
 74
0
 40
0
 40
0
 40
0
 40
0
 40
1
 40
1
 40
1
 40
1
 10
808.509050
 20
384.556694
 30
0.0
 10
808.058179
 20
384.556692
 30
0.0
 10
807.625776
 20
384.377582
 30
0.0
 10
807.306965
 20
384.058766
 30
0.0
  0
SPLINE
  5
402
100
AcDbEntity
  8
Calque_1
 62
1
100
AcDbSpline
 70
8
 71
3
 72
8
 73
4
 74
0
 40
0
 40
0
 40
0
 40
0
 40
1
 40
1
 40
1
 40
1
 10
807.306965
 20
384.058766
 30
0.0
 10
806.988154
 20
383.739949
 30
0.0
 10
806.809051
 20
383.307543
 30
0.0
 10
806.809056
 20
382.856672
 30
0.0
  0
SPLINE
  5
403
100
AcDbEntity
  8
Calque_1
 62
1
100
AcDbSpline
 70
8
 71
3
 72
8
 73
4
 74
0
 40
0
 40
0
 40
0
 40
0
 40
1
 40
1
 40
1
 40
1
 10
806.809056
 20
382.856672
 30
0.0
 10
806.809060
 20
381.917793
 30
0.0
 10
807.570171
 20
381.156682
 30
0.0
 10
808.509050
 20
381.156678
 30
0.0
  0
SPLINE
  5
404
100
AcDbEntity
  8
Calque_1
 62
1
100
AcDbSpline
 70
8
 71
3
 72
8
 73
4
 74
0
 40
0
 40
0
 40
0
 40
0
 40
1
 40
1
 40
1
 40
1
 10
808.509050
 20
381.156678
 30
0.0
 10
809.447929
 20
381.156682
 30
0.0
 10
810.209040
 20
381.917793
 30
0.0
 10
810.209044
 20
382.856672
 30
0.0
  0
SPLINE
  5
405
100
AcDbEntity
  8
Calque_1
 62
1
100
AcDbSpline
 70
8
 71
3
 72
8
 73
4
 74
0
 40
0
 40
0
 40
0
 40
0
 40
1
 40
1
 40
1
 40
1
 10
810.209044
 20
382.856672
 30
0.0
 10
810.209050
 20
383.307543
 30
0.0
 10
810.029946
 20
383.739949
 30
0.0
 10
809.711135
 20
384.058766
 30
0.0
  0
SPLINE
  5
406
100
AcDbEntity
  8
Calque_1
 62
1
100
AcDbSpline
 70
8
 71
3
 72
8
 73
4
 74
0
 40
0
 40
0
 40
0
 40
0
 40
1
 40
1
 40
1
 40
1
 10
809.711135
 20
384.058766
 30
0.0
 10
809.392324
 20
384.377582
 30
0.0
 10
808.959921
 20
384.556692
 30
0.0
 10
808.509050
 20
384.556694
 30
0.0
  0
LINE
  5
407
100
AcDbEntity
  8
Calque_1
 62
1
100
AcDbLine
 10
808.509050
 20
384.556694
 30
0.0
 11
808.509050
 21
384.556694
 31
0.0
  0
LINE
  5
408
100
AcDbEntity
  8
Calque_1
 62
3
100
AcDbLine
 10
798.559058
 20
372.906669
 30
0.0
 11
816.745739
 21
372.906669
 31
0.0
  0
LINE
  5
409
100
AcDbEntity
  8
Calque_1
 62
3
100
AcDbLine
 10
816.745739
 20
372.906669
 30
0.0
 11
816.745739
 21
391.093378
 31
0.0
  0
LINE
  5
40a
100
AcDbEntity
  8
Calque_1
 62
3
100
AcDbLine
 10
816.745739
 20
391.093378
 30
0.0
 11
798.559058
 21
391.093378
 31
0.0
  0
LINE
  5
40b
100
AcDbEntity
  8
Calque_1
 62
3
100
AcDbLine
 10
798.559058
 20
391.093378
 30
0.0
 11
798.559058
 21
372.906669
 31
0.0
  0
SPLINE
  5
40c
100
AcDbEntity
  8
Calque_1
 62
1
100
AcDbSpline
 70
8
 71
3
 72
8
 73
4
 74
0
 40
0
 40
0
 40
0
 40
0
 40
1
 40
1
 40
1
 40
1
 10
942.209096
 20
413.523336
 30
0.0
 10
942.659967
 20
413.523338
 30
0.0
 10
943.092370
 20
413.702448
 30
0.0
 10
943.411181
 20
414.021264
 30
0.0
  0
SPLINE
  5
40d
100
AcDbEntity
  8
Calque_1
 62
1
100
AcDbSpline
 70
8
 71
3
 72
8
 73
4
 74
0
 40
0
 40
0
 40
0
 40
0
 40
1
 40
1
 40
1
 40
1
 10
943.411181
 20
414.021264
 30
0.0
 10
943.729992
 20
414.340081
 30
0.0
 10
943.909095
 20
414.772487
 30
0.0
 10
943.909090
 20
415.223358
 30
0.0
  0
SPLINE
  5
40e
100
AcDbEntity
  8
Calque_1
 62
1
100
AcDbSpline
 70
8
 71
3
 72
8
 73
4
 74
0
 40
0
 40
0
 40
0
 40
0
 40
1
 40
1
 40
1
 40
1
 10
943.909090
 20
415.223358
 30
0.0
 10
943.909086
 20
416.162237
 30
0.0
 10
943.147975
 20
416.923348
 30
0.0
 10
942.209096
 20
416.923352
 30
0.0
  0
SPLINE
  5
40f
100
AcDbEntity
  8
Calque_1
 62
1
100
AcDbSpline
 70
8
 71
3
 72
8
 73
4
 74
0
 40
0
 40
0
 40
0
 40
0
 40
1
 40
1
 40
1
 40
1
 10
942.209096
 20
416.923352
 30
0.0
 10
941.270217
 20
416.923348
 30
0.0
 10
940.509106
 20
416.162237
 30
0.0
 10
940.509102
 20
415.223358
 30
0.0
  0
SPLINE
  5
410
100
AcDbEntity
  8
Calque_1
 62
1
100
AcDbSpline
 70
8
 71
3
 72
8
 73
4
 74
0
 40
0
 40
0
 40
0
 40
0
 40
1
 40
1
 40
1
 40
1
 10
940.509102
 20
415.223358
 30
0.0
 10
940.509096
 20
414.772487
 30
0.0
 10
940.688200
 20
414.340081
 30
0.0
 10
941.007011
 20
414.021264
 30
0.0
  0
SPLINE
  5
411
100
AcDbEntity
  8
Calque_1
 62
1
100
AcDbSpline
 70
8
 71
3
 72
8
 73
4
 74
0
 40
0
 40
0
 40
0
 40
0
 40
1
 40
1
 40
1
 40
1
 10
941.007011
 20
414.021264
 30
0.0
 10
941.325822
 20
413.702448
 30
0.0
 10
941.758225
 20
413.523338
 30
0.0
 10
942.209096
 20
413.523336
 30
0.0
  0
LINE
  5
412
100
AcDbEntity
  8
Calque_1
 62
1
100
AcDbLine
 10
942.209096
 20
413.523336
 30
0.0
 11
942.209096
 21
413.523336
 31
0.0
  0
LINE
  5
413
100
AcDbEntity
  8
Calque_1
 62
3
100
AcDbLine
 10
952.159088
 20
425.173361
 30
0.0
 11
933.972407
 21
425.173361
 31
0.0
  0
LINE
  5
414
100
AcDbEntity
  8
Calque_1
 62
3
100
AcDbLine
 10
933.972407
 20
425.173361
 30
0.0
 11
933.972407
 21
406.986652
 31
0.0
  0
LINE
  5
415
100
AcDbEntity
  8
Calque_1
 62
3
100
AcDbLine
 10
933.972407
 20
406.986652
 30
0.0
 11
952.159088
 21
406.986652
 31
0.0
  0
LINE
  5
416
100
AcDbEntity
  8
Calque_1
 62
3
100
AcDbLine
 10
952.159088
 20
406.986652
 30
0.0
 11
952.159088
 21
425.173361
 31
0.0
  0
SPLINE
  5
417
100
AcDbEntity
  8
Calque_1
 62
1
100
AcDbSpline
 70
8
 71
3
 72
8
 73
4
 74
0
 40
0
 40
0
 40
0
 40
0
 40
1
 40
1
 40
1
 40
1
 10
942.209140
 20
384.556746
 30
0.0
 10
942.660010
 20
384.556745
 30
0.0
 10
943.092414
 20
384.377634
 30
0.0
 10
943.411225
 20
384.058818
 30
0.0
  0
SPLINE
  5
418
100
AcDbEntity
  8
Calque_1
 62
1
100
AcDbSpline
 70
8
 71
3
 72
8
 73
4
 74
0
 40
0
 40
0
 40
0
 40
0
 40
1
 40
1
 40
1
 40
1
 10
943.411225
 20
384.058818
 30
0.0
 10
943.730036
 20
383.740001
 30
0.0
 10
943.909139
 20
383.307595
 30
0.0
 10
943.909133
 20
382.856724
 30
0.0
  0
SPLINE
  5
419
100
AcDbEntity
  8
Calque_1
 62
1
100
AcDbSpline
 70
8
 71
3
 72
8
 73
4
 74
0
 40
0
 40
0
 40
0
 40
0
 40
1
 40
1
 40
1
 40
1
 10
943.909133
 20
382.856724
 30
0.0
 10
943.909130
 20
381.917845
 30
0.0
 10
943.148019
 20
381.156734
 30
0.0
 10
942.209140
 20
381.156731
 30
0.0
  0
SPLINE
  5
41a
100
AcDbEntity
  8
Calque_1
 62
1
100
AcDbSpline
 70
8
 71
3
 72
8
 73
4
 74
0
 40
0
 40
0
 40
0
 40
0
 40
1
 40
1
 40
1
 40
1
 10
942.209140
 20
381.156731
 30
0.0
 10
941.270261
 20
381.156734
 30
0.0
 10
940.509149
 20
381.917845
 30
0.0
 10
940.509146
 20
382.856724
 30
0.0
  0
SPLINE
  5
41b
100
AcDbEntity
  8
Calque_1
 62
1
100
AcDbSpline
 70
8
 71
3
 72
8
 73
4
 74
0
 40
0
 40
0
 40
0
 40
0
 40
1
 40
1
 40
1
 40
1
 10
940.509146
 20
382.856724
 30
0.0
 10
940.509140
 20
383.307595
 30
0.0
 10
940.688243
 20
383.740001
 30
0.0
 10
941.007054
 20
384.058818
 30
0.0
  0
SPLINE
  5
41c
100
AcDbEntity
  8
Calque_1
 62
1
100
AcDbSpline
 70
8
 71
3
 72
8
 73
4
 74
0
 40
0
 40
0
 40
0
 40
0
 40
1
 40
1
 40
1
 40
1
 10
941.007054
 20
384.058818
 30
0.0
 10
941.325866
 20
384.377634
 30
0.0
 10
941.758269
 20
384.556745
 30
0.0
 10
942.209140
 20
384.556746
 30
0.0
  0
LINE
  5
41d
100
AcDbEntity
  8
Calque_1
 62
1
100
AcDbLine
 10
942.209140
 20
384.556746
 30
0.0
 11
942.209140
 21
384.556746
 31
0.0
  0
LINE
  5
41e
100
AcDbEntity
  8
Calque_1
 62
3
100
AcDbLine
 10
952.159132
 20
372.906720
 30
0.0
 11
933.972450
 21
372.906720
 31
0.0
  0
LINE
  5
41f
100
AcDbEntity
  8
Calque_1
 62
3
100
AcDbLine
 10
933.972450
 20
372.906720
 30
0.0
 11
933.972450
 21
391.093430
 31
0.0
  0
LINE
  5
420
100
AcDbEntity
  8
Calque_1
 62
3
100
AcDbLine
 10
933.972450
 20
391.093430
 30
0.0
 11
952.159132
 21
391.093430
 31
0.0
  0
LINE
  5
421
100
AcDbEntity
  8
Calque_1
 62
3
100
AcDbLine
 10
952.159132
 20
391.093430
 30
0.0
 11
952.159132
 21
372.906720
 31
0.0
  0
SPLINE
  5
422
100
AcDbEntity
  8
Calque_1
 62
1
100
AcDbSpline
 70
8
 71
3
 72
8
 73
4
 74
0
 40
0
 40
0
 40
0
 40
0
 40
1
 40
1
 40
1
 40
1
 10
645.202427
 20
638.589976
 30
0.0
 10
644.751557
 20
638.589977
 30
0.0
 10
644.319153
 20
638.769088
 30
0.0
 10
644.000342
 20
639.087904
 30
0.0
  0
SPLINE
  5
423
100
AcDbEntity
  8
Calque_1
 62
1
100
AcDbSpline
 70
8
 71
3
 72
8
 73
4
 74
0
 40
0
 40
0
 40
0
 40
0
 40
1
 40
1
 40
1
 40
1
 10
644.000342
 20
639.087904
 30
0.0
 10
643.681531
 20
639.406720
 30
0.0
 10
643.502428
 20
639.839127
 30
0.0
 10
643.502434
 20
640.289998
 30
0.0
  0
SPLINE
  5
424
100
AcDbEntity
  8
Calque_1
 62
1
100
AcDbSpline
 70
8
 71
3
 72
8
 73
4
 74
0
 40
0
 40
0
 40
0
 40
0
 40
1
 40
1
 40
1
 40
1
 10
643.502434
 20
640.289998
 30
0.0
 10
643.502437
 20
641.228877
 30
0.0
 10
644.263548
 20
641.989988
 30
0.0
 10
645.202427
 20
641.989991
 30
0.0
  0
SPLINE
  5
425
100
AcDbEntity
  8
Calque_1
 62
1
100
AcDbSpline
 70
8
 71
3
 72
8
 73
4
 74
0
 40
0
 40
0
 40
0
 40
0
 40
1
 40
1
 40
1
 40
1
 10
645.202427
 20
641.989991
 30
0.0
 10
646.141307
 20
641.989988
 30
0.0
 10
646.902418
 20
641.228877
 30
0.0
 10
646.902421
 20
640.289998
 30
0.0
  0
SPLINE
  5
426
100
AcDbEntity
  8
Calque_1
 62
1
100
AcDbSpline
 70
8
 71
3
 72
8
 73
4
 74
0
 40
0
 40
0
 40
0
 40
0
 40
1
 40
1
 40
1
 40
1
 10
646.902421
 20
640.289998
 30
0.0
 10
646.902427
 20
639.839127
 30
0.0
 10
646.723324
 20
639.406720
 30
0.0
 10
646.404513
 20
639.087904
 30
0.0
  0
SPLINE
  5
427
100
AcDbEntity
  8
Calque_1
 62
1
100
AcDbSpline
 70
8
 71
3
 72
8
 73
4
 74
0
 40
0
 40
0
 40
0
 40
0
 40
1
 40
1
 40
1
 40
1
 10
646.404513
 20
639.087904
 30
0.0
 10
646.085702
 20
638.769088
 30
0.0
 10
645.653298
 20
638.589977
 30
0.0
 10
645.202427
 20
638.589976
 30
0.0
  0
LINE
  5
428
100
AcDbEntity
  8
Calque_1
 62
1
100
AcDbLine
 10
645.202427
 20
638.589976
 30
0.0
 11
645.202427
 21
638.589976
 31
0.0
  0
LINE
  5
429
100
AcDbEntity
  8
Calque_1
 62
3
100
AcDbLine
 10
635.252435
 20
650.240001
 30
0.0
 11
653.439117
 21
650.240001
 31
0.0
  0
LINE
  5
42a
100
AcDbEntity
  8
Calque_1
 62
3
100
AcDbLine
 10
653.439117
 20
650.240001
 30
0.0
 11
653.439117
 21
632.053291
 31
0.0
  0
LINE
  5
42b
100
AcDbEntity
  8
Calque_1
 62
3
100
AcDbLine
 10
653.439117
 20
632.053291
 30
0.0
 11
635.252435
 21
632.053291
 31
0.0
  0
LINE
  5
42c
100
AcDbEntity
  8
Calque_1
 62
3
100
AcDbLine
 10
635.252435
 20
632.053291
 30
0.0
 11
635.252435
 21
650.240001
 31
0.0
  0
SPLINE
  5
42d
100
AcDbEntity
  8
Calque_1
 62
1
100
AcDbSpline
 70
8
 71
3
 72
8
 73
4
 74
0
 40
0
 40
0
 40
0
 40
0
 40
1
 40
1
 40
1
 40
1
 10
778.902461
 20
638.589988
 30
0.0
 10
779.353331
 20
638.589990
 30
0.0
 10
779.785735
 20
638.769100
 30
0.0
 10
780.104546
 20
639.087917
 30
0.0
  0
SPLINE
  5
42e
100
AcDbEntity
  8
Calque_1
 62
1
100
AcDbSpline
 70
8
 71
3
 72
8
 73
4
 74
0
 40
0
 40
0
 40
0
 40
0
 40
1
 40
1
 40
1
 40
1
 10
780.104546
 20
639.087917
 30
0.0
 10
780.423357
 20
639.406733
 30
0.0
 10
780.602460
 20
639.839139
 30
0.0
 10
780.602454
 20
640.290010
 30
0.0
  0
SPLINE
  5
42f
100
AcDbEntity
  8
Calque_1
 62
1
100
AcDbSpline
 70
8
 71
3
 72
8
 73
4
 74
0
 40
0
 40
0
 40
0
 40
0
 40
1
 40
1
 40
1
 40
1
 10
780.602454
 20
640.290010
 30
0.0
 10
780.602451
 20
641.228889
 30
0.0
 10
779.841340
 20
641.990000
 30
0.0
 10
778.902461
 20
641.990004
 30
0.0
  0
SPLINE
  5
430
100
AcDbEntity
  8
Calque_1
 62
1
100
AcDbSpline
 70
8
 71
3
 72
8
 73
4
 74
0
 40
0
 40
0
 40
0
 40
0
 40
1
 40
1
 40
1
 40
1
 10
778.902461
 20
641.990004
 30
0.0
 10
777.963581
 20
641.990000
 30
0.0
 10
777.202470
 20
641.228889
 30
0.0
 10
777.202467
 20
640.290010
 30
0.0
  0
SPLINE
  5
431
100
AcDbEntity
  8
Calque_1
 62
1
100
AcDbSpline
 70
8
 71
3
 72
8
 73
4
 74
0
 40
0
 40
0
 40
0
 40
0
 40
1
 40
1
 40
1
 40
1
 10
777.202467
 20
640.290010
 30
0.0
 10
777.202461
 20
639.839139
 30
0.0
 10
777.381564
 20
639.406733
 30
0.0
 10
777.700375
 20
639.087917
 30
0.0
  0
SPLINE
  5
432
100
AcDbEntity
  8
Calque_1
 62
1
100
AcDbSpline
 70
8
 71
3
 72
8
 73
4
 74
0
 40
0
 40
0
 40
0
 40
0
 40
1
 40
1
 40
1
 40
1
 10
777.700375
 20
639.087917
 30
0.0
 10
778.019186
 20
638.769100
 30
0.0
 10
778.451590
 20
638.589990
 30
0.0
 10
778.902461
 20
638.589988
 30
0.0
  0
LINE
  5
433
100
AcDbEntity
  8
Calque_1
 62
1
100
AcDbLine
 10
778.902461
 20
638.589988
 30
0.0
 11
778.902461
 21
638.589988
 31
0.0
  0
LINE
  5
434
100
AcDbEntity
  8
Calque_1
 62
3
100
AcDbLine
 10
788.852453
 20
650.240014
 30
0.0
 11
770.665772
 21
650.240014
 31
0.0
  0
LINE
  5
435
100
AcDbEntity
  8
Calque_1
 62
3
100
AcDbLine
 10
770.665772
 20
650.240014
 30
0.0
 11
770.665772
 21
632.053304
 31
0.0
  0
LINE
  5
436
100
AcDbEntity
  8
Calque_1
 62
3
100
AcDbLine
 10
770.665772
 20
632.053304
 30
0.0
 11
788.852453
 21
632.053304
 31
0.0
  0
LINE
  5
437
100
AcDbEntity
  8
Calque_1
 62
3
100
AcDbLine
 10
788.852453
 20
632.053304
 30
0.0
 11
788.852453
 21
650.240014
 31
0.0
  0
SPLINE
  5
438
100
AcDbEntity
  8
Calque_1
 62
1
100
AcDbSpline
 70
8
 71
3
 72
8
 73
4
 74
0
 40
0
 40
0
 40
0
 40
0
 40
1
 40
1
 40
1
 40
1
 10
645.202415
 20
508.290037
 30
0.0
 10
644.751544
 20
508.290035
 30
0.0
 10
644.319141
 20
508.110925
 30
0.0
 10
644.000330
 20
507.792109
 30
0.0
  0
SPLINE
  5
439
100
AcDbEntity
  8
Calque_1
 62
1
100
AcDbSpline
 70
8
 71
3
 72
8
 73
4
 74
0
 40
0
 40
0
 40
0
 40
0
 40
1
 40
1
 40
1
 40
1
 10
644.000330
 20
507.792109
 30
0.0
 10
643.681518
 20
507.473292
 30
0.0
 10
643.502415
 20
507.040886
 30
0.0
 10
643.502421
 20
506.590015
 30
0.0
  0
SPLINE
  5
43a
100
AcDbEntity
  8
Calque_1
 62
1
100
AcDbSpline
 70
8
 71
3
 72
8
 73
4
 74
0
 40
0
 40
0
 40
0
 40
0
 40
1
 40
1
 40
1
 40
1
 10
643.502421
 20
506.590015
 30
0.0
 10
643.502425
 20
505.651136
 30
0.0
 10
644.263536
 20
504.890025
 30
0.0
 10
645.202415
 20
504.890021
 30
0.0
  0
SPLINE
  5
43b
100
AcDbEntity
  8
Calque_1
 62
1
100
AcDbSpline
 70
8
 71
3
 72
8
 73
4
 74
0
 40
0
 40
0
 40
0
 40
0
 40
1
 40
1
 40
1
 40
1
 10
645.202415
 20
504.890021
 30
0.0
 10
646.141294
 20
504.890025
 30
0.0
 10
646.902405
 20
505.651136
 30
0.0
 10
646.902408
 20
506.590015
 30
0.0
  0
SPLINE
  5
43c
100
AcDbEntity
  8
Calque_1
 62
1
100
AcDbSpline
 70
8
 71
3
 72
8
 73
4
 74
0
 40
0
 40
0
 40
0
 40
0
 40
1
 40
1
 40
1
 40
1
 10
646.902408
 20
506.590015
 30
0.0
 10
646.902414
 20
507.040886
 30
0.0
 10
646.723311
 20
507.473292
 30
0.0
 10
646.404500
 20
507.792109
 30
0.0
  0
SPLINE
  5
43d
100
AcDbEntity
  8
Calque_1
 62
1
100
AcDbSpline
 70
8
 71
3
 72
8
 73
4
 74
0
 40
0
 40
0
 40
0
 40
0
 40
1
 40
1
 40
1
 40
1
 10
646.404500
 20
507.792109
 30
0.0
 10
646.085689
 20
508.110925
 30
0.0
 10
645.653286
 20
508.290035
 30
0.0
 10
645.202415
 20
508.290037
 30
0.0
  0
LINE
  5
43e
100
AcDbEntity
  8
Calque_1
 62
1
100
AcDbLine
 10
645.202415
 20
508.290037
 30
0.0
 11
645.202415
 21
508.290037
 31
0.0
  0
LINE
  5
43f
100
AcDbEntity
  8
Calque_1
 62
3
100
AcDbLine
 10
635.252423
 20
496.640012
 30
0.0
 11
653.439104
 21
496.640012
 31
0.0
  0
LINE
  5
440
100
AcDbEntity
  8
Calque_1
 62
3
100
AcDbLine
 10
653.439104
 20
496.640012
 30
0.0
 11
653.439104
 21
514.826721
 31
0.0
  0
LINE
  5
441
100
AcDbEntity
  8
Calque_1
 62
3
100
AcDbLine
 10
653.439104
 20
514.826721
 30
0.0
 11
635.252423
 21
514.826721
 31
0.0
  0
LINE
  5
442
100
AcDbEntity
  8
Calque_1
 62
3
100
AcDbLine
 10
635.252423
 20
514.826721
 30
0.0
 11
635.252423
 21
496.640012
 31
0.0
  0
SPLINE
  5
443
100
AcDbEntity
  8
Calque_1
 62
1
100
AcDbSpline
 70
8
 71
3
 72
8
 73
4
 74
0
 40
0
 40
0
 40
0
 40
0
 40
1
 40
1
 40
1
 40
1
 10
778.902504
 20
508.290050
 30
0.0
 10
779.353375
 20
508.290048
 30
0.0
 10
779.785779
 20
508.110938
 30
0.0
 10
780.104590
 20
507.792121
 30
0.0
  0
SPLINE
  5
444
100
AcDbEntity
  8
Calque_1
 62
1
100
AcDbSpline
 70
8
 71
3
 72
8
 73
4
 74
0
 40
0
 40
0
 40
0
 40
0
 40
1
 40
1
 40
1
 40
1
 10
780.104590
 20
507.792121
 30
0.0
 10
780.423401
 20
507.473305
 30
0.0
 10
780.602504
 20
507.040899
 30
0.0
 10
780.602498
 20
506.590028
 30
0.0
  0
SPLINE
  5
445
100
AcDbEntity
  8
Calque_1
 62
1
100
AcDbSpline
 70
8
 71
3
 72
8
 73
4
 74
0
 40
0
 40
0
 40
0
 40
0
 40
1
 40
1
 40
1
 40
1
 10
780.602498
 20
506.590028
 30
0.0
 10
780.602495
 20
505.651149
 30
0.0
 10
779.841384
 20
504.890037
 30
0.0
 10
778.902504
 20
504.890034
 30
0.0
  0
SPLINE
  5
446
100
AcDbEntity
  8
Calque_1
 62
1
100
AcDbSpline
 70
8
 71
3
 72
8
 73
4
 74
0
 40
0
 40
0
 40
0
 40
0
 40
1
 40
1
 40
1
 40
1
 10
778.902504
 20
504.890034
 30
0.0
 10
777.963625
 20
504.890037
 30
0.0
 10
777.202514
 20
505.651149
 30
0.0
 10
777.202511
 20
506.590028
 30
0.0
  0
SPLINE
  5
447
100
AcDbEntity
  8
Calque_1
 62
1
100
AcDbSpline
 70
8
 71
3
 72
8
 73
4
 74
0
 40
0
 40
0
 40
0
 40
0
 40
1
 40
1
 40
1
 40
1
 10
777.202511
 20
506.590028
 30
0.0
 10
777.202505
 20
507.040899
 30
0.0
 10
777.381608
 20
507.473305
 30
0.0
 10
777.700419
 20
507.792121
 30
0.0
  0
SPLINE
  5
448
100
AcDbEntity
  8
Calque_1
 62
1
100
AcDbSpline
 70
8
 71
3
 72
8
 73
4
 74
0
 40
0
 40
0
 40
0
 40
0
 40
1
 40
1
 40
1
 40
1
 10
777.700419
 20
507.792121
 30
0.0
 10
778.019230
 20
508.110938
 30
0.0
 10
778.451634
 20
508.290048
 30
0.0
 10
778.902504
 20
508.290050
 30
0.0
  0
LINE
  5
449
100
AcDbEntity
  8
Calque_1
 62
1
100
AcDbLine
 10
778.902504
 20
508.290050
 30
0.0
 11
778.902504
 21
508.290050
 31
0.0
  0
LINE
  5
44a
100
AcDbEntity
  8
Calque_1
 62
3
100
AcDbLine
 10
788.852497
 20
496.640024
 30
0.0
 11
770.665815
 21
496.640024
 31
0.0
  0
LINE
  5
44b
100
AcDbEntity
  8
Calque_1
 62
3
100
AcDbLine
 10
770.665815
 20
496.640024
 30
0.0
 11
770.665815
 21
514.826734
 31
0.0
  0
LINE
  5
44c
100
AcDbEntity
  8
Calque_1
 62
3
100
AcDbLine
 10
770.665815
 20
514.826734
 30
0.0
 11
788.852497
 21
514.826734
 31
0.0
  0
LINE
  5
44d
100
AcDbEntity
  8
Calque_1
 62
3
100
AcDbLine
 10
788.852497
 20
514.826734
 30
0.0
 11
788.852497
 21
496.640024
 31
0.0
  0
SPLINE
  5
44e
100
AcDbEntity
  8
Calque_1
 62
1
100
AcDbSpline
 70
8
 71
3
 72
8
 73
4
 74
0
 40
0
 40
0
 40
0
 40
0
 40
1
 40
1
 40
1
 40
1
 10
808.509043
 20
638.589973
 30
0.0
 10
808.058172
 20
638.589974
 30
0.0
 10
807.625769
 20
638.769085
 30
0.0
 10
807.306958
 20
639.087901
 30
0.0
  0
SPLINE
  5
44f
100
AcDbEntity
  8
Calque_1
 62
1
100
AcDbSpline
 70
8
 71
3
 72
8
 73
4
 74
0
 40
0
 40
0
 40
0
 40
0
 40
1
 40
1
 40
1
 40
1
 10
807.306958
 20
639.087901
 30
0.0
 10
806.988147
 20
639.406718
 30
0.0
 10
806.809043
 20
639.839124
 30
0.0
 10
806.809049
 20
640.289995
 30
0.0
  0
SPLINE
  5
450
100
AcDbEntity
  8
Calque_1
 62
1
100
AcDbSpline
 70
8
 71
3
 72
8
 73
4
 74
0
 40
0
 40
0
 40
0
 40
0
 40
1
 40
1
 40
1
 40
1
 10
806.809049
 20
640.289995
 30
0.0
 10
806.809053
 20
641.228874
 30
0.0
 10
807.570164
 20
641.989985
 30
0.0
 10
808.509043
 20
641.989988
 30
0.0
  0
SPLINE
  5
451
100
AcDbEntity
  8
Calque_1
 62
1
100
AcDbSpline
 70
8
 71
3
 72
8
 73
4
 74
0
 40
0
 40
0
 40
0
 40
0
 40
1
 40
1
 40
1
 40
1
 10
808.509043
 20
641.989988
 30
0.0
 10
809.447922
 20
641.989985
 30
0.0
 10
810.209033
 20
641.228874
 30
0.0
 10
810.209037
 20
640.289995
 30
0.0
  0
SPLINE
  5
452
100
AcDbEntity
  8
Calque_1
 62
1
100
AcDbSpline
 70
8
 71
3
 72
8
 73
4
 74
0
 40
0
 40
0
 40
0
 40
0
 40
1
 40
1
 40
1
 40
1
 10
810.209037
 20
640.289995
 30
0.0
 10
810.209043
 20
639.839124
 30
0.0
 10
810.029939
 20
639.406718
 30
0.0
 10
809.711128
 20
639.087901
 30
0.0
  0
SPLINE
  5
453
100
AcDbEntity
  8
Calque_1
 62
1
100
AcDbSpline
 70
8
 71
3
 72
8
 73
4
 74
0
 40
0
 40
0
 40
0
 40
0
 40
1
 40
1
 40
1
 40
1
 10
809.711128
 20
639.087901
 30
0.0
 10
809.392317
 20
638.769085
 30
0.0
 10
808.959914
 20
638.589974
 30
0.0
 10
808.509043
 20
638.589973
 30
0.0
  0
LINE
  5
454
100
AcDbEntity
  8
Calque_1
 62
1
100
AcDbLine
 10
808.509043
 20
638.589973
 30
0.0
 11
808.509043
 21
638.589973
 31
0.0
  0
LINE
  5
455
100
AcDbEntity
  8
Calque_1
 62
3
100
AcDbLine
 10
798.559050
 20
650.239999
 30
0.0
 11
816.745732
 21
650.239999
 31
0.0
  0
LINE
  5
456
100
AcDbEntity
  8
Calque_1
 62
3
100
AcDbLine
 10
816.745732
 20
650.239999
 30
0.0
 11
816.745732
 21
632.053289
 31
0.0
  0
LINE
  5
457
100
AcDbEntity
  8
Calque_1
 62
3
100
AcDbLine
 10
816.745732
 20
632.053289
 30
0.0
 11
798.559050
 21
632.053289
 31
0.0
  0
LINE
  5
458
100
AcDbEntity
  8
Calque_1
 62
3
100
AcDbLine
 10
798.559050
 20
632.053289
 30
0.0
 11
798.559050
 21
650.239999
 31
0.0
  0
SPLINE
  5
459
100
AcDbEntity
  8
Calque_1
 62
1
100
AcDbSpline
 70
8
 71
3
 72
8
 73
4
 74
0
 40
0
 40
0
 40
0
 40
0
 40
1
 40
1
 40
1
 40
1
 10
942.209076
 20
638.589985
 30
0.0
 10
942.659947
 20
638.589987
 30
0.0
 10
943.092350
 20
638.769097
 30
0.0
 10
943.411161
 20
639.087914
 30
0.0
  0
SPLINE
  5
45a
100
AcDbEntity
  8
Calque_1
 62
1
100
AcDbSpline
 70
8
 71
3
 72
8
 73
4
 74
0
 40
0
 40
0
 40
0
 40
0
 40
1
 40
1
 40
1
 40
1
 10
943.411161
 20
639.087914
 30
0.0
 10
943.729972
 20
639.406730
 30
0.0
 10
943.909076
 20
639.839137
 30
0.0
 10
943.909070
 20
640.290007
 30
0.0
  0
SPLINE
  5
45b
100
AcDbEntity
  8
Calque_1
 62
1
100
AcDbSpline
 70
8
 71
3
 72
8
 73
4
 74
0
 40
0
 40
0
 40
0
 40
0
 40
1
 40
1
 40
1
 40
1
 10
943.909070
 20
640.290007
 30
0.0
 10
943.909066
 20
641.228886
 30
0.0
 10
943.147955
 20
641.989998
 30
0.0
 10
942.209076
 20
641.990001
 30
0.0
  0
SPLINE
  5
45c
100
AcDbEntity
  8
Calque_1
 62
1
100
AcDbSpline
 70
8
 71
3
 72
8
 73
4
 74
0
 40
0
 40
0
 40
0
 40
0
 40
1
 40
1
 40
1
 40
1
 10
942.209076
 20
641.990001
 30
0.0
 10
941.270197
 20
641.989998
 30
0.0
 10
940.509086
 20
641.228886
 30
0.0
 10
940.509082
 20
640.290007
 30
0.0
  0
SPLINE
  5
45d
100
AcDbEntity
  8
Calque_1
 62
1
100
AcDbSpline
 70
8
 71
3
 72
8
 73
4
 74
0
 40
0
 40
0
 40
0
 40
0
 40
1
 40
1
 40
1
 40
1
 10
940.509082
 20
640.290007
 30
0.0
 10
940.509077
 20
639.839137
 30
0.0
 10
940.688180
 20
639.406730
 30
0.0
 10
941.006991
 20
639.087914
 30
0.0
  0
SPLINE
  5
45e
100
AcDbEntity
  8
Calque_1
 62
1
100
AcDbSpline
 70
8
 71
3
 72
8
 73
4
 74
0
 40
0
 40
0
 40
0
 40
0
 40
1
 40
1
 40
1
 40
1
 10
941.006991
 20
639.087914
 30
0.0
 10
941.325802
 20
638.769097
 30
0.0
 10
941.758205
 20
638.589987
 30
0.0
 10
942.209076
 20
638.589985
 30
0.0
  0
LINE
  5
45f
100
AcDbEntity
  8
Calque_1
 62
1
100
AcDbLine
 10
942.209076
 20
638.589985
 30
0.0
 11
942.209076
 21
638.589985
 31
0.0
  0
LINE
  5
460
100
AcDbEntity
  8
Calque_1
 62
3
100
AcDbLine
 10
952.159068
 20
650.240011
 30
0.0
 11
933.972387
 21
650.240011
 31
0.0
  0
LINE
  5
461
100
AcDbEntity
  8
Calque_1
 62
3
100
AcDbLine
 10
933.972387
 20
650.240011
 30
0.0
 11
933.972387
 21
632.053301
 31
0.0
  0
LINE
  5
462
100
AcDbEntity
  8
Calque_1
 62
3
100
AcDbLine
 10
933.972387
 20
632.053301
 30
0.0
 11
952.159068
 21
632.053301
 31
0.0
  0
LINE
  5
463
100
AcDbEntity
  8
Calque_1
 62
3
100
AcDbLine
 10
952.159068
 20
632.053301
 30
0.0
 11
952.159068
 21
650.240011
 31
0.0
  0
SPLINE
  5
464
100
AcDbEntity
  8
Calque_1
 62
1
100
AcDbSpline
 70
8
 71
3
 72
8
 73
4
 74
0
 40
0
 40
0
 40
0
 40
0
 40
1
 40
1
 40
1
 40
1
 10
808.509030
 20
508.290037
 30
0.0
 10
808.058160
 20
508.290035
 30
0.0
 10
807.625756
 20
508.110925
 30
0.0
 10
807.306945
 20
507.792109
 30
0.0
  0
SPLINE
  5
465
100
AcDbEntity
  8
Calque_1
 62
1
100
AcDbSpline
 70
8
 71
3
 72
8
 73
4
 74
0
 40
0
 40
0
 40
0
 40
0
 40
1
 40
1
 40
1
 40
1
 10
807.306945
 20
507.792109
 30
0.0
 10
806.988134
 20
507.473292
 30
0.0
 10
806.809031
 20
507.040886
 30
0.0
 10
806.809037
 20
506.590015
 30
0.0
  0
SPLINE
  5
466
100
AcDbEntity
  8
Calque_1
 62
1
100
AcDbSpline
 70
8
 71
3
 72
8
 73
4
 74
0
 40
0
 40
0
 40
0
 40
0
 40
1
 40
1
 40
1
 40
1
 10
806.809037
 20
506.590015
 30
0.0
 10
806.809040
 20
505.651136
 30
0.0
 10
807.570151
 20
504.890025
 30
0.0
 10
808.509030
 20
504.890021
 30
0.0
  0
SPLINE
  5
467
100
AcDbEntity
  8
Calque_1
 62
1
100
AcDbSpline
 70
8
 71
3
 72
8
 73
4
 74
0
 40
0
 40
0
 40
0
 40
0
 40
1
 40
1
 40
1
 40
1
 10
808.509030
 20
504.890021
 30
0.0
 10
809.447909
 20
504.890025
 30
0.0
 10
810.209021
 20
505.651136
 30
0.0
 10
810.209024
 20
506.590015
 30
0.0
  0
SPLINE
  5
468
100
AcDbEntity
  8
Calque_1
 62
1
100
AcDbSpline
 70
8
 71
3
 72
8
 73
4
 74
0
 40
0
 40
0
 40
0
 40
0
 40
1
 40
1
 40
1
 40
1
 10
810.209024
 20
506.590015
 30
0.0
 10
810.209030
 20
507.040886
 30
0.0
 10
810.029927
 20
507.473292
 30
0.0
 10
809.711116
 20
507.792109
 30
0.0
  0
SPLINE
  5
469
100
AcDbEntity
  8
Calque_1
 62
1
100
AcDbSpline
 70
8
 71
3
 72
8
 73
4
 74
0
 40
0
 40
0
 40
0
 40
0
 40
1
 40
1
 40
1
 40
1
 10
809.711116
 20
507.792109
 30
0.0
 10
809.392304
 20
508.110925
 30
0.0
 10
808.959901
 20
508.290035
 30
0.0
 10
808.509030
 20
508.290037
 30
0.0
  0
LINE
  5
46a
100
AcDbEntity
  8
Calque_1
 62
1
100
AcDbLine
 10
808.509030
 20
508.290037
 30
0.0
 11
808.509030
 21
508.290037
 31
0.0
  0
LINE
  5
46b
100
AcDbEntity
  8
Calque_1
 62
3
100
AcDbLine
 10
798.559038
 20
496.640012
 30
0.0
 11
816.745719
 21
496.640012
 31
0.0
  0
LINE
  5
46c
100
AcDbEntity
  8
Calque_1
 62
3
100
AcDbLine
 10
816.745719
 20
496.640012
 30
0.0
 11
816.745719
 21
514.826721
 31
0.0
  0
LINE
  5
46d
100
AcDbEntity
  8
Calque_1
 62
3
100
AcDbLine
 10
816.745719
 20
514.826721
 30
0.0
 11
798.559038
 21
514.826721
 31
0.0
  0
LINE
  5
46e
100
AcDbEntity
  8
Calque_1
 62
3
100
AcDbLine
 10
798.559038
 20
514.826721
 30
0.0
 11
798.559038
 21
496.640012
 31
0.0
  0
SPLINE
  5
46f
100
AcDbEntity
  8
Calque_1
 62
1
100
AcDbSpline
 70
8
 71
3
 72
8
 73
4
 74
0
 40
0
 40
0
 40
0
 40
0
 40
1
 40
1
 40
1
 40
1
 10
942.209148
 20
508.290044
 30
0.0
 10
942.660019
 20
508.290042
 30
0.0
 10
943.092422
 20
508.110932
 30
0.0
 10
943.411233
 20
507.792116
 30
0.0
  0
SPLINE
  5
470
100
AcDbEntity
  8
Calque_1
 62
1
100
AcDbSpline
 70
8
 71
3
 72
8
 73
4
 74
0
 40
0
 40
0
 40
0
 40
0
 40
1
 40
1
 40
1
 40
1
 10
943.411233
 20
507.792116
 30
0.0
 10
943.730045
 20
507.473299
 30
0.0
 10
943.909148
 20
507.040893
 30
0.0
 10
943.909142
 20
506.590022
 30
0.0
  0
SPLINE
  5
471
100
AcDbEntity
  8
Calque_1
 62
1
100
AcDbSpline
 70
8
 71
3
 72
8
 73
4
 74
0
 40
0
 40
0
 40
0
 40
0
 40
1
 40
1
 40
1
 40
1
 10
943.909142
 20
506.590022
 30
0.0
 10
943.909138
 20
505.651143
 30
0.0
 10
943.148027
 20
504.890032
 30
0.0
 10
942.209148
 20
504.890028
 30
0.0
  0
SPLINE
  5
472
100
AcDbEntity
  8
Calque_1
 62
1
100
AcDbSpline
 70
8
 71
3
 72
8
 73
4
 74
0
 40
0
 40
0
 40
0
 40
0
 40
1
 40
1
 40
1
 40
1
 10
942.209148
 20
504.890028
 30
0.0
 10
941.270269
 20
504.890032
 30
0.0
 10
940.509158
 20
505.651143
 30
0.0
 10
940.509154
 20
506.590022
 30
0.0
  0
SPLINE
  5
473
100
AcDbEntity
  8
Calque_1
 62
1
100
AcDbSpline
 70
8
 71
3
 72
8
 73
4
 74
0
 40
0
 40
0
 40
0
 40
0
 40
1
 40
1
 40
1
 40
1
 10
940.509154
 20
506.590022
 30
0.0
 10
940.509149
 20
507.040893
 30
0.0
 10
940.688252
 20
507.473299
 30
0.0
 10
941.007063
 20
507.792116
 30
0.0
  0
SPLINE
  5
474
100
AcDbEntity
  8
Calque_1
 62
1
100
AcDbSpline
 70
8
 71
3
 72
8
 73
4
 74
0
 40
0
 40
0
 40
0
 40
0
 40
1
 40
1
 40
1
 40
1
 10
941.007063
 20
507.792116
 30
0.0
 10
941.325874
 20
508.110932
 30
0.0
 10
941.758277
 20
508.290042
 30
0.0
 10
942.209148
 20
508.290044
 30
0.0
  0
LINE
  5
475
100
AcDbEntity
  8
Calque_1
 62
1
100
AcDbLine
 10
942.209148
 20
508.290044
 30
0.0
 11
942.209148
 21
508.290044
 31
0.0
  0
LINE
  5
476
100
AcDbEntity
  8
Calque_1
 62
3
100
AcDbLine
 10
952.159141
 20
496.640018
 30
0.0
 11
933.972459
 21
496.640018
 31
0.0
  0
LINE
  5
477
100
AcDbEntity
  8
Calque_1
 62
3
100
AcDbLine
 10
933.972459
 20
496.640018
 30
0.0
 11
933.972459
 21
514.826728
 31
0.0
  0
LINE
  5
478
100
AcDbEntity
  8
Calque_1
 62
3
100
AcDbLine
 10
933.972459
 20
514.826728
 30
0.0
 11
952.159141
 21
514.826728
 31
0.0
  0
LINE
  5
479
100
AcDbEntity
  8
Calque_1
 62
3
100
AcDbLine
 10
952.159141
 20
514.826728
 30
0.0
 11
952.159141
 21
496.640018
 31
0.0
  0
LINE
  5
47a
100
AcDbEntity
  8
Calque_1
 62
1
100
AcDbLine
 10
672.209088
 20
440.673322
 30
0.0
 11
752.109085
 21
440.673322
 31
0.0
  0
LINE
  5
47b
100
AcDbEntity
  8
Calque_1
 62
1
100
AcDbLine
 10
752.109085
 20
440.673322
 30
0.0
 11
752.109085
 21
437.773322
 31
0.0
  0
LINE
  5
47c
100
AcDbEntity
  8
Calque_1
 62
1
100
AcDbLine
 10
752.109085
 20
437.773322
 30
0.0
 11
672.209088
 21
437.773322
 31
0.0
  0
LINE
  5
47d
100
AcDbEntity
  8
Calque_1
 62
1
100
AcDbLine
 10
672.209088
 20
437.773322
 30
0.0
 11
672.209088
 21
440.673322
 31
0.0
  0
LINE
  5
47e
100
AcDbEntity
  8
Calque_1
 62
3
100
AcDbLine
 10
672.209088
 20
437.673326
 30
0.0
 11
752.109076
 21
437.673326
 31
0.0
  0
LINE
  5
47f
100
AcDbEntity
  8
Calque_1
 62
3
100
AcDbLine
 10
752.109076
 20
437.673326
 30
0.0
 11
752.109076
 21
434.773326
 31
0.0
  0
LINE
  5
480
100
AcDbEntity
  8
Calque_1
 62
3
100
AcDbLine
 10
752.109076
 20
434.773326
 30
0.0
 11
672.209088
 21
434.773326
 31
0.0
  0
LINE
  5
481
100
AcDbEntity
  8
Calque_1
 62
3
100
AcDbLine
 10
672.209088
 20
434.773326
 30
0.0
 11
672.209088
 21
437.673326
 31
0.0
  0
LINE
  5
482
100
AcDbEntity
  8
Calque_1
 62
1
100
AcDbLine
 10
835.409107
 20
440.673322
 30
0.0
 11
915.309104
 21
440.673322
 31
0.0
  0
LINE
  5
483
100
AcDbEntity
  8
Calque_1
 62
1
100
AcDbLine
 10
915.309104
 20
440.673322
 30
0.0
 11
915.309104
 21
437.773322
 31
0.0
  0
LINE
  5
484
100
AcDbEntity
  8
Calque_1
 62
1
100
AcDbLine
 10
915.309104
 20
437.773322
 30
0.0
 11
835.409107
 21
437.773322
 31
0.0
  0
LINE
  5
485
100
AcDbEntity
  8
Calque_1
 62
1
100
AcDbLine
 10
835.409107
 20
437.773322
 30
0.0
 11
835.409107
 21
440.673322
 31
0.0
  0
LINE
  5
486
100
AcDbEntity
  8
Calque_1
 62
3
100
AcDbLine
 10
835.409107
 20
437.673326
 30
0.0
 11
915.309095
 21
437.673326
 31
0.0
  0
LINE
  5
487
100
AcDbEntity
  8
Calque_1
 62
3
100
AcDbLine
 10
915.309095
 20
437.673326
 30
0.0
 11
915.309095
 21
434.773326
 31
0.0
  0
LINE
  5
488
100
AcDbEntity
  8
Calque_1
 62
3
100
AcDbLine
 10
915.309095
 20
434.773326
 30
0.0
 11
835.409107
 21
434.773326
 31
0.0
  0
LINE
  5
489
100
AcDbEntity
  8
Calque_1
 62
3
100
AcDbLine
 10
835.409107
 20
434.773326
 30
0.0
 11
835.409107
 21
437.673326
 31
0.0
  0
LINE
  5
48a
100
AcDbEntity
  8
Calque_1
 62
1
100
AcDbLine
 10
672.209116
 20
378.806686
 30
0.0
 11
752.109113
 21
378.806686
 31
0.0
  0
LINE
  5
48b
100
AcDbEntity
  8
Calque_1
 62
1
100
AcDbLine
 10
752.109113
 20
378.806686
 30
0.0
 11
752.109113
 21
375.906686
 31
0.0
  0
LINE
  5
48c
100
AcDbEntity
  8
Calque_1
 62
1
100
AcDbLine
 10
752.109113
 20
375.906686
 30
0.0
 11
672.209116
 21
375.906686
 31
0.0
  0
LINE
  5
48d
100
AcDbEntity
  8
Calque_1
 62
1
100
AcDbLine
 10
672.209116
 20
375.906686
 30
0.0
 11
672.209116
 21
378.806686
 31
0.0
  0
LINE
  5
48e
100
AcDbEntity
  8
Calque_1
 62
3
100
AcDbLine
 10
672.209116
 20
375.806689
 30
0.0
 11
752.109104
 21
375.806689
 31
0.0
  0
LINE
  5
48f
100
AcDbEntity
  8
Calque_1
 62
3
100
AcDbLine
 10
752.109104
 20
375.806689
 30
0.0
 11
752.109104
 21
372.906689
 31
0.0
  0
LINE
  5
490
100
AcDbEntity
  8
Calque_1
 62
3
100
AcDbLine
 10
752.109104
 20
372.906689
 30
0.0
 11
672.209116
 21
372.906689
 31
0.0
  0
LINE
  5
491
100
AcDbEntity
  8
Calque_1
 62
3
100
AcDbLine
 10
672.209116
 20
372.906689
 30
0.0
 11
672.209116
 21
375.806689
 31
0.0
  0
LINE
  5
492
100
AcDbEntity
  8
Calque_1
 62
1
100
AcDbLine
 10
835.409107
 20
378.806686
 30
0.0
 11
915.309104
 21
378.806686
 31
0.0
  0
LINE
  5
493
100
AcDbEntity
  8
Calque_1
 62
1
100
AcDbLine
 10
915.309104
 20
378.806686
 30
0.0
 11
915.309104
 21
375.906686
 31
0.0
  0
LINE
  5
494
100
AcDbEntity
  8
Calque_1
 62
1
100
AcDbLine
 10
915.309104
 20
375.906686
 30
0.0
 11
835.409107
 21
375.906686
 31
0.0
  0
LINE
  5
495
100
AcDbEntity
  8
Calque_1
 62
1
100
AcDbLine
 10
835.409107
 20
375.906686
 30
0.0
 11
835.409107
 21
378.806686
 31
0.0
  0
LINE
  5
496
100
AcDbEntity
  8
Calque_1
 62
3
100
AcDbLine
 10
835.409107
 20
375.806689
 30
0.0
 11
915.309095
 21
375.806689
 31
0.0
  0
LINE
  5
497
100
AcDbEntity
  8
Calque_1
 62
3
100
AcDbLine
 10
915.309095
 20
375.806689
 30
0.0
 11
915.309095
 21
372.906689
 31
0.0
  0
LINE
  5
498
100
AcDbEntity
  8
Calque_1
 62
3
100
AcDbLine
 10
915.309095
 20
372.906689
 30
0.0
 11
835.409107
 21
372.906689
 31
0.0
  0
LINE
  5
499
100
AcDbEntity
  8
Calque_1
 62
3
100
AcDbLine
 10
835.409107
 20
372.906689
 30
0.0
 11
835.409107
 21
375.806689
 31
0.0
  0
ENDSEC
  0
SECTION
  2
OBJECTS
  0
DICTIONARY
  5
C
330
0
100
AcDbDictionary
  3
ACAD_GROUP
350
D
  3
ACAD_MLINESTYLE
350
17
  0
DICTIONARY
  5
D
330
C
100
AcDbDictionary
  0
DICTIONARY
  5
1A
330
C
100
AcDbDictionary
  0
DICTIONARY
  5
17
330
C
100
AcDbDictionary
  3
STANDARD
350
18
  0
DICTIONARY
  5
19
330
C
100
AcDbDictionary
  0
ENDSEC
  0
EOF
